<?xml version="1.0" encoding="utf-8"?>
<!-- Generator: Adobe Illustrator 22.0.1, SVG Export Plug-In . SVG Version: 6.00 Build 0)  -->
<svg version="1.1" id="Слой_1" xmlns="http://www.w3.org/2000/svg" xmlns:xlink="http://www.w3.org/1999/xlink" x="0px" y="0px"
	 viewBox="0 0 31.2 26" style="enable-background:new 0 0 31.2 26;" xml:space="preserve">
<style type="text/css">
	.st0{fill:#609C9F;}
	.st1{fill:currentColor;}
</style>
<g>
	<g>
		<path class="st0" d="M7.7,6.8L5.3,3.2c-0.7-1-1.9-1.7-3.2-1.7H0V0h2.1c1.8,0,3.5,0.9,4.5,2.4L9,6L7.7,6.8z"/>
	</g>
	<g>
		<g>
			<path class="st1" d="M29.3,6.6c0.2,0,0.3,0.1,0.3,0.1c0.1,0.1,0.1,0.2,0.1,0.3l-2.2,11c0,0.2-0.2,0.3-0.4,0.3h-16
				c-0.2,0-0.4-0.1-0.4-0.3L8.4,6.6H29.3 M29.3,5.1H6.6l2.6,13.2c0.2,0.9,1,1.5,1.9,1.5h16c0.9,0,1.7-0.6,1.9-1.5l2.2-10.9
				C31.4,6.2,30.5,5.1,29.3,5.1L29.3,5.1z"/>
		</g>
		<g>
			<path class="st1" d="M13.2,23.1c0.4,0,0.7,0.3,0.7,0.7c0,0.4-0.3,0.7-0.7,0.7s-0.7-0.3-0.7-0.7S12.8,23.1,13.2,23.1 M13.2,21.6
				c-1.2,0-2.2,1-2.2,2.2s1,2.2,2.2,2.2s2.2-1,2.2-2.2S14.4,21.6,13.2,21.6L13.2,21.6z"/>
		</g>
		<g>
			<path class="st1" d="M25,23.1c0.4,0,0.7,0.3,0.7,0.7c0,0.4-0.3,0.7-0.7,0.7s-0.7-0.3-0.7-0.7S24.6,23.1,25,23.1 M25,21.6
				c-1.2,0-2.2,1-2.2,2.2s1,2.2,2.2,2.2s2.2-1,2.2-2.2S26.2,21.6,25,21.6L25,21.6z"/>
		</g>
	</g>
</g>
</svg>
