<?xml version="1.0" encoding="utf-8"?>
<!-- Generator: Adobe Illustrator 22.0.1, SVG Export Plug-In . SVG Version: 6.00 Build 0)  -->
<svg version="1.1" id="Слой_1" xmlns="http://www.w3.org/2000/svg" xmlns:xlink="http://www.w3.org/1999/xlink" x="0px" y="0px"
	 viewBox="0 0 10 10.7" style="enable-background:new 0 0 10 10.7;" xml:space="preserve">
<path d="M6.1,5.3l3.8-4.2c0.2-0.3,0.2-0.7-0.1-1c-0.3-0.2-0.7-0.2-1,0.1L5,4.4L1.2,0.3C1,0,0.5-0.1,0.3,0.2
	C0,0.5-0.1,0.9,0.2,1.2l3.7,4.1L0.2,9.4c-0.3,0.3-0.2,0.7,0.1,1c0.2,0.3,0.7,0.2,0.9-0.1L5,6.2l3.8,4.2c0.3,0.3,0.7,0.3,1,0.1
	c0.3-0.3,0.3-0.7,0.1-1L6.1,5.3z"/>
</svg>
