<?xml version="1.0" encoding="utf-8"?>
<!-- Generator: Adobe Illustrator 22.0.1, SVG Export Plug-In . SVG Version: 6.00 Build 0)  -->
<svg version="1.1" id="Слой_1" xmlns="http://www.w3.org/2000/svg" xmlns:xlink="http://www.w3.org/1999/xlink" x="0px" y="0px"
	 viewBox="0 0 34 33.6" style="enable-background:new 0 0 34 33.6;" xml:space="preserve">
<style type="text/css">
	.st0{fill:#FFFFFF;}
	.st1{fill:#E2E1E6;}
	.st2{fill:#BAA085;}
</style>
<g>
	<rect x="0.2" y="0.2" class="st0" width="33.6" height="33.2"/>
	<path class="st1" d="M33.6,0.4v32.7H0.4V0.4H33.6 M34,0H0v33.6h34V0L34,0z"/>
	<g>
		<path class="st2" d="M16.9,11.8c-2.8,0-5.1,2.3-5.1,5s2.3,5,5.1,5s5.1-2.3,5.1-5C22,14,19.7,11.8,16.9,11.8z M16.9,20.1
			c-1.8,0-3.3-1.5-3.3-3.3c0-1.8,1.5-3.3,3.3-3.3c1.8,0,3.3,1.5,3.3,3.3C20.2,18.6,18.7,20.1,16.9,20.1z"/>
		<path class="st2" d="M26.7,12.8c-0.2-3.6-2.1-5.5-5.8-5.7c-1,0-1.4,0-4.1,0s-3,0-4.1,0c-3.6,0.2-5.6,2.1-5.8,5.7c0,1,0,1.4,0,4
			s0,3,0,4c0.2,3.6,2.1,5.5,5.8,5.7c1,0,1.4,0,4.1,0s3,0,4.1,0c3.6-0.2,5.6-2.1,5.8-5.7c0-1,0-1.4,0-4
			C26.7,14.1,26.7,13.8,26.7,12.8z M24.9,20.7c-0.1,2.6-1.4,3.9-4,4c-1,0-1.3,0-4,0s-2.9,0-4,0c-2.7-0.1-3.9-1.4-4-4
			c-0.1-1-0.1-1.3-0.1-3.9s0-2.9,0-3.9c0.1-2.6,1.4-3.9,4-4c1,0,1.3,0,4,0s2.9,0,4,0c2.7,0.1,3.9,1.4,4,4c0,1,0,1.3,0,3.9
			C25,19.4,25,19.7,24.9,20.7z"/>
		<path class="st2" d="M23.3,11.5c0,0.7-0.5,1.2-1.2,1.2l0,0c-0.7,0-1.2-0.5-1.2-1.2l0,0c0-0.6,0.5-1.2,1.2-1.2
			C22.8,10.4,23.3,10.9,23.3,11.5L23.3,11.5z"/>
	</g>
</g>
</svg>
