<?xml version="1.0" encoding="utf-8"?>
<!-- Generator: Adobe Illustrator 22.0.1, SVG Export Plug-In . SVG Version: 6.00 Build 0)  -->
<svg version="1.1" id="Слой_1" xmlns="http://www.w3.org/2000/svg" xmlns:xlink="http://www.w3.org/1999/xlink" x="0px" y="0px"
	 viewBox="0 0 139 30.6" style="enable-background:new 0 0 139 30.6;" xml:space="preserve">
<style type="text/css">
	.st0{fill:url(#SVGID_1_);}
	.st1{fill:#E72F52;}
	.st2{fill:url(#SVGID_2_);}
	.st3{fill:url(#SVGID_3_);}
	.st4{fill:url(#SVGID_4_);}
	.st5{fill:url(#SVGID_5_);}
	.st6{fill:url(#SVGID_6_);}
	.st7{fill:url(#SVGID_7_);}
	.st8{fill:#F8AC32;}
	.st9{fill:url(#SVGID_8_);}
	.st10{fill:url(#SVGID_9_);}
	.st11{fill:url(#SVGID_10_);}
	.st12{fill:url(#SVGID_11_);}
	.st13{fill:url(#SVGID_12_);}
	.st14{fill:url(#SVGID_13_);}
	.st15{fill:url(#SVGID_14_);}
	.st16{fill:url(#SVGID_15_);}
	.st17{fill:url(#SVGID_16_);}
	.st18{fill:url(#SVGID_17_);}
	.st19{fill:url(#SVGID_18_);}
	.st20{fill:url(#SVGID_19_);}
	.st21{fill:url(#SVGID_20_);}
	.st22{fill:url(#SVGID_21_);}
	.st23{fill:url(#SVGID_22_);}
	.st24{fill:url(#SVGID_23_);}
	.st25{fill:url(#SVGID_24_);}
	.st26{fill:url(#SVGID_25_);}
	.st27{fill:url(#SVGID_26_);}
	.st28{fill:url(#SVGID_27_);}
	.st29{fill:#2B2422;}
	.st30{display:none;}
	.st31{display:inline;fill:#2B2422;}
</style>
<g>

		<linearGradient id="SVGID_1_" gradientUnits="userSpaceOnUse" x1="-2658.0801" y1="-526.6505" x2="-2566.8201" y2="-526.6505" gradientTransform="matrix(1 0 0 -1 2658.0801 -504.9367)">
		<stop  offset="0" style="stop-color:#185F9D"/>
		<stop  offset="1" style="stop-color:#2075BA"/>
	</linearGradient>
	<path class="st0" d="M11.3,29.5c1.2,0,2.3,0.1,2.8-0.3c0.6-0.5,0.9-1.5,0.9-2.5v-3.3c0-0.7,0.2-1.3,0.6-1.8c0.4-0.5,1-0.8,1.7-0.8
		c0.7,0,1.3,0.3,1.7,0.8c0.4,0.5,0.6,1.1,0.6,1.8v6.1h2.1v-1.9c0.1,0.2,0.3,0.4,0.5,0.6c1,1,2.2,1.5,3.7,1.5l0.1,0l0.5-2.2
		c-0.1,0-0.3,0-0.4,0c-1,0-1.7-0.3-2.3-0.9c-0.6-0.6-0.9-1.4-0.9-2.4c0-0.9,0.3-1.7,0.8-2.3c0.6-0.6,1.3-0.9,2.2-0.9
		c1,0,1.8,0.3,2.4,1c0.5,0.6,0.8,1.5,0.8,2.6v4.9h2.1v-2.1c0.2,0.3,0.4,0.5,0.7,0.8c1.1,1,2.2,1.6,3.6,1.6c1,0,1.9-0.2,2.7-0.7
		c0.2-0.1,0.4-0.2,0.6-0.4v0.8h2v-6.1c0-0.7,0.2-1.4,0.7-1.8c0.5-0.5,1.1-0.7,1.7-0.7c0.7,0,1.3,0.3,1.8,0.7
		c0.5,0.5,0.7,1.1,0.7,1.8v6.1h2v-6.1c0-0.7,0.2-1.4,0.7-1.8c0.5-0.5,1.1-0.7,1.7-0.7c0.7,0,1.3,0.3,1.8,0.7
		c0.5,0.5,0.7,1.1,0.7,1.8v6.1h2V28c0.2,0.3,0.4,0.6,0.6,0.8c0.6,0.6,1.4,0.9,2.5,0.9c0.6,0,1-0.1,1.2-0.1c0.3-0.1,0.7-0.2,1.2-0.5
		l1.2-0.8v1.2l2.5,0c1,0,1.7,0.1,2.1-0.3c0.6-0.5,1-1.6,1-2.6v-3.3c0-0.7,0.2-1.3,0.6-1.8c0.4-0.5,1-0.8,1.7-0.8
		c0.7,0,1.3,0.3,1.7,0.8c0.4,0.5,0.6,1.1,0.6,1.8v6.1h2.1V28c0.2,0.3,0.4,0.6,0.6,0.8c0.6,0.6,1.4,0.9,2.5,0.9c0.6,0,1-0.1,1.2-0.2
		c0.3-0.1,0.8-0.1,1.2-0.4l1.2-0.9v1.3h1.5h0.5h1.5v-4.5h5.3v4.5h2.1V19.1h-2.1v4.3h-5.3v-4.3h-1.5h-0.5h-1.5V25
		c0,0.8-0.2,1.4-0.7,2c-0.5,0.5-1.2,0.8-1.9,0.8c-0.8,0-1.5-0.3-1.9-0.8c-0.5-0.5-0.7-1.2-0.7-2.3v-5.6H73V21
		c-0.1-0.2-0.3-0.5-0.5-0.7c-0.8-1-1.9-1.5-3.4-1.5c-1.3,0-2.3,0.4-3.1,1.3c-0.8,0.9-1.2,2-1.2,3.4v2.2c0,0.9-0.1,1.7-0.5,2
		c-0.2,0.2-0.6,0.2-1,0.3v-8.9h-2.1V25c0,0.8-0.2,1.4-0.7,2c-0.5,0.5-1.1,0.8-1.9,0.8c-0.8,0-1.5-0.3-1.9-0.8
		c-0.5-0.5-0.7-1.2-0.7-2.3v-5.6H54V21c-0.2-0.3-0.4-0.6-0.6-0.9c-0.8-0.9-1.9-1.3-3.2-1.3c-1.1,0-2,0.4-2.8,1.3l-0.6,0.7L46,20.1
		c-0.8-0.9-1.7-1.3-2.9-1.3c-1.3,0-2.3,0.4-3.1,1.3c-0.1,0.1-0.2,0.3-0.4,0.5c-0.4-0.4-0.8-0.7-1.3-1c-0.9-0.5-1.9-0.8-3-0.8
		c-1.4,0-2.6,0.5-3.7,1.6c-0.4,0.4-0.8,0.9-1,1.4c-0.4-0.9-1-1.6-1.9-2.2c-0.9-0.5-1.8-0.8-2.9-0.8c-1.5,0-2.8,0.5-3.7,1.5
		c-0.4,0.4-0.6,0.7-0.9,1.2c-0.2-0.4-0.4-0.8-0.7-1.2c-0.8-1-1.9-1.5-3.4-1.5c-1.3,0-2.3,0.4-3.1,1.3c-0.8,0.9-1.2,2-1.2,3.4v2.2
		c0,0.9-0.1,1.6-0.6,2c-0.2,0.2-0.7,0.2-1.1,0.3v-7.8c0-2-0.5-3.6-1.6-4.8c-1-1.1-2.4-1.7-4.1-1.7c-1.7,0-3,0.5-4.1,1.7
		c-1,1.1-1.6,2.7-1.6,4.8v9.2h2.5V20c0-3.4,2.2-3.7,3.2-3.7c1,0,3.2,0.4,3.2,3.7v9.5 M37.8,26.6c-0.2,0.2-0.5,0.4-0.8,0.6
		c-0.5,0.3-1.1,0.4-1.7,0.4c-0.8,0-1.6-0.3-2.3-1c-0.7-0.6-1-1.4-1-2.4c0-0.9,0.3-1.7,1-2.4c0.7-0.6,1.4-1,2.3-1
		c0.7,0,1.4,0.2,1.9,0.6c0.2,0.2,0.5,0.4,0.6,0.6l1.3-0.7c-0.3,0.7-0.5,1.6-0.5,2.7v3.3L37.8,26.6z"/>
	<g>
		<g>
			<path class="st1" d="M110.6,9.6C110.6,9.6,110.6,9.6,110.6,9.6c0-0.2,0-0.5,0.1-0.7c0,0,0,0,0,0c0,0,0,0,0,0
				c0.1-1.1,0.3-2.2,0.4-3.4c0.2-1.1,0.3-2.3,0.4-3.4L109.3,1h0l0,0c0,0,0,0,0,0c0,0,0,0,0,0c0,0,0,0,0,0h0h0c0,0,0,0,0,0h0
				c0,0,0,0,0,0s0,0,0,0c0,0,0,0,0,0c0,0,0,0,0,0c0,0,0,0,0,0c0,0,0,0,0,0c0,0,0,0,0,0c0,0,0,0,0,0c-0.3,2.2-0.6,4.4-0.8,6.6
				c-0.1,1-0.2,2-0.2,3c0,0.5-0.1,1.2,0.2,1.7c0,0.1,0.1,0.1,0.1,0.1c0.7,0.4,1.4,0.8,2.2,1.2c0,0,0,0,0,0c0,0,0.1,0,0.1,0
				c0.1,0,0.2-0.1,0.3-0.2C110,14.4,110.4,11.3,110.6,9.6z"/>

				<linearGradient id="SVGID_2_" gradientUnits="userSpaceOnUse" x1="-2548.4709" y1="-517.5707" x2="-2548.3347" y2="-513.0569" gradientTransform="matrix(1 0 0 -1 2658.0801 -504.9367)">
				<stop  offset="0" style="stop-color:#CD132E"/>
				<stop  offset="0.5514" style="stop-color:#BB1C31;stop-opacity:0.4486"/>
				<stop  offset="1" style="stop-color:#B51E33;stop-opacity:0"/>
			</linearGradient>
			<path class="st2" d="M110.6,9.6C110.6,9.6,110.6,9.6,110.6,9.6c0-0.2,0-0.5,0.1-0.7c0,0,0,0,0,0c0,0,0,0,0,0
				c0.1-1.1,0.3-2.2,0.4-3.4c0.2-1.1,0.3-2.3,0.4-3.4L109.3,1h0l0,0c0,0,0,0,0,0c0,0,0,0,0,0c0,0,0,0,0,0h0h0c0,0,0,0,0,0h0
				c0,0,0,0,0,0s0,0,0,0c0,0,0,0,0,0c0,0,0,0,0,0c0,0,0,0,0,0c0,0,0,0,0,0c0,0,0,0,0,0c0,0,0,0,0,0c-0.3,2.2-0.6,4.4-0.8,6.6
				c-0.1,1-0.2,2-0.2,3c0,0.5-0.1,1.2,0.2,1.7c0,0.1,0.1,0.1,0.1,0.1c0.7,0.4,1.4,0.8,2.2,1.2c0,0,0,0,0,0c0,0,0.1,0,0.1,0
				c0.1,0,0.2-0.1,0.3-0.2C110,14.4,110.4,11.3,110.6,9.6z"/>

				<linearGradient id="SVGID_3_" gradientUnits="userSpaceOnUse" x1="-2547.3623" y1="-506.5438" x2="-2547.741" y2="-509.8022" gradientTransform="matrix(1 0 0 -1 2658.0801 -504.9367)">
				<stop  offset="0" style="stop-color:#CD132E"/>
				<stop  offset="0.5514" style="stop-color:#BB1C31;stop-opacity:0.4486"/>
				<stop  offset="1" style="stop-color:#B51E33;stop-opacity:0"/>
			</linearGradient>
			<path class="st3" d="M110.6,9.6C110.6,9.6,110.6,9.6,110.6,9.6c0-0.2,0-0.5,0.1-0.7c0,0,0,0,0,0c0,0,0,0,0,0
				c0.1-1.1,0.3-2.2,0.4-3.4c0.2-1.1,0.3-2.3,0.4-3.4L109.3,1h0l0,0c0,0,0,0,0,0c0,0,0,0,0,0c0,0,0,0,0,0h0h0c0,0,0,0,0,0h0
				c0,0,0,0,0,0s0,0,0,0c0,0,0,0,0,0c0,0,0,0,0,0c0,0,0,0,0,0c0,0,0,0,0,0c0,0,0,0,0,0c0,0,0,0,0,0c-0.3,2.2-0.6,4.4-0.8,6.6
				c-0.1,1-0.2,2-0.2,3c0,0.5-0.1,1.2,0.2,1.7c0,0.1,0.1,0.1,0.1,0.1c0.7,0.4,1.4,0.8,2.2,1.2c0,0,0,0,0,0c0,0,0.1,0,0.1,0
				c0.1,0,0.2-0.1,0.3-0.2C110,14.4,110.4,11.3,110.6,9.6z"/>

				<linearGradient id="SVGID_4_" gradientUnits="userSpaceOnUse" x1="-2547.5764" y1="-508.3867" x2="-2548.4897" y2="-516.2459" gradientTransform="matrix(1 0 0 -1 2658.0801 -504.9367)">
				<stop  offset="0" style="stop-color:#E83D64;stop-opacity:0.4"/>
				<stop  offset="0.503" style="stop-color:#E83D64"/>
				<stop  offset="1" style="stop-color:#E83D64;stop-opacity:0.6"/>
			</linearGradient>
			<path class="st4" d="M110.6,9.6C110.6,9.6,110.6,9.6,110.6,9.6c0-0.2,0-0.5,0.1-0.7c0,0,0,0,0,0c0,0,0,0,0,0
				c0.1-1.1,0.3-2.2,0.4-3.4c0.2-1.1,0.3-2.3,0.4-3.4L109.3,1h0l0,0c0,0,0,0,0,0c0,0,0,0,0,0c0,0,0,0,0,0h0h0c0,0,0,0,0,0h0
				c0,0,0,0,0,0s0,0,0,0c0,0,0,0,0,0c0,0,0,0,0,0c0,0,0,0,0,0c0,0,0,0,0,0c0,0,0,0,0,0c0,0,0,0,0,0c-0.3,2.2-0.6,4.4-0.8,6.6
				c-0.1,1-0.2,2-0.2,3c0,0.5-0.1,1.2,0.2,1.7c0,0.1,0.1,0.1,0.1,0.1c0.7,0.4,1.4,0.8,2.2,1.2c0,0,0,0,0,0c0,0,0.1,0,0.1,0
				c0.1,0,0.2-0.1,0.3-0.2C110,14.4,110.4,11.3,110.6,9.6z"/>
		</g>
		<g>
			<path class="st1" d="M105.2,1.8C105.2,1.8,105.2,1.8,105.2,1.8c-0.7-0.4-1.4-0.8-2.1-1.2c-0.4-0.2-0.8-0.3-1.3-0.3
				c0,0-0.1,0-0.1,0c0,0,0,0,0,0c-0.1,0-0.1,0-0.2,0c0,0,0,0,0,0c-0.1,0-0.1,0-0.2,0c0,0,0,0-0.1,0c-0.1,0-0.1,0-0.2,0
				c0,0,0,0-0.1,0c0,0,0,0,0,0c-0.1,0-0.1,0-0.2,0c0,0,0,0,0,0c-0.1,0-0.1,0-0.2,0.1c0,0,0,0-0.1,0c-0.1,0-0.1,0-0.1,0.1
				c0,0,0,0-0.1,0c0,0,0,0,0,0c0,0,0,0-0.1,0c0,0-0.1,0-0.1,0.1c0,0-0.1,0-0.1,0.1c0,0-0.1,0-0.1,0.1c0,0-0.1,0-0.1,0.1
				c0,0-0.1,0-0.1,0.1c0,0-0.1,0-0.1,0.1c0,0-0.1,0-0.1,0.1c0,0,0,0-0.1,0c0,0,0,0,0,0c-0.1,0-0.1,0.1-0.2,0.1c0,0,0,0,0,0
				c-0.1,0.1-0.2,0.1-0.2,0.2c0,0,0,0-0.1,0.1c-0.1,0-0.1,0.1-0.2,0.1c0,0,0,0-0.1,0.1c-0.1,0.1-0.2,0.1-0.2,0.2
				C98.1,2,98,2.1,97.9,2.2c0,0,0,0,0,0c0,0-0.1,0.1-0.1,0.1c0,0,0,0-0.1,0.1c-0.1,0.1-0.1,0.2-0.2,0.2c0,0,0,0-0.1,0.1
				c0,0.1-0.1,0.1-0.1,0.2c0,0-0.1,0.1-0.1,0.1c0,0.1-0.1,0.1-0.1,0.2c0,0-0.1,0.1-0.1,0.1c0,0-0.1,0.1-0.1,0.1c0,0-0.1,0.1-0.1,0.1
				c0,0.1-0.1,0.1-0.1,0.2c0,0-0.1,0.1-0.1,0.1c0,0-0.1,0.1-0.1,0.2c0,0-0.1,0.1-0.1,0.1c0,0.1-0.1,0.1-0.1,0.2c0,0,0,0.1-0.1,0.1
				c0,0.1-0.1,0.1-0.1,0.2c0,0,0,0.1-0.1,0.1c0,0.1-0.1,0.1-0.1,0.2c0,0,0,0.1-0.1,0.1c0,0.1,0,0.1-0.1,0.2c0,0,0,0.1-0.1,0.1
				c0,0.1-0.1,0.1-0.1,0.2c0,0,0,0.1-0.1,0.1c0,0.1,0,0.1-0.1,0.2c0,0,0,0.1,0,0.1c0,0.1-0.1,0.1-0.1,0.2c0,0,0,0.1,0,0.1
				c0,0.1-0.1,0.2-0.1,0.3c-1.4,4.1-1.3,8.6-0.9,12.8c0.3,3.4,0.8,6.8,1.4,10.1l2.2,1.2c0.1,0,0.2,0,0.2-0.1
				c-0.6-3.8-1.2-7.7-1.5-11.6c-0.2-4.2-0.2-8.8,1.6-12.7c0.8-1.8,3-4.5,5.2-4.7c0,0,0,0,0,0s0,0,0,0c0,0,0,0,0,0c0,0,0.1,0,0.1,0
				c0,0,0,0,0.1,0c0,0,0,0,0.1,0c0.4,0,1.1,0,1.6,0.4C105.3,1.8,105.2,1.8,105.2,1.8z"/>

				<linearGradient id="SVGID_5_" gradientUnits="userSpaceOnUse" x1="-2551.6938" y1="-508.3415" x2="-2555.7773" y2="-514.5745" gradientTransform="matrix(1 0 0 -1 2658.0801 -504.9367)">
				<stop  offset="0" style="stop-color:#CD132E"/>
				<stop  offset="0.5514" style="stop-color:#BB1C31;stop-opacity:0.4486"/>
				<stop  offset="1" style="stop-color:#B51E33;stop-opacity:0"/>
			</linearGradient>
			<path class="st5" d="M105.2,1.8C105.2,1.8,105.2,1.8,105.2,1.8c-0.7-0.4-1.4-0.8-2.1-1.2c-0.4-0.2-0.8-0.3-1.3-0.3
				c0,0-0.1,0-0.1,0c0,0,0,0,0,0c-0.1,0-0.1,0-0.2,0c0,0,0,0,0,0c-0.1,0-0.1,0-0.2,0c0,0,0,0-0.1,0c-0.1,0-0.1,0-0.2,0
				c0,0,0,0-0.1,0c0,0,0,0,0,0c-0.1,0-0.1,0-0.2,0c0,0,0,0,0,0c-0.1,0-0.1,0-0.2,0.1c0,0,0,0-0.1,0c-0.1,0-0.1,0-0.1,0.1
				c0,0,0,0-0.1,0c0,0,0,0,0,0c0,0,0,0-0.1,0c0,0-0.1,0-0.1,0.1c0,0-0.1,0-0.1,0.1c0,0-0.1,0-0.1,0.1c0,0-0.1,0-0.1,0.1
				c0,0-0.1,0-0.1,0.1c0,0-0.1,0-0.1,0.1c0,0-0.1,0-0.1,0.1c0,0,0,0-0.1,0c0,0,0,0,0,0c-0.1,0-0.1,0.1-0.2,0.1c0,0,0,0,0,0
				c-0.1,0.1-0.2,0.1-0.2,0.2c0,0,0,0-0.1,0.1c-0.1,0-0.1,0.1-0.2,0.1c0,0,0,0-0.1,0.1c-0.1,0.1-0.2,0.1-0.2,0.2
				C98.1,2,98,2.1,97.9,2.2c0,0,0,0,0,0c0,0-0.1,0.1-0.1,0.1c0,0,0,0-0.1,0.1c-0.1,0.1-0.1,0.2-0.2,0.2c0,0,0,0-0.1,0.1
				c0,0.1-0.1,0.1-0.1,0.2c0,0-0.1,0.1-0.1,0.1c0,0.1-0.1,0.1-0.1,0.2c0,0-0.1,0.1-0.1,0.1c0,0-0.1,0.1-0.1,0.1c0,0-0.1,0.1-0.1,0.1
				c0,0.1-0.1,0.1-0.1,0.2c0,0-0.1,0.1-0.1,0.1c0,0-0.1,0.1-0.1,0.2c0,0-0.1,0.1-0.1,0.1c0,0.1-0.1,0.1-0.1,0.2c0,0,0,0.1-0.1,0.1
				c0,0.1-0.1,0.1-0.1,0.2c0,0,0,0.1-0.1,0.1c0,0.1-0.1,0.1-0.1,0.2c0,0,0,0.1-0.1,0.1c0,0.1,0,0.1-0.1,0.2c0,0,0,0.1-0.1,0.1
				c0,0.1-0.1,0.1-0.1,0.2c0,0,0,0.1-0.1,0.1c0,0.1,0,0.1-0.1,0.2c0,0,0,0.1,0,0.1c0,0.1-0.1,0.1-0.1,0.2c0,0,0,0.1,0,0.1
				c0,0.1-0.1,0.2-0.1,0.3c-1.4,4.1-1.3,8.6-0.9,12.8c0.3,3.4,0.8,6.8,1.4,10.1l2.2,1.2c0.1,0,0.2,0,0.2-0.1
				c-0.6-3.8-1.2-7.7-1.5-11.6c-0.2-4.2-0.2-8.8,1.6-12.7c0.8-1.8,3-4.5,5.2-4.7c0,0,0,0,0,0s0,0,0,0c0,0,0,0,0,0c0,0,0.1,0,0.1,0
				c0,0,0,0,0.1,0c0,0,0,0,0.1,0c0.4,0,1.1,0,1.6,0.4C105.3,1.8,105.2,1.8,105.2,1.8z"/>

				<linearGradient id="SVGID_6_" gradientUnits="userSpaceOnUse" x1="-2555.2803" y1="-534.2167" x2="-2556.4807" y2="-526.8617" gradientTransform="matrix(1 0 0 -1 2658.0801 -504.9367)">
				<stop  offset="0" style="stop-color:#CD132E"/>
				<stop  offset="0.5514" style="stop-color:#BB1C31;stop-opacity:0.4486"/>
				<stop  offset="1" style="stop-color:#B51E33;stop-opacity:0"/>
			</linearGradient>
			<path class="st6" d="M105.2,1.8C105.2,1.8,105.2,1.8,105.2,1.8c-0.7-0.4-1.4-0.8-2.1-1.2c-0.4-0.2-0.8-0.3-1.3-0.3
				c0,0-0.1,0-0.1,0c0,0,0,0,0,0c-0.1,0-0.1,0-0.2,0c0,0,0,0,0,0c-0.1,0-0.1,0-0.2,0c0,0,0,0-0.1,0c-0.1,0-0.1,0-0.2,0
				c0,0,0,0-0.1,0c0,0,0,0,0,0c-0.1,0-0.1,0-0.2,0c0,0,0,0,0,0c-0.1,0-0.1,0-0.2,0.1c0,0,0,0-0.1,0c-0.1,0-0.1,0-0.1,0.1
				c0,0,0,0-0.1,0c0,0,0,0,0,0c0,0,0,0-0.1,0c0,0-0.1,0-0.1,0.1c0,0-0.1,0-0.1,0.1c0,0-0.1,0-0.1,0.1c0,0-0.1,0-0.1,0.1
				c0,0-0.1,0-0.1,0.1c0,0-0.1,0-0.1,0.1c0,0-0.1,0-0.1,0.1c0,0,0,0-0.1,0c0,0,0,0,0,0c-0.1,0-0.1,0.1-0.2,0.1c0,0,0,0,0,0
				c-0.1,0.1-0.2,0.1-0.2,0.2c0,0,0,0-0.1,0.1c-0.1,0-0.1,0.1-0.2,0.1c0,0,0,0-0.1,0.1c-0.1,0.1-0.2,0.1-0.2,0.2
				C98.1,2,98,2.1,97.9,2.2c0,0,0,0,0,0c0,0-0.1,0.1-0.1,0.1c0,0,0,0-0.1,0.1c-0.1,0.1-0.1,0.2-0.2,0.2c0,0,0,0-0.1,0.1
				c0,0.1-0.1,0.1-0.1,0.2c0,0-0.1,0.1-0.1,0.1c0,0.1-0.1,0.1-0.1,0.2c0,0-0.1,0.1-0.1,0.1c0,0-0.1,0.1-0.1,0.1c0,0-0.1,0.1-0.1,0.1
				c0,0.1-0.1,0.1-0.1,0.2c0,0-0.1,0.1-0.1,0.1c0,0-0.1,0.1-0.1,0.2c0,0-0.1,0.1-0.1,0.1c0,0.1-0.1,0.1-0.1,0.2c0,0,0,0.1-0.1,0.1
				c0,0.1-0.1,0.1-0.1,0.2c0,0,0,0.1-0.1,0.1c0,0.1-0.1,0.1-0.1,0.2c0,0,0,0.1-0.1,0.1c0,0.1,0,0.1-0.1,0.2c0,0,0,0.1-0.1,0.1
				c0,0.1-0.1,0.1-0.1,0.2c0,0,0,0.1-0.1,0.1c0,0.1,0,0.1-0.1,0.2c0,0,0,0.1,0,0.1c0,0.1-0.1,0.1-0.1,0.2c0,0,0,0.1,0,0.1
				c0,0.1-0.1,0.2-0.1,0.3c-1.4,4.1-1.3,8.6-0.9,12.8c0.3,3.4,0.8,6.8,1.4,10.1l2.2,1.2c0.1,0,0.2,0,0.2-0.1
				c-0.6-3.8-1.2-7.7-1.5-11.6c-0.2-4.2-0.2-8.8,1.6-12.7c0.8-1.8,3-4.5,5.2-4.7c0,0,0,0,0,0s0,0,0,0c0,0,0,0,0,0c0,0,0.1,0,0.1,0
				c0,0,0,0,0.1,0c0,0,0,0,0.1,0c0.4,0,1.1,0,1.6,0.4C105.3,1.8,105.2,1.8,105.2,1.8z"/>

				<linearGradient id="SVGID_7_" gradientUnits="userSpaceOnUse" x1="-2559.9578" y1="-520.1118" x2="-2556.198" y2="-511.0715" gradientTransform="matrix(1 0 0 -1 2658.0801 -504.9367)">
				<stop  offset="0" style="stop-color:#E83D64;stop-opacity:0.4"/>
				<stop  offset="0.503" style="stop-color:#E83D64"/>
				<stop  offset="1" style="stop-color:#E83D64;stop-opacity:0.6"/>
			</linearGradient>
			<path class="st7" d="M105.2,1.8C105.2,1.8,105.2,1.8,105.2,1.8c-0.7-0.4-1.4-0.8-2.1-1.2c-0.4-0.2-0.8-0.3-1.3-0.3
				c0,0-0.1,0-0.1,0c0,0,0,0,0,0c-0.1,0-0.1,0-0.2,0c0,0,0,0,0,0c-0.1,0-0.1,0-0.2,0c0,0,0,0-0.1,0c-0.1,0-0.1,0-0.2,0
				c0,0,0,0-0.1,0c0,0,0,0,0,0c-0.1,0-0.1,0-0.2,0c0,0,0,0,0,0c-0.1,0-0.1,0-0.2,0.1c0,0,0,0-0.1,0c-0.1,0-0.1,0-0.1,0.1
				c0,0,0,0-0.1,0c0,0,0,0,0,0c0,0,0,0-0.1,0c0,0-0.1,0-0.1,0.1c0,0-0.1,0-0.1,0.1c0,0-0.1,0-0.1,0.1c0,0-0.1,0-0.1,0.1
				c0,0-0.1,0-0.1,0.1c0,0-0.1,0-0.1,0.1c0,0-0.1,0-0.1,0.1c0,0,0,0-0.1,0c0,0,0,0,0,0c-0.1,0-0.1,0.1-0.2,0.1c0,0,0,0,0,0
				c-0.1,0.1-0.2,0.1-0.2,0.2c0,0,0,0-0.1,0.1c-0.1,0-0.1,0.1-0.2,0.1c0,0,0,0-0.1,0.1c-0.1,0.1-0.2,0.1-0.2,0.2
				C98.1,2,98,2.1,97.9,2.2c0,0,0,0,0,0c0,0-0.1,0.1-0.1,0.1c0,0,0,0-0.1,0.1c-0.1,0.1-0.1,0.2-0.2,0.2c0,0,0,0-0.1,0.1
				c0,0.1-0.1,0.1-0.1,0.2c0,0-0.1,0.1-0.1,0.1c0,0.1-0.1,0.1-0.1,0.2c0,0-0.1,0.1-0.1,0.1c0,0-0.1,0.1-0.1,0.1c0,0-0.1,0.1-0.1,0.1
				c0,0.1-0.1,0.1-0.1,0.2c0,0-0.1,0.1-0.1,0.1c0,0-0.1,0.1-0.1,0.2c0,0-0.1,0.1-0.1,0.1c0,0.1-0.1,0.1-0.1,0.2c0,0,0,0.1-0.1,0.1
				c0,0.1-0.1,0.1-0.1,0.2c0,0,0,0.1-0.1,0.1c0,0.1-0.1,0.1-0.1,0.2c0,0,0,0.1-0.1,0.1c0,0.1,0,0.1-0.1,0.2c0,0,0,0.1-0.1,0.1
				c0,0.1-0.1,0.1-0.1,0.2c0,0,0,0.1-0.1,0.1c0,0.1,0,0.1-0.1,0.2c0,0,0,0.1,0,0.1c0,0.1-0.1,0.1-0.1,0.2c0,0,0,0.1,0,0.1
				c0,0.1-0.1,0.2-0.1,0.3c-1.4,4.1-1.3,8.6-0.9,12.8c0.3,3.4,0.8,6.8,1.4,10.1l2.2,1.2c0.1,0,0.2,0,0.2-0.1
				c-0.6-3.8-1.2-7.7-1.5-11.6c-0.2-4.2-0.2-8.8,1.6-12.7c0.8-1.8,3-4.5,5.2-4.7c0,0,0,0,0,0s0,0,0,0c0,0,0,0,0,0c0,0,0.1,0,0.1,0
				c0,0,0,0,0.1,0c0,0,0,0,0.1,0c0.4,0,1.1,0,1.6,0.4C105.3,1.8,105.2,1.8,105.2,1.8z"/>
		</g>
		<g>
			<path class="st8" d="M105.3,1.9c-0.5-0.3-1.2-0.4-1.6-0.4c0,0,0.1,0,0.1,0c1.3,1.6,1.3,4.3,0.1,6c-0.1,0.1-0.1,0.1-0.2,0.2
				c0,0,0,0-0.1,0.1c0,0-0.1,0.1-0.1,0.1c0,0-0.1,0.1-0.1,0.1c0,0,0,0,0,0c0,0-0.1,0.1-0.1,0.1c0,0,0,0,0,0c0,0-0.1,0.1-0.1,0.1
				c0,0,0,0,0,0c0,0,0,0-0.1,0c-0.1,0-0.1,0.1-0.2,0.1c0,0,0,0-0.1,0c-0.1,0-0.1,0.1-0.2,0.1c-0.1,0-0.1,0-0.2,0.1c0,0,0,0,0,0
				c0,0-0.1,0-0.1,0c0,0,0,0-0.1,0c0,0-0.1,0-0.1,0c0,0,0,0-0.1,0c0,0-0.1,0-0.1,0c0,0-0.1,0-0.1,0c0,0-0.1,0-0.1,0c0,0-0.1,0-0.1,0
				c0,0-0.1,0-0.1,0c0,0-0.1,0-0.1,0c0,0-0.1,0-0.1,0c0,0-0.1,0-0.1,0c0,0-0.1,0-0.1,0c-0.2,0-0.4,0-0.6,0l0,0l0,0c0,0,0,0,0,0h0
				l0,0c0,0,0,0,0,0c0,0,0,0,0,0c0,0,0,0,0,0c0,0,0,0,0,0h0c0,0,0,0,0,0c0,0,0,0,0,0c0,0,0,0,0,0c0,0,0,0,0,0c0,0,0,0,0,0h0
				c0,0,0,0,0,0c0,0,0,0,0,0s0,0,0,0c0,0,0,0,0,0l2.2,1.2c0,0,0,0,0,0c0,0,0,0,0,0c0.2,0,0.5,0,0.7,0c1,0,1.9-0.3,2.7-0.9
				c0.9-0.7,1.3-1.8,1.4-3C107.3,4.7,106.7,2.7,105.3,1.9z"/>

				<linearGradient id="SVGID_8_" gradientUnits="userSpaceOnUse" x1="-2555.2649" y1="-508.0277" x2="-2554.811" y2="-510.1027" gradientTransform="matrix(1 0 0 -1 2658.0801 -504.9367)">
				<stop  offset="0" style="stop-color:#E9541F"/>
				<stop  offset="0.9879" style="stop-color:#E9541F;stop-opacity:0"/>
			</linearGradient>
			<path class="st9" d="M105.3,1.9c-0.5-0.3-1.2-0.4-1.6-0.4c0,0,0.1,0,0.1,0c1.3,1.6,1.3,4.3,0.1,6c-0.1,0.1-0.1,0.1-0.2,0.2
				c0,0,0,0-0.1,0.1c0,0-0.1,0.1-0.1,0.1c0,0-0.1,0.1-0.1,0.1c0,0,0,0,0,0c0,0-0.1,0.1-0.1,0.1c0,0,0,0,0,0c0,0-0.1,0.1-0.1,0.1
				c0,0,0,0,0,0c0,0,0,0-0.1,0c-0.1,0-0.1,0.1-0.2,0.1c0,0,0,0-0.1,0c-0.1,0-0.1,0.1-0.2,0.1c-0.1,0-0.1,0-0.2,0.1c0,0,0,0,0,0
				c0,0-0.1,0-0.1,0c0,0,0,0-0.1,0c0,0-0.1,0-0.1,0c0,0,0,0-0.1,0c0,0-0.1,0-0.1,0c0,0-0.1,0-0.1,0c0,0-0.1,0-0.1,0c0,0-0.1,0-0.1,0
				c0,0-0.1,0-0.1,0c0,0-0.1,0-0.1,0c0,0-0.1,0-0.1,0c0,0-0.1,0-0.1,0c0,0-0.1,0-0.1,0c-0.2,0-0.4,0-0.6,0l0,0l0,0c0,0,0,0,0,0h0
				l0,0c0,0,0,0,0,0c0,0,0,0,0,0c0,0,0,0,0,0c0,0,0,0,0,0h0c0,0,0,0,0,0c0,0,0,0,0,0c0,0,0,0,0,0c0,0,0,0,0,0c0,0,0,0,0,0h0
				c0,0,0,0,0,0c0,0,0,0,0,0s0,0,0,0c0,0,0,0,0,0l2.2,1.2c0,0,0,0,0,0c0,0,0,0,0,0c0.2,0,0.5,0,0.7,0c1,0,1.9-0.3,2.7-0.9
				c0.9-0.7,1.3-1.8,1.4-3C107.3,4.7,106.7,2.7,105.3,1.9z"/>

				<linearGradient id="SVGID_9_" gradientUnits="userSpaceOnUse" x1="-2557.2388" y1="-513.6422" x2="-2555.4595" y2="-512.1255" gradientTransform="matrix(1 0 0 -1 2658.0801 -504.9367)">
				<stop  offset="0" style="stop-color:#E7704E"/>
				<stop  offset="1" style="stop-color:#E7704E;stop-opacity:0"/>
			</linearGradient>
			<path class="st10" d="M105.3,1.9c-0.5-0.3-1.2-0.4-1.6-0.4c0,0,0.1,0,0.1,0c1.3,1.6,1.3,4.3,0.1,6c-0.1,0.1-0.1,0.1-0.2,0.2
				c0,0,0,0-0.1,0.1c0,0-0.1,0.1-0.1,0.1c0,0-0.1,0.1-0.1,0.1c0,0,0,0,0,0c0,0-0.1,0.1-0.1,0.1c0,0,0,0,0,0c0,0-0.1,0.1-0.1,0.1
				c0,0,0,0,0,0c0,0,0,0-0.1,0c-0.1,0-0.1,0.1-0.2,0.1c0,0,0,0-0.1,0c-0.1,0-0.1,0.1-0.2,0.1c-0.1,0-0.1,0-0.2,0.1c0,0,0,0,0,0
				c0,0-0.1,0-0.1,0c0,0,0,0-0.1,0c0,0-0.1,0-0.1,0c0,0,0,0-0.1,0c0,0-0.1,0-0.1,0c0,0-0.1,0-0.1,0c0,0-0.1,0-0.1,0c0,0-0.1,0-0.1,0
				c0,0-0.1,0-0.1,0c0,0-0.1,0-0.1,0c0,0-0.1,0-0.1,0c0,0-0.1,0-0.1,0c0,0-0.1,0-0.1,0c-0.2,0-0.4,0-0.6,0l0,0l0,0c0,0,0,0,0,0h0
				l0,0c0,0,0,0,0,0c0,0,0,0,0,0c0,0,0,0,0,0c0,0,0,0,0,0h0c0,0,0,0,0,0c0,0,0,0,0,0c0,0,0,0,0,0c0,0,0,0,0,0c0,0,0,0,0,0h0
				c0,0,0,0,0,0c0,0,0,0,0,0s0,0,0,0c0,0,0,0,0,0l2.2,1.2c0,0,0,0,0,0c0,0,0,0,0,0c0.2,0,0.5,0,0.7,0c1,0,1.9-0.3,2.7-0.9
				c0.9-0.7,1.3-1.8,1.4-3C107.3,4.7,106.7,2.7,105.3,1.9z"/>

				<linearGradient id="SVGID_10_" gradientUnits="userSpaceOnUse" x1="-2552.8525" y1="-508.8151" x2="-2554.6472" y2="-513.4058" gradientTransform="matrix(1 0 0 -1 2658.0801 -504.9367)">
				<stop  offset="7.100000e-03" style="stop-color:#F4B861;stop-opacity:0.4"/>
				<stop  offset="0.503" style="stop-color:#F4B861"/>
				<stop  offset="1" style="stop-color:#F4B861;stop-opacity:0.6"/>
			</linearGradient>
			<path class="st11" d="M105.3,1.9c-0.5-0.3-1.2-0.4-1.6-0.4c0,0,0.1,0,0.1,0c1.3,1.6,1.3,4.3,0.1,6c-0.1,0.1-0.1,0.1-0.2,0.2
				c0,0,0,0-0.1,0.1c0,0-0.1,0.1-0.1,0.1c0,0-0.1,0.1-0.1,0.1c0,0,0,0,0,0c0,0-0.1,0.1-0.1,0.1c0,0,0,0,0,0c0,0-0.1,0.1-0.1,0.1
				c0,0,0,0,0,0c0,0,0,0-0.1,0c-0.1,0-0.1,0.1-0.2,0.1c0,0,0,0-0.1,0c-0.1,0-0.1,0.1-0.2,0.1c-0.1,0-0.1,0-0.2,0.1c0,0,0,0,0,0
				c0,0-0.1,0-0.1,0c0,0,0,0-0.1,0c0,0-0.1,0-0.1,0c0,0,0,0-0.1,0c0,0-0.1,0-0.1,0c0,0-0.1,0-0.1,0c0,0-0.1,0-0.1,0c0,0-0.1,0-0.1,0
				c0,0-0.1,0-0.1,0c0,0-0.1,0-0.1,0c0,0-0.1,0-0.1,0c0,0-0.1,0-0.1,0c0,0-0.1,0-0.1,0c-0.2,0-0.4,0-0.6,0l0,0l0,0c0,0,0,0,0,0h0
				l0,0c0,0,0,0,0,0c0,0,0,0,0,0c0,0,0,0,0,0c0,0,0,0,0,0h0c0,0,0,0,0,0c0,0,0,0,0,0c0,0,0,0,0,0c0,0,0,0,0,0c0,0,0,0,0,0h0
				c0,0,0,0,0,0c0,0,0,0,0,0s0,0,0,0c0,0,0,0,0,0l2.2,1.2c0,0,0,0,0,0c0,0,0,0,0,0c0.2,0,0.5,0,0.7,0c1,0,1.9-0.3,2.7-0.9
				c0.9-0.7,1.3-1.8,1.4-3C107.3,4.7,106.7,2.7,105.3,1.9z"/>
		</g>
		<g>
			<path class="st1" d="M73.6,15C73.6,15,73.6,15,73.6,15c-0.1-0.2-0.2-0.3-0.3-0.4c0,0,0,0,0,0c0,0,0,0,0,0c-0.7-1-1-2.2-1.1-3.4
				c-0.1-1.8,0.6-3.5,1.5-5c1.3-2.1,3.4-3.9,5.7-4.7c0.4-0.2,0.9-0.3,1.4-0.3c0,0,0,0,0,0s0,0,0,0c0.1,0,0.2,0,0.2,0
				c0.1,0,0.1,0,0.2,0c0,0,0,0,0,0c0.5,0,1.4,0.1,1.9,0.6c-0.2-0.2-0.4-0.3-0.6-0.4c0,0,0,0,0.1,0l-2.2-1.2
				c-0.2-0.1-0.5-0.2-0.7-0.3C79.6,0,79.3,0,79,0c0,0,0,0-0.1,0c0,0,0,0,0,0c-0.1,0-0.1,0-0.2,0c0,0,0,0-0.1,0c-0.1,0-0.2,0-0.2,0
				c0,0,0,0,0,0c-0.1,0-0.1,0-0.2,0c0,0,0,0-0.1,0c-0.1,0-0.1,0-0.2,0c0,0,0,0,0,0c0,0,0,0,0,0c-0.1,0-0.2,0-0.3,0.1c0,0,0,0-0.1,0
				c-0.1,0-0.2,0.1-0.3,0.1c0,0,0,0,0,0c-0.1,0-0.2,0.1-0.3,0.1c0,0,0,0,0,0c-0.1,0-0.2,0.1-0.3,0.1c0,0,0,0,0,0c0,0,0,0,0,0
				c-0.1,0-0.2,0.1-0.3,0.1c0,0,0,0,0,0c-0.1,0-0.2,0.1-0.3,0.1c-0.1,0-0.2,0.1-0.3,0.1c0,0,0,0-0.1,0c-0.1,0-0.1,0.1-0.2,0.1
				c0,0-0.1,0-0.1,0.1c-0.1,0-0.1,0.1-0.2,0.1c0,0-0.1,0-0.1,0.1c-0.1,0-0.1,0.1-0.2,0.1c0,0,0,0,0,0c0,0-0.1,0.1-0.1,0.1
				c0,0-0.1,0-0.1,0.1c-0.1,0-0.1,0.1-0.2,0.1c0,0-0.1,0-0.1,0.1c-0.1,0.1-0.2,0.1-0.2,0.2c0,0-0.1,0-0.1,0.1
				c-0.1,0-0.1,0.1-0.2,0.1c0,0-0.1,0.1-0.1,0.1c0,0-0.1,0.1-0.1,0.1c0,0-0.1,0.1-0.1,0.1c0,0-0.1,0.1-0.1,0.1c0,0-0.1,0.1-0.1,0.1
				c0,0-0.1,0.1-0.1,0.1c0,0-0.1,0.1-0.1,0.1c0,0-0.1,0.1-0.1,0.1c0,0,0,0,0,0C73.1,3,73,3.1,72.9,3.2h0c-0.1,0.1-0.2,0.2-0.3,0.3
				c0,0,0,0.1-0.1,0.1c-0.1,0.1-0.1,0.1-0.2,0.2c0,0-0.1,0.1-0.1,0.1C72.3,3.9,72.2,4,72.2,4c0,0,0,0.1-0.1,0.1
				C72,4.2,72,4.3,71.9,4.4c0,0,0,0,0,0c-0.1,0.1-0.1,0.2-0.2,0.3c0,0,0,0.1-0.1,0.1c0,0.1-0.1,0.1-0.1,0.2c0,0,0,0.1-0.1,0.1
				c-0.1,0.1-0.1,0.2-0.1,0.2c0,0,0,0,0,0.1c-0.1,0.1-0.1,0.2-0.2,0.3c0,0,0,0,0,0.1c0,0.1-0.1,0.2-0.1,0.3c0,0,0,0.1-0.1,0.1
				c0,0.1-0.1,0.2-0.1,0.2c0,0,0,0.1,0,0.1c0,0.1-0.1,0.2-0.1,0.3c0,0,0,0,0,0.1c0,0.1-0.1,0.2-0.1,0.3c0,0,0,0.1,0,0.1
				c0,0.1-0.1,0.2-0.1,0.2c0,0,0,0.1,0,0.1c0,0.1,0,0.2-0.1,0.2c0,0,0,0.1,0,0.1c0,0.1-0.1,0.2-0.1,0.3c-0.5,2.1,0.3,5.4,2.3,6.5
				l2.2,1.2c0,0,0,0,0,0c0.2,0.1,0.5,0.2,0.7,0.3C74.5,16.1,74,15.4,73.6,15z M82.6,1.5c0,0-0.1,0-0.1-0.1
				C82.5,1.4,82.6,1.5,82.6,1.5z M74.3,15.9C74.3,15.9,74.3,15.9,74.3,15.9C74.3,15.9,74.3,15.9,74.3,15.9z"/>

				<linearGradient id="SVGID_11_" gradientUnits="userSpaceOnUse" x1="-2586.156" y1="-520.1147" x2="-2583.3398" y2="-513.9906" gradientTransform="matrix(1 0 0 -1 2658.0801 -504.9367)">
				<stop  offset="0" style="stop-color:#CD132E"/>
				<stop  offset="0.5514" style="stop-color:#BB1C31;stop-opacity:0.4486"/>
				<stop  offset="1" style="stop-color:#B51E33;stop-opacity:0"/>
			</linearGradient>
			<path class="st12" d="M73.6,15C73.6,15,73.6,15,73.6,15c-0.1-0.2-0.2-0.3-0.3-0.4c0,0,0,0,0,0c0,0,0,0,0,0c-0.7-1-1-2.2-1.1-3.4
				c-0.1-1.8,0.6-3.5,1.5-5c1.3-2.1,3.4-3.9,5.7-4.7c0.4-0.2,0.9-0.3,1.4-0.3c0,0,0,0,0,0s0,0,0,0c0.1,0,0.2,0,0.2,0
				c0.1,0,0.1,0,0.2,0c0,0,0,0,0,0c0.5,0,1.4,0.1,1.9,0.6c-0.2-0.2-0.4-0.3-0.6-0.4c0,0,0,0,0.1,0l-2.2-1.2
				c-0.2-0.1-0.5-0.2-0.7-0.3C79.6,0,79.3,0,79,0c0,0,0,0-0.1,0c0,0,0,0,0,0c-0.1,0-0.1,0-0.2,0c0,0,0,0-0.1,0c-0.1,0-0.2,0-0.2,0
				c0,0,0,0,0,0c-0.1,0-0.1,0-0.2,0c0,0,0,0-0.1,0c-0.1,0-0.1,0-0.2,0c0,0,0,0,0,0c0,0,0,0,0,0c-0.1,0-0.2,0-0.3,0.1c0,0,0,0-0.1,0
				c-0.1,0-0.2,0.1-0.3,0.1c0,0,0,0,0,0c-0.1,0-0.2,0.1-0.3,0.1c0,0,0,0,0,0c-0.1,0-0.2,0.1-0.3,0.1c0,0,0,0,0,0c0,0,0,0,0,0
				c-0.1,0-0.2,0.1-0.3,0.1c0,0,0,0,0,0c-0.1,0-0.2,0.1-0.3,0.1c-0.1,0-0.2,0.1-0.3,0.1c0,0,0,0-0.1,0c-0.1,0-0.1,0.1-0.2,0.1
				c0,0-0.1,0-0.1,0.1c-0.1,0-0.1,0.1-0.2,0.1c0,0-0.1,0-0.1,0.1c-0.1,0-0.1,0.1-0.2,0.1c0,0,0,0,0,0c0,0-0.1,0.1-0.1,0.1
				c0,0-0.1,0-0.1,0.1c-0.1,0-0.1,0.1-0.2,0.1c0,0-0.1,0-0.1,0.1c-0.1,0.1-0.2,0.1-0.2,0.2c0,0-0.1,0-0.1,0.1
				c-0.1,0-0.1,0.1-0.2,0.1c0,0-0.1,0.1-0.1,0.1c0,0-0.1,0.1-0.1,0.1c0,0-0.1,0.1-0.1,0.1c0,0-0.1,0.1-0.1,0.1c0,0-0.1,0.1-0.1,0.1
				c0,0-0.1,0.1-0.1,0.1c0,0-0.1,0.1-0.1,0.1c0,0-0.1,0.1-0.1,0.1c0,0,0,0,0,0C73.1,3,73,3.1,72.9,3.2h0c-0.1,0.1-0.2,0.2-0.3,0.3
				c0,0,0,0.1-0.1,0.1c-0.1,0.1-0.1,0.1-0.2,0.2c0,0-0.1,0.1-0.1,0.1C72.3,3.9,72.2,4,72.2,4c0,0,0,0.1-0.1,0.1
				C72,4.2,72,4.3,71.9,4.4c0,0,0,0,0,0c-0.1,0.1-0.1,0.2-0.2,0.3c0,0,0,0.1-0.1,0.1c0,0.1-0.1,0.1-0.1,0.2c0,0,0,0.1-0.1,0.1
				c-0.1,0.1-0.1,0.2-0.1,0.2c0,0,0,0,0,0.1c-0.1,0.1-0.1,0.2-0.2,0.3c0,0,0,0,0,0.1c0,0.1-0.1,0.2-0.1,0.3c0,0,0,0.1-0.1,0.1
				c0,0.1-0.1,0.2-0.1,0.2c0,0,0,0.1,0,0.1c0,0.1-0.1,0.2-0.1,0.3c0,0,0,0,0,0.1c0,0.1-0.1,0.2-0.1,0.3c0,0,0,0.1,0,0.1
				c0,0.1-0.1,0.2-0.1,0.2c0,0,0,0.1,0,0.1c0,0.1,0,0.2-0.1,0.2c0,0,0,0.1,0,0.1c0,0.1-0.1,0.2-0.1,0.3c-0.5,2.1,0.3,5.4,2.3,6.5
				l2.2,1.2c0,0,0,0,0,0c0.2,0.1,0.5,0.2,0.7,0.3C74.5,16.1,74,15.4,73.6,15z M82.6,1.5c0,0-0.1,0-0.1-0.1
				C82.5,1.4,82.6,1.5,82.6,1.5z M74.3,15.9C74.3,15.9,74.3,15.9,74.3,15.9C74.3,15.9,74.3,15.9,74.3,15.9z"/>

				<linearGradient id="SVGID_12_" gradientUnits="userSpaceOnUse" x1="-2582.4578" y1="-513.3399" x2="-2574.916" y2="-507.0951" gradientTransform="matrix(1 0 0 -1 2658.0801 -504.9367)">
				<stop  offset="0" style="stop-color:#B51E33;stop-opacity:0"/>
				<stop  offset="1" style="stop-color:#CD132E"/>
			</linearGradient>
			<path class="st13" d="M73.6,15C73.6,15,73.6,15,73.6,15c-0.1-0.2-0.2-0.3-0.3-0.4c0,0,0,0,0,0c0,0,0,0,0,0c-0.7-1-1-2.2-1.1-3.4
				c-0.1-1.8,0.6-3.5,1.5-5c1.3-2.1,3.4-3.9,5.7-4.7c0.4-0.2,0.9-0.3,1.4-0.3c0,0,0,0,0,0s0,0,0,0c0.1,0,0.2,0,0.2,0
				c0.1,0,0.1,0,0.2,0c0,0,0,0,0,0c0.5,0,1.4,0.1,1.9,0.6c-0.2-0.2-0.4-0.3-0.6-0.4c0,0,0,0,0.1,0l-2.2-1.2
				c-0.2-0.1-0.5-0.2-0.7-0.3C79.6,0,79.3,0,79,0c0,0,0,0-0.1,0c0,0,0,0,0,0c-0.1,0-0.1,0-0.2,0c0,0,0,0-0.1,0c-0.1,0-0.2,0-0.2,0
				c0,0,0,0,0,0c-0.1,0-0.1,0-0.2,0c0,0,0,0-0.1,0c-0.1,0-0.1,0-0.2,0c0,0,0,0,0,0c0,0,0,0,0,0c-0.1,0-0.2,0-0.3,0.1c0,0,0,0-0.1,0
				c-0.1,0-0.2,0.1-0.3,0.1c0,0,0,0,0,0c-0.1,0-0.2,0.1-0.3,0.1c0,0,0,0,0,0c-0.1,0-0.2,0.1-0.3,0.1c0,0,0,0,0,0c0,0,0,0,0,0
				c-0.1,0-0.2,0.1-0.3,0.1c0,0,0,0,0,0c-0.1,0-0.2,0.1-0.3,0.1c-0.1,0-0.2,0.1-0.3,0.1c0,0,0,0-0.1,0c-0.1,0-0.1,0.1-0.2,0.1
				c0,0-0.1,0-0.1,0.1c-0.1,0-0.1,0.1-0.2,0.1c0,0-0.1,0-0.1,0.1c-0.1,0-0.1,0.1-0.2,0.1c0,0,0,0,0,0c0,0-0.1,0.1-0.1,0.1
				c0,0-0.1,0-0.1,0.1c-0.1,0-0.1,0.1-0.2,0.1c0,0-0.1,0-0.1,0.1c-0.1,0.1-0.2,0.1-0.2,0.2c0,0-0.1,0-0.1,0.1
				c-0.1,0-0.1,0.1-0.2,0.1c0,0-0.1,0.1-0.1,0.1c0,0-0.1,0.1-0.1,0.1c0,0-0.1,0.1-0.1,0.1c0,0-0.1,0.1-0.1,0.1c0,0-0.1,0.1-0.1,0.1
				c0,0-0.1,0.1-0.1,0.1c0,0-0.1,0.1-0.1,0.1c0,0-0.1,0.1-0.1,0.1c0,0,0,0,0,0C73.1,3,73,3.1,72.9,3.2h0c-0.1,0.1-0.2,0.2-0.3,0.3
				c0,0,0,0.1-0.1,0.1c-0.1,0.1-0.1,0.1-0.2,0.2c0,0-0.1,0.1-0.1,0.1C72.3,3.9,72.2,4,72.2,4c0,0,0,0.1-0.1,0.1
				C72,4.2,72,4.3,71.9,4.4c0,0,0,0,0,0c-0.1,0.1-0.1,0.2-0.2,0.3c0,0,0,0.1-0.1,0.1c0,0.1-0.1,0.1-0.1,0.2c0,0,0,0.1-0.1,0.1
				c-0.1,0.1-0.1,0.2-0.1,0.2c0,0,0,0,0,0.1c-0.1,0.1-0.1,0.2-0.2,0.3c0,0,0,0,0,0.1c0,0.1-0.1,0.2-0.1,0.3c0,0,0,0.1-0.1,0.1
				c0,0.1-0.1,0.2-0.1,0.2c0,0,0,0.1,0,0.1c0,0.1-0.1,0.2-0.1,0.3c0,0,0,0,0,0.1c0,0.1-0.1,0.2-0.1,0.3c0,0,0,0.1,0,0.1
				c0,0.1-0.1,0.2-0.1,0.2c0,0,0,0.1,0,0.1c0,0.1,0,0.2-0.1,0.2c0,0,0,0.1,0,0.1c0,0.1-0.1,0.2-0.1,0.3c-0.5,2.1,0.3,5.4,2.3,6.5
				l2.2,1.2c0,0,0,0,0,0c0.2,0.1,0.5,0.2,0.7,0.3C74.5,16.1,74,15.4,73.6,15z M82.6,1.5c0,0-0.1,0-0.1-0.1
				C82.5,1.4,82.6,1.5,82.6,1.5z M74.3,15.9C74.3,15.9,74.3,15.9,74.3,15.9C74.3,15.9,74.3,15.9,74.3,15.9z"/>

				<linearGradient id="SVGID_13_" gradientUnits="userSpaceOnUse" x1="-2586.3159" y1="-517.556" x2="-2577.4546" y2="-506.2744" gradientTransform="matrix(1 0 0 -1 2658.0801 -504.9367)">
				<stop  offset="0" style="stop-color:#E83D64;stop-opacity:0.4"/>
				<stop  offset="0.503" style="stop-color:#E83D64"/>
				<stop  offset="1" style="stop-color:#E83D64;stop-opacity:0.6"/>
			</linearGradient>
			<path class="st14" d="M73.6,15C73.6,15,73.6,15,73.6,15c-0.1-0.2-0.2-0.3-0.3-0.4c0,0,0,0,0,0c0,0,0,0,0,0c-0.7-1-1-2.2-1.1-3.4
				c-0.1-1.8,0.6-3.5,1.5-5c1.3-2.1,3.4-3.9,5.7-4.7c0.4-0.2,0.9-0.3,1.4-0.3c0,0,0,0,0,0s0,0,0,0c0.1,0,0.2,0,0.2,0
				c0.1,0,0.1,0,0.2,0c0,0,0,0,0,0c0.5,0,1.4,0.1,1.9,0.6c-0.2-0.2-0.4-0.3-0.6-0.4c0,0,0,0,0.1,0l-2.2-1.2
				c-0.2-0.1-0.5-0.2-0.7-0.3C79.6,0,79.3,0,79,0c0,0,0,0-0.1,0c0,0,0,0,0,0c-0.1,0-0.1,0-0.2,0c0,0,0,0-0.1,0c-0.1,0-0.2,0-0.2,0
				c0,0,0,0,0,0c-0.1,0-0.1,0-0.2,0c0,0,0,0-0.1,0c-0.1,0-0.1,0-0.2,0c0,0,0,0,0,0c0,0,0,0,0,0c-0.1,0-0.2,0-0.3,0.1c0,0,0,0-0.1,0
				c-0.1,0-0.2,0.1-0.3,0.1c0,0,0,0,0,0c-0.1,0-0.2,0.1-0.3,0.1c0,0,0,0,0,0c-0.1,0-0.2,0.1-0.3,0.1c0,0,0,0,0,0c0,0,0,0,0,0
				c-0.1,0-0.2,0.1-0.3,0.1c0,0,0,0,0,0c-0.1,0-0.2,0.1-0.3,0.1c-0.1,0-0.2,0.1-0.3,0.1c0,0,0,0-0.1,0c-0.1,0-0.1,0.1-0.2,0.1
				c0,0-0.1,0-0.1,0.1c-0.1,0-0.1,0.1-0.2,0.1c0,0-0.1,0-0.1,0.1c-0.1,0-0.1,0.1-0.2,0.1c0,0,0,0,0,0c0,0-0.1,0.1-0.1,0.1
				c0,0-0.1,0-0.1,0.1c-0.1,0-0.1,0.1-0.2,0.1c0,0-0.1,0-0.1,0.1c-0.1,0.1-0.2,0.1-0.2,0.2c0,0-0.1,0-0.1,0.1
				c-0.1,0-0.1,0.1-0.2,0.1c0,0-0.1,0.1-0.1,0.1c0,0-0.1,0.1-0.1,0.1c0,0-0.1,0.1-0.1,0.1c0,0-0.1,0.1-0.1,0.1c0,0-0.1,0.1-0.1,0.1
				c0,0-0.1,0.1-0.1,0.1c0,0-0.1,0.1-0.1,0.1c0,0-0.1,0.1-0.1,0.1c0,0,0,0,0,0C73.1,3,73,3.1,72.9,3.2h0c-0.1,0.1-0.2,0.2-0.3,0.3
				c0,0,0,0.1-0.1,0.1c-0.1,0.1-0.1,0.1-0.2,0.2c0,0-0.1,0.1-0.1,0.1C72.3,3.9,72.2,4,72.2,4c0,0,0,0.1-0.1,0.1
				C72,4.2,72,4.3,71.9,4.4c0,0,0,0,0,0c-0.1,0.1-0.1,0.2-0.2,0.3c0,0,0,0.1-0.1,0.1c0,0.1-0.1,0.1-0.1,0.2c0,0,0,0.1-0.1,0.1
				c-0.1,0.1-0.1,0.2-0.1,0.2c0,0,0,0,0,0.1c-0.1,0.1-0.1,0.2-0.2,0.3c0,0,0,0,0,0.1c0,0.1-0.1,0.2-0.1,0.3c0,0,0,0.1-0.1,0.1
				c0,0.1-0.1,0.2-0.1,0.2c0,0,0,0.1,0,0.1c0,0.1-0.1,0.2-0.1,0.3c0,0,0,0,0,0.1c0,0.1-0.1,0.2-0.1,0.3c0,0,0,0.1,0,0.1
				c0,0.1-0.1,0.2-0.1,0.2c0,0,0,0.1,0,0.1c0,0.1,0,0.2-0.1,0.2c0,0,0,0.1,0,0.1c0,0.1-0.1,0.2-0.1,0.3c-0.5,2.1,0.3,5.4,2.3,6.5
				l2.2,1.2c0,0,0,0,0,0c0.2,0.1,0.5,0.2,0.7,0.3C74.5,16.1,74,15.4,73.6,15z M82.6,1.5c0,0-0.1,0-0.1-0.1
				C82.5,1.4,82.6,1.5,82.6,1.5z M74.3,15.9C74.3,15.9,74.3,15.9,74.3,15.9C74.3,15.9,74.3,15.9,74.3,15.9z"/>
		</g>
		<g>
			<path class="st8" d="M84.9,9.6L84.9,9.6L84.9,9.6C84.8,9.6,84.8,9.6,84.9,9.6C84.8,9.6,84.8,9.6,84.9,9.6c0,0,0.7-0.8,1.4-0.3
				c0,0-0.1-0.1-0.1-0.1C86.1,9.1,86,9.1,85.9,9l0,0c-0.4-0.2-0.7-0.4-1.1-0.6c-0.4-0.2-0.7-0.4-1.1-0.6c-0.1-0.1-0.2-0.1-0.3-0.1h0
				c0,0,0,0,0,0c0,0,0,0,0,0c0,0,0,0,0,0c0,0,0,0,0,0c0,0,0,0,0,0c0,0,0,0,0,0c0,0-0.1,0-0.1,0c0,0,0,0,0,0c0,0,0,0,0,0c0,0,0,0,0,0
				c0,0,0,0,0,0c0,0,0,0,0,0c0,0,0,0,0,0c0,0,0,0,0,0c0,0,0,0,0,0c0,0,0,0,0,0c0,0,0,0-0.1,0.1c0,0,0,0,0,0c0,0,0,0,0,0c0,0,0,0,0,0
				c0,0,0,0,0,0c0,0,0,0,0,0c0,0,0,0,0,0c0,0-0.1,0.1-0.1,0.1c0,0,0,0,0,0c0,0-0.1,0.1-0.1,0.1c-0.9,0.9-1.7,1.9-2.6,2.9
				c-0.1,0.1-0.1,0.1-0.2,0.2c0,0,0,0,0,0c-0.1,0.1-0.1,0.1-0.2,0.2c0,0,0,0,0,0c-0.1,0.1-0.1,0.1-0.2,0.2c0,0,0,0,0,0
				C79.1,12,79,12.1,79,12.2c0,0,0,0,0,0c-0.1,0.1-0.2,0.1-0.2,0.2c0,0,0,0,0,0c-0.1,0.1-0.1,0.1-0.2,0.2c0,0,0,0-0.1,0
				c-0.1,0.1-0.2,0.1-0.2,0.2c0,0,0,0,0,0C78,13,78,13.1,77.9,13.1c0,0,0,0-0.1,0c-0.1,0.1-0.2,0.1-0.3,0.2c0,0,0,0,0,0
				c-0.1,0.1-0.2,0.1-0.2,0.2c0,0,0,0,0,0c-0.1,0.1-0.2,0.1-0.3,0.2c0,0,0,0-0.1,0c-0.1,0.1-0.2,0.1-0.2,0.2c0,0,0,0,0,0
				c-0.1,0.1-0.2,0.1-0.2,0.2c0,0,0,0-0.1,0c-0.1,0-0.1,0.1-0.2,0.1c0,0,0,0-0.1,0c-0.1,0-0.2,0.1-0.2,0.1c0,0,0,0,0,0
				c-0.1,0-0.2,0.1-0.3,0.1c0,0-0.1,0-0.1,0c0,0-0.1,0-0.1,0c0,0-0.1,0-0.1,0c0,0-0.1,0-0.1,0c0,0-0.1,0-0.1,0c0,0-0.1,0-0.1,0
				c0,0-0.1,0-0.1,0c0,0-0.1,0-0.1,0c0,0-0.1,0-0.1,0c0,0,0,0-0.1,0c-0.1,0-0.1,0-0.2,0c0,0,0,0,0,0c-0.1,0-0.1,0-0.2,0
				c0,0,0,0-0.1,0c-0.1,0-0.1,0-0.2,0c-0.1,0-0.2,0-0.3,0c0.3,0.4,0.9,1.1,1.7,1.2c0,0-0.1,0-0.1,0c0.1,0,0.2,0,0.2,0.1
				c0.2,0,0.4,0,0.6,0c1.3,0,2.6-0.8,3.6-1.6c1.2-0.9,2.3-2,3.4-3.2C83.7,10.9,84.3,10.2,84.9,9.6C84.9,9.5,84.9,9.5,84.9,9.6z
				 M85.8,9C85.8,9,85.8,9,85.8,9C85.8,9,85.8,9,85.8,9z"/>

				<linearGradient id="SVGID_14_" gradientUnits="userSpaceOnUse" x1="-2582.804" y1="-520.9745" x2="-2579.1541" y2="-517.9978" gradientTransform="matrix(1 0 0 -1 2658.0801 -504.9367)">
				<stop  offset="0" style="stop-color:#E9541F"/>
				<stop  offset="0.9879" style="stop-color:#E9541F;stop-opacity:0"/>
			</linearGradient>
			<path class="st15" d="M84.9,9.6L84.9,9.6L84.9,9.6C84.8,9.6,84.8,9.6,84.9,9.6C84.8,9.6,84.8,9.6,84.9,9.6c0,0,0.7-0.8,1.4-0.3
				c0,0-0.1-0.1-0.1-0.1C86.1,9.1,86,9.1,85.9,9l0,0c-0.4-0.2-0.7-0.4-1.1-0.6c-0.4-0.2-0.7-0.4-1.1-0.6c-0.1-0.1-0.2-0.1-0.3-0.1h0
				c0,0,0,0,0,0c0,0,0,0,0,0c0,0,0,0,0,0c0,0,0,0,0,0c0,0,0,0,0,0c0,0,0,0,0,0c0,0-0.1,0-0.1,0c0,0,0,0,0,0c0,0,0,0,0,0c0,0,0,0,0,0
				c0,0,0,0,0,0c0,0,0,0,0,0c0,0,0,0,0,0c0,0,0,0,0,0c0,0,0,0,0,0c0,0,0,0,0,0c0,0,0,0-0.1,0.1c0,0,0,0,0,0c0,0,0,0,0,0c0,0,0,0,0,0
				c0,0,0,0,0,0c0,0,0,0,0,0c0,0,0,0,0,0c0,0-0.1,0.1-0.1,0.1c0,0,0,0,0,0c0,0-0.1,0.1-0.1,0.1c-0.9,0.9-1.7,1.9-2.6,2.9
				c-0.1,0.1-0.1,0.1-0.2,0.2c0,0,0,0,0,0c-0.1,0.1-0.1,0.1-0.2,0.2c0,0,0,0,0,0c-0.1,0.1-0.1,0.1-0.2,0.2c0,0,0,0,0,0
				C79.1,12,79,12.1,79,12.2c0,0,0,0,0,0c-0.1,0.1-0.2,0.1-0.2,0.2c0,0,0,0,0,0c-0.1,0.1-0.1,0.1-0.2,0.2c0,0,0,0-0.1,0
				c-0.1,0.1-0.2,0.1-0.2,0.2c0,0,0,0,0,0C78,13,78,13.1,77.9,13.1c0,0,0,0-0.1,0c-0.1,0.1-0.2,0.1-0.3,0.2c0,0,0,0,0,0
				c-0.1,0.1-0.2,0.1-0.2,0.2c0,0,0,0,0,0c-0.1,0.1-0.2,0.1-0.3,0.2c0,0,0,0-0.1,0c-0.1,0.1-0.2,0.1-0.2,0.2c0,0,0,0,0,0
				c-0.1,0.1-0.2,0.1-0.2,0.2c0,0,0,0-0.1,0c-0.1,0-0.1,0.1-0.2,0.1c0,0,0,0-0.1,0c-0.1,0-0.2,0.1-0.2,0.1c0,0,0,0,0,0
				c-0.1,0-0.2,0.1-0.3,0.1c0,0-0.1,0-0.1,0c0,0-0.1,0-0.1,0c0,0-0.1,0-0.1,0c0,0-0.1,0-0.1,0c0,0-0.1,0-0.1,0c0,0-0.1,0-0.1,0
				c0,0-0.1,0-0.1,0c0,0-0.1,0-0.1,0c0,0-0.1,0-0.1,0c0,0,0,0-0.1,0c-0.1,0-0.1,0-0.2,0c0,0,0,0,0,0c-0.1,0-0.1,0-0.2,0
				c0,0,0,0-0.1,0c-0.1,0-0.1,0-0.2,0c-0.1,0-0.2,0-0.3,0c0.3,0.4,0.9,1.1,1.7,1.2c0,0-0.1,0-0.1,0c0.1,0,0.2,0,0.2,0.1
				c0.2,0,0.4,0,0.6,0c1.3,0,2.6-0.8,3.6-1.6c1.2-0.9,2.3-2,3.4-3.2C83.7,10.9,84.3,10.2,84.9,9.6C84.9,9.5,84.9,9.5,84.9,9.6z
				 M85.8,9C85.8,9,85.8,9,85.8,9C85.8,9,85.8,9,85.8,9z"/>

				<linearGradient id="SVGID_15_" gradientUnits="userSpaceOnUse" x1="-2574.9275" y1="-512.494" x2="-2578.2949" y2="-517.3016" gradientTransform="matrix(1 0 0 -1 2658.0801 -504.9367)">
				<stop  offset="0" style="stop-color:#E7704E"/>
				<stop  offset="1" style="stop-color:#E7704E;stop-opacity:0"/>
			</linearGradient>
			<path class="st16" d="M84.9,9.6L84.9,9.6L84.9,9.6C84.8,9.6,84.8,9.6,84.9,9.6C84.8,9.6,84.8,9.6,84.9,9.6c0,0,0.7-0.8,1.4-0.3
				c0,0-0.1-0.1-0.1-0.1C86.1,9.1,86,9.1,85.9,9l0,0c-0.4-0.2-0.7-0.4-1.1-0.6c-0.4-0.2-0.7-0.4-1.1-0.6c-0.1-0.1-0.2-0.1-0.3-0.1h0
				c0,0,0,0,0,0c0,0,0,0,0,0c0,0,0,0,0,0c0,0,0,0,0,0c0,0,0,0,0,0c0,0,0,0,0,0c0,0-0.1,0-0.1,0c0,0,0,0,0,0c0,0,0,0,0,0c0,0,0,0,0,0
				c0,0,0,0,0,0c0,0,0,0,0,0c0,0,0,0,0,0c0,0,0,0,0,0c0,0,0,0,0,0c0,0,0,0,0,0c0,0,0,0-0.1,0.1c0,0,0,0,0,0c0,0,0,0,0,0c0,0,0,0,0,0
				c0,0,0,0,0,0c0,0,0,0,0,0c0,0,0,0,0,0c0,0-0.1,0.1-0.1,0.1c0,0,0,0,0,0c0,0-0.1,0.1-0.1,0.1c-0.9,0.9-1.7,1.9-2.6,2.9
				c-0.1,0.1-0.1,0.1-0.2,0.2c0,0,0,0,0,0c-0.1,0.1-0.1,0.1-0.2,0.2c0,0,0,0,0,0c-0.1,0.1-0.1,0.1-0.2,0.2c0,0,0,0,0,0
				C79.1,12,79,12.1,79,12.2c0,0,0,0,0,0c-0.1,0.1-0.2,0.1-0.2,0.2c0,0,0,0,0,0c-0.1,0.1-0.1,0.1-0.2,0.2c0,0,0,0-0.1,0
				c-0.1,0.1-0.2,0.1-0.2,0.2c0,0,0,0,0,0C78,13,78,13.1,77.9,13.1c0,0,0,0-0.1,0c-0.1,0.1-0.2,0.1-0.3,0.2c0,0,0,0,0,0
				c-0.1,0.1-0.2,0.1-0.2,0.2c0,0,0,0,0,0c-0.1,0.1-0.2,0.1-0.3,0.2c0,0,0,0-0.1,0c-0.1,0.1-0.2,0.1-0.2,0.2c0,0,0,0,0,0
				c-0.1,0.1-0.2,0.1-0.2,0.2c0,0,0,0-0.1,0c-0.1,0-0.1,0.1-0.2,0.1c0,0,0,0-0.1,0c-0.1,0-0.2,0.1-0.2,0.1c0,0,0,0,0,0
				c-0.1,0-0.2,0.1-0.3,0.1c0,0-0.1,0-0.1,0c0,0-0.1,0-0.1,0c0,0-0.1,0-0.1,0c0,0-0.1,0-0.1,0c0,0-0.1,0-0.1,0c0,0-0.1,0-0.1,0
				c0,0-0.1,0-0.1,0c0,0-0.1,0-0.1,0c0,0-0.1,0-0.1,0c0,0,0,0-0.1,0c-0.1,0-0.1,0-0.2,0c0,0,0,0,0,0c-0.1,0-0.1,0-0.2,0
				c0,0,0,0-0.1,0c-0.1,0-0.1,0-0.2,0c-0.1,0-0.2,0-0.3,0c0.3,0.4,0.9,1.1,1.7,1.2c0,0-0.1,0-0.1,0c0.1,0,0.2,0,0.2,0.1
				c0.2,0,0.4,0,0.6,0c1.3,0,2.6-0.8,3.6-1.6c1.2-0.9,2.3-2,3.4-3.2C83.7,10.9,84.3,10.2,84.9,9.6C84.9,9.5,84.9,9.5,84.9,9.6z
				 M85.8,9C85.8,9,85.8,9,85.8,9C85.8,9,85.8,9,85.8,9z"/>

				<linearGradient id="SVGID_16_" gradientUnits="userSpaceOnUse" x1="-2581.1221" y1="-519.9124" x2="-2575.7661" y2="-514.8288" gradientTransform="matrix(1 0 0 -1 2658.0801 -504.9367)">
				<stop  offset="0" style="stop-color:#F4B861;stop-opacity:0.4"/>
				<stop  offset="0.503" style="stop-color:#F4B861"/>
				<stop  offset="1" style="stop-color:#F4B861;stop-opacity:0.6"/>
			</linearGradient>
			<path class="st17" d="M84.9,9.6L84.9,9.6L84.9,9.6C84.8,9.6,84.8,9.6,84.9,9.6C84.8,9.6,84.8,9.6,84.9,9.6c0,0,0.7-0.8,1.4-0.3
				c0,0-0.1-0.1-0.1-0.1C86.1,9.1,86,9.1,85.9,9l0,0c-0.4-0.2-0.7-0.4-1.1-0.6c-0.4-0.2-0.7-0.4-1.1-0.6c-0.1-0.1-0.2-0.1-0.3-0.1h0
				c0,0,0,0,0,0c0,0,0,0,0,0c0,0,0,0,0,0c0,0,0,0,0,0c0,0,0,0,0,0c0,0,0,0,0,0c0,0-0.1,0-0.1,0c0,0,0,0,0,0c0,0,0,0,0,0c0,0,0,0,0,0
				c0,0,0,0,0,0c0,0,0,0,0,0c0,0,0,0,0,0c0,0,0,0,0,0c0,0,0,0,0,0c0,0,0,0,0,0c0,0,0,0-0.1,0.1c0,0,0,0,0,0c0,0,0,0,0,0c0,0,0,0,0,0
				c0,0,0,0,0,0c0,0,0,0,0,0c0,0,0,0,0,0c0,0-0.1,0.1-0.1,0.1c0,0,0,0,0,0c0,0-0.1,0.1-0.1,0.1c-0.9,0.9-1.7,1.9-2.6,2.9
				c-0.1,0.1-0.1,0.1-0.2,0.2c0,0,0,0,0,0c-0.1,0.1-0.1,0.1-0.2,0.2c0,0,0,0,0,0c-0.1,0.1-0.1,0.1-0.2,0.2c0,0,0,0,0,0
				C79.1,12,79,12.1,79,12.2c0,0,0,0,0,0c-0.1,0.1-0.2,0.1-0.2,0.2c0,0,0,0,0,0c-0.1,0.1-0.1,0.1-0.2,0.2c0,0,0,0-0.1,0
				c-0.1,0.1-0.2,0.1-0.2,0.2c0,0,0,0,0,0C78,13,78,13.1,77.9,13.1c0,0,0,0-0.1,0c-0.1,0.1-0.2,0.1-0.3,0.2c0,0,0,0,0,0
				c-0.1,0.1-0.2,0.1-0.2,0.2c0,0,0,0,0,0c-0.1,0.1-0.2,0.1-0.3,0.2c0,0,0,0-0.1,0c-0.1,0.1-0.2,0.1-0.2,0.2c0,0,0,0,0,0
				c-0.1,0.1-0.2,0.1-0.2,0.2c0,0,0,0-0.1,0c-0.1,0-0.1,0.1-0.2,0.1c0,0,0,0-0.1,0c-0.1,0-0.2,0.1-0.2,0.1c0,0,0,0,0,0
				c-0.1,0-0.2,0.1-0.3,0.1c0,0-0.1,0-0.1,0c0,0-0.1,0-0.1,0c0,0-0.1,0-0.1,0c0,0-0.1,0-0.1,0c0,0-0.1,0-0.1,0c0,0-0.1,0-0.1,0
				c0,0-0.1,0-0.1,0c0,0-0.1,0-0.1,0c0,0-0.1,0-0.1,0c0,0,0,0-0.1,0c-0.1,0-0.1,0-0.2,0c0,0,0,0,0,0c-0.1,0-0.1,0-0.2,0
				c0,0,0,0-0.1,0c-0.1,0-0.1,0-0.2,0c-0.1,0-0.2,0-0.3,0c0.3,0.4,0.9,1.1,1.7,1.2c0,0-0.1,0-0.1,0c0.1,0,0.2,0,0.2,0.1
				c0.2,0,0.4,0,0.6,0c1.3,0,2.6-0.8,3.6-1.6c1.2-0.9,2.3-2,3.4-3.2C83.7,10.9,84.3,10.2,84.9,9.6C84.9,9.5,84.9,9.5,84.9,9.6z
				 M85.8,9C85.8,9,85.8,9,85.8,9C85.8,9,85.8,9,85.8,9z"/>
		</g>
		<g>
			<path class="st8" d="M93,12.9C93,12.9,93,12.9,93,12.9l-2.2-1.2c0,0,0,0-0.1,0l0,0c0,0,0,0,0,0h0c0,0,0,0,0,0c0,0,0,0,0,0
				c0,0,0,0,0,0c0,0,0,0,0,0c-0.1,0.1-0.2,0.1-0.3,0.2c0,0,0,0,0,0c0,0-0.1,0-0.1,0.1c0,0,0,0,0,0c0,0-0.1,0.1-0.1,0.1c0,0,0,0,0,0
				c0,0-0.1,0-0.1,0.1c0,0,0,0,0,0c0,0-0.1,0-0.1,0c0,0,0,0,0,0c0,0,0,0-0.1,0c0,0,0,0-0.1,0c0,0,0,0-0.1,0c0,0,0,0-0.1,0
				c0,0,0,0-0.1,0c0,0,0,0-0.1,0c0,0,0,0-0.1,0c0,0,0,0-0.1,0c0,0,0,0-0.1,0c0,0,0,0-0.1,0c0,0,0,0-0.1,0c0,0,0,0-0.1,0
				c0,0,0,0-0.1,0c0,0,0,0-0.1,0c0,0,0,0-0.1,0c0,0-0.1,0-0.1,0c0,0,0,0-0.1,0c0.3,0.4,1.3,1.2,2,1.3c0,0,0.1,0,0.1,0
				c0.7,0,1.5-0.3,2.1-0.8C93.1,13,93,12.9,93,12.9z"/>

				<linearGradient id="SVGID_17_" gradientUnits="userSpaceOnUse" x1="-2568.2559" y1="-518.7747" x2="-2566.9033" y2="-517.3514" gradientTransform="matrix(1 0 0 -1 2658.0801 -504.9367)">
				<stop  offset="0" style="stop-color:#E9541F"/>
				<stop  offset="0.9879" style="stop-color:#E9541F;stop-opacity:0"/>
			</linearGradient>
			<path class="st18" d="M93,12.9C93,12.9,93,12.9,93,12.9l-2.2-1.2c0,0,0,0-0.1,0l0,0c0,0,0,0,0,0h0c0,0,0,0,0,0c0,0,0,0,0,0
				c0,0,0,0,0,0c0,0,0,0,0,0c-0.1,0.1-0.2,0.1-0.3,0.2c0,0,0,0,0,0c0,0-0.1,0-0.1,0.1c0,0,0,0,0,0c0,0-0.1,0.1-0.1,0.1c0,0,0,0,0,0
				c0,0-0.1,0-0.1,0.1c0,0,0,0,0,0c0,0-0.1,0-0.1,0c0,0,0,0,0,0c0,0,0,0-0.1,0c0,0,0,0-0.1,0c0,0,0,0-0.1,0c0,0,0,0-0.1,0
				c0,0,0,0-0.1,0c0,0,0,0-0.1,0c0,0,0,0-0.1,0c0,0,0,0-0.1,0c0,0,0,0-0.1,0c0,0,0,0-0.1,0c0,0,0,0-0.1,0c0,0,0,0-0.1,0
				c0,0,0,0-0.1,0c0,0,0,0-0.1,0c0,0,0,0-0.1,0c0,0-0.1,0-0.1,0c0,0,0,0-0.1,0c0.3,0.4,1.3,1.2,2,1.3c0,0,0.1,0,0.1,0
				c0.7,0,1.5-0.3,2.1-0.8C93.1,13,93,12.9,93,12.9z"/>
		</g>
		<g>
			<path class="st1" d="M88.7,12.5L88.7,12.5c0,0-0.1-0.1-0.1-0.1c0,0,0,0,0,0s0,0,0,0c0,0,0,0-0.1-0.1c-0.8-0.9-1.3-2-2.1-2.9
				c-0.1-0.1-0.1-0.1-0.2-0.2c-0.7-0.5-1.3,0.2-1.4,0.3c0,0,0,0,0,0c0,0,0,0,0,0c0,0,0,0,0,0c0.7,1,1.3,2,2.3,2.7
				c0.1,0.1,0.2,0.1,0.3,0.2c0.4,0.2,0.7,0.4,1.1,0.6c0.4,0.2,0.7,0.4,1.1,0.6c0,0,0,0,0,0c0.2,0.1,0.3,0.2,0.5,0.2
				c0.1,0,0.3,0.1,0.4,0.1c0.1,0,0.2,0,0.3,0C90,13.7,89.1,12.8,88.7,12.5z"/>

				<linearGradient id="SVGID_18_" gradientUnits="userSpaceOnUse" x1="-2572.4561" y1="-514.3381" x2="-2571.1621" y2="-515.7448" gradientTransform="matrix(1 0 0 -1 2658.0801 -504.9367)">
				<stop  offset="0" style="stop-color:#B51E33"/>
				<stop  offset="1" style="stop-color:#B51E33;stop-opacity:0"/>
			</linearGradient>
			<path class="st19" d="M88.7,12.5L88.7,12.5c0,0-0.1-0.1-0.1-0.1c0,0,0,0,0,0s0,0,0,0c0,0,0,0-0.1-0.1c-0.8-0.9-1.3-2-2.1-2.9
				c-0.1-0.1-0.1-0.1-0.2-0.2c-0.7-0.5-1.3,0.2-1.4,0.3c0,0,0,0,0,0c0,0,0,0,0,0c0,0,0,0,0,0c0.7,1,1.3,2,2.3,2.7
				c0.1,0.1,0.2,0.1,0.3,0.2c0.4,0.2,0.7,0.4,1.1,0.6c0.4,0.2,0.7,0.4,1.1,0.6c0,0,0,0,0,0c0.2,0.1,0.3,0.2,0.5,0.2
				c0.1,0,0.3,0.1,0.4,0.1c0.1,0,0.2,0,0.3,0C90,13.7,89.1,12.8,88.7,12.5z"/>

				<linearGradient id="SVGID_19_" gradientUnits="userSpaceOnUse" x1="-2569.6404" y1="-517.3974" x2="-2570.7134" y2="-516.2115" gradientTransform="matrix(1 0 0 -1 2658.0801 -504.9367)">
				<stop  offset="0" style="stop-color:#CD132E"/>
				<stop  offset="0.5514" style="stop-color:#BB1C31;stop-opacity:0.4486"/>
				<stop  offset="1" style="stop-color:#B51E33;stop-opacity:0"/>
			</linearGradient>
			<path class="st20" d="M88.7,12.5L88.7,12.5c0,0-0.1-0.1-0.1-0.1c0,0,0,0,0,0s0,0,0,0c0,0,0,0-0.1-0.1c-0.8-0.9-1.3-2-2.1-2.9
				c-0.1-0.1-0.1-0.1-0.2-0.2c-0.7-0.5-1.3,0.2-1.4,0.3c0,0,0,0,0,0c0,0,0,0,0,0c0,0,0,0,0,0c0.7,1,1.3,2,2.3,2.7
				c0.1,0.1,0.2,0.1,0.3,0.2c0.4,0.2,0.7,0.4,1.1,0.6c0.4,0.2,0.7,0.4,1.1,0.6c0,0,0,0,0,0c0.2,0.1,0.3,0.2,0.5,0.2
				c0.1,0,0.3,0.1,0.4,0.1c0.1,0,0.2,0,0.3,0C90,13.7,89.1,12.8,88.7,12.5z"/>
		</g>
		<g>
			<path class="st8" d="M115.2,8.5c0,0,0.1,0,0.2-0.1c0.8-0.4,1.5,0.1,1.8,0.5c-0.2-0.2-0.4-0.3-0.6-0.4c0,0,0,0,0,0l-2.2-1.2
				c-0.1-0.1-0.2-0.1-0.4-0.1c-0.1,0-0.2,0-0.4,0c0,0,0,0,0,0c0,0,0,0-0.1,0c0,0-0.1,0-0.1,0c0,0,0,0-0.1,0c0,0-0.1,0-0.1,0
				c0,0,0,0,0,0c0,0,0,0,0,0c0,0-0.1,0-0.1,0c0,0,0,0-0.1,0c0,0-0.1,0-0.1,0c0,0,0,0,0,0c0,0,0,0,0,0c0,0,0,0,0,0c0,0-0.1,0-0.1,0.1
				c0,0,0,0,0,0c0,0-0.1,0-0.1,0.1c0,0,0,0,0,0c0,0,0,0,0,0c0,0,0,0,0,0c0,0-0.1,0.1-0.1,0.1c0,0,0,0,0,0c-0.1,0-0.1,0.1-0.2,0.1
				c0,0,0,0,0,0c0,0-0.1,0.1-0.1,0.1c0,0,0,0,0,0c-0.1,0-0.1,0.1-0.2,0.1c0,0,0,0,0,0c0,0,0,0,0,0c0,0-0.1,0.1-0.1,0.1c0,0,0,0,0,0
				c0,0-0.1,0.1-0.1,0.1c-0.4,0.4-0.7,0.8-1,1.2c-0.2,1.7-0.6,4.7,0.5,3.8c0.3-0.3,0.6-0.7,0.6-0.8c0.8-1.1,1.5-2.3,2.4-3.2
				c0.3-0.3,0.8-0.7,1.2-0.9c0,0,0,0,0.1,0C115.3,8.5,115.2,8.5,115.2,8.5z"/>

				<linearGradient id="SVGID_20_" gradientUnits="userSpaceOnUse" x1="-2547.0286" y1="-518.4368" x2="-2544.9561" y2="-515.3445" gradientTransform="matrix(1 0 0 -1 2658.0801 -504.9367)">
				<stop  offset="0" style="stop-color:#E9541F"/>
				<stop  offset="0.9879" style="stop-color:#E9541F;stop-opacity:0"/>
			</linearGradient>
			<path class="st21" d="M115.2,8.5c0,0,0.1,0,0.2-0.1c0.8-0.4,1.5,0.1,1.8,0.5c-0.2-0.2-0.4-0.3-0.6-0.4c0,0,0,0,0,0l-2.2-1.2
				c-0.1-0.1-0.2-0.1-0.4-0.1c-0.1,0-0.2,0-0.4,0c0,0,0,0,0,0c0,0,0,0-0.1,0c0,0-0.1,0-0.1,0c0,0,0,0-0.1,0c0,0-0.1,0-0.1,0
				c0,0,0,0,0,0c0,0,0,0,0,0c0,0-0.1,0-0.1,0c0,0,0,0-0.1,0c0,0-0.1,0-0.1,0c0,0,0,0,0,0c0,0,0,0,0,0c0,0,0,0,0,0c0,0-0.1,0-0.1,0.1
				c0,0,0,0,0,0c0,0-0.1,0-0.1,0.1c0,0,0,0,0,0c0,0,0,0,0,0c0,0,0,0,0,0c0,0-0.1,0.1-0.1,0.1c0,0,0,0,0,0c-0.1,0-0.1,0.1-0.2,0.1
				c0,0,0,0,0,0c0,0-0.1,0.1-0.1,0.1c0,0,0,0,0,0c-0.1,0-0.1,0.1-0.2,0.1c0,0,0,0,0,0c0,0,0,0,0,0c0,0-0.1,0.1-0.1,0.1c0,0,0,0,0,0
				c0,0-0.1,0.1-0.1,0.1c-0.4,0.4-0.7,0.8-1,1.2c-0.2,1.7-0.6,4.7,0.5,3.8c0.3-0.3,0.6-0.7,0.6-0.8c0.8-1.1,1.5-2.3,2.4-3.2
				c0.3-0.3,0.8-0.7,1.2-0.9c0,0,0,0,0.1,0C115.3,8.5,115.2,8.5,115.2,8.5z"/>

				<linearGradient id="SVGID_21_" gradientUnits="userSpaceOnUse" x1="-2545.8137" y1="-516.6239" x2="-2543.7412" y2="-513.5317" gradientTransform="matrix(1 0 0 -1 2658.0801 -504.9367)">
				<stop  offset="0" style="stop-color:#F4B861;stop-opacity:0.4"/>
				<stop  offset="0.503" style="stop-color:#F4B861"/>
				<stop  offset="1" style="stop-color:#F4B861;stop-opacity:0.6"/>
			</linearGradient>
			<path class="st22" d="M115.2,8.5c0,0,0.1,0,0.2-0.1c0.8-0.4,1.5,0.1,1.8,0.5c-0.2-0.2-0.4-0.3-0.6-0.4c0,0,0,0,0,0l-2.2-1.2
				c-0.1-0.1-0.2-0.1-0.4-0.1c-0.1,0-0.2,0-0.4,0c0,0,0,0,0,0c0,0,0,0-0.1,0c0,0-0.1,0-0.1,0c0,0,0,0-0.1,0c0,0-0.1,0-0.1,0
				c0,0,0,0,0,0c0,0,0,0,0,0c0,0-0.1,0-0.1,0c0,0,0,0-0.1,0c0,0-0.1,0-0.1,0c0,0,0,0,0,0c0,0,0,0,0,0c0,0,0,0,0,0c0,0-0.1,0-0.1,0.1
				c0,0,0,0,0,0c0,0-0.1,0-0.1,0.1c0,0,0,0,0,0c0,0,0,0,0,0c0,0,0,0,0,0c0,0-0.1,0.1-0.1,0.1c0,0,0,0,0,0c-0.1,0-0.1,0.1-0.2,0.1
				c0,0,0,0,0,0c0,0-0.1,0.1-0.1,0.1c0,0,0,0,0,0c-0.1,0-0.1,0.1-0.2,0.1c0,0,0,0,0,0c0,0,0,0,0,0c0,0-0.1,0.1-0.1,0.1c0,0,0,0,0,0
				c0,0-0.1,0.1-0.1,0.1c-0.4,0.4-0.7,0.8-1,1.2c-0.2,1.7-0.6,4.7,0.5,3.8c0.3-0.3,0.6-0.7,0.6-0.8c0.8-1.1,1.5-2.3,2.4-3.2
				c0.3-0.3,0.8-0.7,1.2-0.9c0,0,0,0,0.1,0C115.3,8.5,115.2,8.5,115.2,8.5z"/>
		</g>
		<g>
			<path class="st1" d="M117.6,9.5c0,0,0-0.1-0.1-0.1c0-0.1-0.1-0.1-0.1-0.2c0,0,0,0,0,0c-0.1-0.1-0.2-0.2-0.2-0.3
				c-0.3-0.4-1-0.9-1.8-0.5c0,0,0,0-0.1,0c0.2,0.3,0.3,0.6,0.4,0.9c0.1,0.3,0.2,0.5,0.3,0.8c0,0.1,0.1,0.3,0.1,0.4c0,0,0,0,0,0
				l2.2,1.2c0,0,0,0,0,0c0,0,0.1,0,0.1,0c0,0,0.1,0,0.1,0C117.9,12,118,10.3,117.6,9.5z"/>

				<linearGradient id="SVGID_22_" gradientUnits="userSpaceOnUse" x1="-2541.8037" y1="-512.9744" x2="-2541.1602" y2="-514.9245" gradientTransform="matrix(1 0 0 -1 2658.0801 -504.9367)">
				<stop  offset="0" style="stop-color:#B51E33"/>
				<stop  offset="1" style="stop-color:#B51E33;stop-opacity:0"/>
			</linearGradient>
			<path class="st23" d="M117.6,9.5c0,0,0-0.1-0.1-0.1c0-0.1-0.1-0.1-0.1-0.2c0,0,0,0,0,0c-0.1-0.1-0.2-0.2-0.2-0.3
				c-0.3-0.4-1-0.9-1.8-0.5c0,0,0,0-0.1,0c0.2,0.3,0.3,0.6,0.4,0.9c0.1,0.3,0.2,0.5,0.3,0.8c0,0.1,0.1,0.3,0.1,0.4c0,0,0,0,0,0
				l2.2,1.2c0,0,0,0,0,0c0,0,0.1,0,0.1,0c0,0,0.1,0,0.1,0C117.9,12,118,10.3,117.6,9.5z"/>

				<linearGradient id="SVGID_23_" gradientUnits="userSpaceOnUse" x1="-2540.6853" y1="-516.1948" x2="-2541.0115" y2="-515.3384" gradientTransform="matrix(1 0 0 -1 2658.0801 -504.9367)">
				<stop  offset="0" style="stop-color:#CD132E"/>
				<stop  offset="0.5514" style="stop-color:#BB1C31;stop-opacity:0.4486"/>
				<stop  offset="1" style="stop-color:#B51E33;stop-opacity:0"/>
			</linearGradient>
			<path class="st24" d="M117.6,9.5c0,0,0-0.1-0.1-0.1c0-0.1-0.1-0.1-0.1-0.2c0,0,0,0,0,0c-0.1-0.1-0.2-0.2-0.2-0.3
				c-0.3-0.4-1-0.9-1.8-0.5c0,0,0,0-0.1,0c0.2,0.3,0.3,0.6,0.4,0.9c0.1,0.3,0.2,0.5,0.3,0.8c0,0.1,0.1,0.3,0.1,0.4c0,0,0,0,0,0
				l2.2,1.2c0,0,0,0,0,0c0,0,0.1,0,0.1,0c0,0,0.1,0,0.1,0C117.9,12,118,10.3,117.6,9.5z"/>
		</g>
		<g>
			<path class="st8" d="M125.1,9.5C125.1,9.5,125,9.4,125.1,9.5c-0.2-0.1-0.3-0.2-0.4-0.2c0,0,0,0,0,0l-2.2-1.2
				c-0.2-0.1-0.5-0.2-0.8-0.3c-0.2,0-0.4-0.1-0.6-0.1c0,0,0,0,0,0c0,0-0.1,0-0.1,0c0,0,0,0-0.1,0c-0.1,0-0.1,0-0.2,0c0,0,0,0,0,0
				c0,0-0.1,0-0.1,0c0,0,0,0-0.1,0c0,0-0.1,0-0.1,0c0,0,0,0,0,0c0,0-0.1,0-0.1,0c0,0-0.1,0-0.1,0c0,0-0.1,0-0.1,0c0,0-0.1,0-0.1,0
				c0,0-0.1,0-0.1,0c0,0-0.1,0-0.1,0c0,0-0.1,0-0.1,0c0,0,0,0-0.1,0c0,0,0,0,0,0c-0.1,0-0.1,0.1-0.2,0.1c0,0,0,0,0,0
				c-0.1,0-0.1,0.1-0.2,0.1c0,0,0,0-0.1,0c-0.1,0-0.1,0.1-0.2,0.1c0,0,0,0,0,0c-0.1,0-0.1,0.1-0.2,0.1c0,0,0,0,0,0c0,0,0,0,0,0
				c0,0-0.1,0.1-0.1,0.1c0,0,0,0,0,0c-0.1,0-0.1,0.1-0.2,0.1c-0.3,0.3-0.7,0.5-1,0.8c0,0,0,0,0,0c0,0,0,0,0,0c0.4,0.7,0.3,2.5,1,2.3
				c0.1,0,0.2-0.1,0.3-0.1c0.9-0.6,1.6-1.4,2.5-2c0.6-0.4,1.3-0.7,2-0.7C123.3,9,124.4,8.9,125.1,9.5z"/>

				<linearGradient id="SVGID_24_" gradientUnits="userSpaceOnUse" x1="-2539.8296" y1="-516.7879" x2="-2537.1372" y2="-514.7423" gradientTransform="matrix(1 0 0 -1 2658.0801 -504.9367)">
				<stop  offset="0" style="stop-color:#E9541F"/>
				<stop  offset="0.9879" style="stop-color:#E9541F;stop-opacity:0"/>
			</linearGradient>
			<path class="st25" d="M125.1,9.5C125.1,9.5,125,9.4,125.1,9.5c-0.2-0.1-0.3-0.2-0.4-0.2c0,0,0,0,0,0l-2.2-1.2
				c-0.2-0.1-0.5-0.2-0.8-0.3c-0.2,0-0.4-0.1-0.6-0.1c0,0,0,0,0,0c0,0-0.1,0-0.1,0c0,0,0,0-0.1,0c-0.1,0-0.1,0-0.2,0c0,0,0,0,0,0
				c0,0-0.1,0-0.1,0c0,0,0,0-0.1,0c0,0-0.1,0-0.1,0c0,0,0,0,0,0c0,0-0.1,0-0.1,0c0,0-0.1,0-0.1,0c0,0-0.1,0-0.1,0c0,0-0.1,0-0.1,0
				c0,0-0.1,0-0.1,0c0,0-0.1,0-0.1,0c0,0-0.1,0-0.1,0c0,0,0,0-0.1,0c0,0,0,0,0,0c-0.1,0-0.1,0.1-0.2,0.1c0,0,0,0,0,0
				c-0.1,0-0.1,0.1-0.2,0.1c0,0,0,0-0.1,0c-0.1,0-0.1,0.1-0.2,0.1c0,0,0,0,0,0c-0.1,0-0.1,0.1-0.2,0.1c0,0,0,0,0,0c0,0,0,0,0,0
				c0,0-0.1,0.1-0.1,0.1c0,0,0,0,0,0c-0.1,0-0.1,0.1-0.2,0.1c-0.3,0.3-0.7,0.5-1,0.8c0,0,0,0,0,0c0,0,0,0,0,0c0.4,0.7,0.3,2.5,1,2.3
				c0.1,0,0.2-0.1,0.3-0.1c0.9-0.6,1.6-1.4,2.5-2c0.6-0.4,1.3-0.7,2-0.7C123.3,9,124.4,8.9,125.1,9.5z"/>

				<linearGradient id="SVGID_25_" gradientUnits="userSpaceOnUse" x1="-2538.3147" y1="-515.6371" x2="-2535.6226" y2="-513.5914" gradientTransform="matrix(1 0 0 -1 2658.0801 -504.9367)">
				<stop  offset="0" style="stop-color:#F4B861;stop-opacity:0.4"/>
				<stop  offset="0.503" style="stop-color:#F4B861"/>
				<stop  offset="1" style="stop-color:#F4B861;stop-opacity:0.6"/>
			</linearGradient>
			<path class="st26" d="M125.1,9.5C125.1,9.5,125,9.4,125.1,9.5c-0.2-0.1-0.3-0.2-0.4-0.2c0,0,0,0,0,0l-2.2-1.2
				c-0.2-0.1-0.5-0.2-0.8-0.3c-0.2,0-0.4-0.1-0.6-0.1c0,0,0,0,0,0c0,0-0.1,0-0.1,0c0,0,0,0-0.1,0c-0.1,0-0.1,0-0.2,0c0,0,0,0,0,0
				c0,0-0.1,0-0.1,0c0,0,0,0-0.1,0c0,0-0.1,0-0.1,0c0,0,0,0,0,0c0,0-0.1,0-0.1,0c0,0-0.1,0-0.1,0c0,0-0.1,0-0.1,0c0,0-0.1,0-0.1,0
				c0,0-0.1,0-0.1,0c0,0-0.1,0-0.1,0c0,0-0.1,0-0.1,0c0,0,0,0-0.1,0c0,0,0,0,0,0c-0.1,0-0.1,0.1-0.2,0.1c0,0,0,0,0,0
				c-0.1,0-0.1,0.1-0.2,0.1c0,0,0,0-0.1,0c-0.1,0-0.1,0.1-0.2,0.1c0,0,0,0,0,0c-0.1,0-0.1,0.1-0.2,0.1c0,0,0,0,0,0c0,0,0,0,0,0
				c0,0-0.1,0.1-0.1,0.1c0,0,0,0,0,0c-0.1,0-0.1,0.1-0.2,0.1c-0.3,0.3-0.7,0.5-1,0.8c0,0,0,0,0,0c0,0,0,0,0,0c0.4,0.7,0.3,2.5,1,2.3
				c0.1,0,0.2-0.1,0.3-0.1c0.9-0.6,1.6-1.4,2.5-2c0.6-0.4,1.3-0.7,2-0.7C123.3,9,124.4,8.9,125.1,9.5z"/>
		</g>
		<g>
			<path class="st1" d="M124.9,9.3c-0.4-0.3-0.9-0.3-0.9-0.3c0,0,0,0,0,0c0,0,0,0,0,0c0.4,0.5,0.7,1.2,1,1.8l1.2,0.6
				c0,0,0.1,0,0.1,0C125.9,10.7,125.6,9.8,124.9,9.3z"/>

				<linearGradient id="SVGID_26_" gradientUnits="userSpaceOnUse" x1="-2534.1455" y1="-515.2101" x2="-2531.8623" y2="-515.2101" gradientTransform="matrix(1 0 0 -1 2658.0801 -504.9367)">
				<stop  offset="0" style="stop-color:#B51E33"/>
				<stop  offset="1" style="stop-color:#B51E33;stop-opacity:0"/>
			</linearGradient>
			<path class="st27" d="M124.9,9.3c-0.4-0.3-0.9-0.3-0.9-0.3c0,0,0,0,0,0c0,0,0,0,0,0c0.4,0.5,0.7,1.2,1,1.8l1.2,0.6
				c0,0,0.1,0,0.1,0C125.9,10.7,125.6,9.8,124.9,9.3z"/>
		</g>
		<g>
			<path class="st8" d="M81.8,2.7C81.8,2.7,81.8,2.7,81.8,2.7c0.8,0.5,1.6,0.9,2.4,1.3l0,0c0,0,0,0,0.1,0c0.1,0,0.2,0,0.1-0.1
				c-0.2-0.8-0.5-1.4-1-1.9c-0.5-0.5-1.5-0.6-2.1-0.7C81.5,1.7,81.7,2.2,81.8,2.7z M84.2,4C84.2,4,84.2,4,84.2,4
				C84.2,4,84.2,4,84.2,4z"/>

				<linearGradient id="SVGID_27_" gradientUnits="userSpaceOnUse" x1="-2576.8164" y1="-507.6248" x2="-2573.7141" y2="-507.6248" gradientTransform="matrix(1 0 0 -1 2658.0801 -504.9367)">
				<stop  offset="0" style="stop-color:#E9541F"/>
				<stop  offset="0.9879" style="stop-color:#E9541F;stop-opacity:0"/>
			</linearGradient>
			<path class="st28" d="M81.8,2.7C81.8,2.7,81.8,2.7,81.8,2.7c0.8,0.5,1.6,0.9,2.4,1.3l0,0c0,0,0,0,0.1,0c0.1,0,0.2,0,0.1-0.1
				c-0.2-0.8-0.5-1.4-1-1.9c-0.5-0.5-1.5-0.6-2.1-0.7C81.5,1.7,81.7,2.2,81.8,2.7z M84.2,4C84.2,4,84.2,4,84.2,4
				C84.2,4,84.2,4,84.2,4z"/>
		</g>
	</g>
	<g>
		<g>
			<path class="st29" d="M107.7,28.7c0.2,0.1,0.5,0.2,0.7,0.2c0.4,0,0.7-0.2,0.7-0.5c0-0.3-0.2-0.5-0.6-0.6
				c-0.5-0.2-0.9-0.5-0.9-0.9c0-0.5,0.4-0.9,1-0.9c0.3,0,0.6,0.1,0.7,0.2l-0.1,0.3c-0.1-0.1-0.3-0.2-0.6-0.2c-0.4,0-0.6,0.3-0.6,0.5
				c0,0.3,0.2,0.4,0.6,0.6c0.5,0.2,0.8,0.5,0.8,0.9c0,0.5-0.4,0.9-1.1,0.9c-0.3,0-0.6-0.1-0.8-0.2L107.7,28.7z"/>
			<path class="st29" d="M114.2,26.4h-1V26h2.4v0.4h-1v2.9h-0.4V26.4L114.2,26.4z"/>
			<path class="st29" d="M119.8,26v1.9c0,0.7,0.3,1,0.7,1c0.5,0,0.8-0.3,0.8-1V26h0.4v1.9c0,1-0.5,1.4-1.2,1.4
				c-0.7,0-1.2-0.4-1.2-1.4V26H119.8z"/>
			<path class="st29" d="M125.5,26.1c0.3,0,0.6-0.1,0.9-0.1c0.6,0,1,0.1,1.3,0.4c0.3,0.3,0.5,0.6,0.5,1.2c0,0.5-0.2,1-0.5,1.3
				c-0.3,0.3-0.8,0.5-1.4,0.5c-0.3,0-0.5,0-0.8,0L125.5,26.1L125.5,26.1L125.5,26.1z M125.9,28.9c0.1,0,0.3,0,0.4,0
				c0.9,0,1.4-0.5,1.4-1.4c0-0.8-0.4-1.2-1.3-1.2c-0.2,0-0.4,0-0.5,0L125.9,28.9L125.9,28.9z"/>
			<path class="st29" d="M132.3,26v3.2h-0.4V26H132.3z"/>
			<path class="st29" d="M139,27.6c0,1.1-0.7,1.7-1.5,1.7c-0.8,0-1.4-0.7-1.4-1.6c0-1,0.6-1.7,1.5-1.7C138.4,26,139,26.7,139,27.6z
				 M136.5,27.7c0,0.7,0.4,1.3,1,1.3c0.7,0,1-0.6,1-1.3c0-0.6-0.3-1.3-1-1.3C136.8,26.3,136.5,27,136.5,27.7z"/>
		</g>
		<g class="st30">
			<path class="st31" d="M99.9,19.1l0.7,2.6h0l0.8-2.6h0.5l0.7,2.6h0l0.7-2.6h0.5l-0.9,3.2h-0.5l-0.8-2.6h0l-0.8,2.6h-0.5l-0.9-3.2
				H99.9z"/>
			<path class="st31" d="M108,20.9v1.1h1.7v0.4h-2.1v-3.2h2.1v0.4H108v1h1.5v0.4H108L108,20.9z"/>
			<path class="st31" d="M113.4,22.3v-3.2h1.1c0.3,0,0.5,0.1,0.7,0.2c0.2,0.1,0.3,0.3,0.3,0.6c0,0.2-0.1,0.3-0.2,0.4
				c-0.1,0.1-0.2,0.2-0.4,0.3v0c0.2,0,0.4,0.1,0.5,0.2c0.1,0.1,0.2,0.3,0.2,0.5c0,0.3-0.1,0.5-0.3,0.7c-0.2,0.2-0.5,0.2-0.9,0.2
				L113.4,22.3L113.4,22.3z M113.9,19.5v1h0.6c0.2,0,0.3,0,0.5-0.1c0.1-0.1,0.2-0.2,0.2-0.4c0-0.3-0.2-0.5-0.7-0.5H113.9L113.9,19.5
				z M113.9,20.9v1.1h0.6c0.1,0,0.3,0,0.4,0c0.1,0,0.2-0.1,0.3-0.2c0.1-0.1,0.1-0.2,0.1-0.3c0-0.4-0.3-0.5-0.8-0.5H113.9L113.9,20.9
				z"/>
		</g>
		<g>
			<polygon class="st29" points="102.4,22.3 101.6,19.7 101.6,19.7 101.6,19.7 100.8,22.3 100.4,22.3 99.4,19.1 99.9,19.1
				100.6,21.7 100.6,21.7 100.6,21.7 101.4,19.1 101.9,19.1 102.6,21.7 102.6,21.7 102.6,21.7 103.3,19.1 103.8,19.1 102.9,22.3
				"/>
			<polygon class="st29" points="107.6,22.3 107.6,19.1 109.6,19.1 109.6,19.5 108,19.5 108,19.5 108,20.5 108,20.5 109.5,20.5
				109.5,20.8 108,20.8 108,20.9 108,21.9 108,21.9 109.7,21.9 109.7,22.3 			"/>
			<path class="st29" d="M113.4,22.3v-3.2h1.1c0.3,0,0.5,0.1,0.7,0.2c0.2,0.1,0.3,0.3,0.3,0.6c0,0.2-0.1,0.3-0.1,0.4
				c-0.1,0.1-0.2,0.2-0.4,0.3l0,0l0,0c0.2,0,0.4,0.1,0.5,0.2c0.1,0.1,0.2,0.3,0.2,0.5c0,0.3-0.1,0.5-0.3,0.7
				c-0.2,0.2-0.5,0.2-0.9,0.2L113.4,22.3L113.4,22.3z M113.9,20.9v1.1l0,0h0.6c0.1,0,0.3,0,0.4,0c0.1,0,0.2-0.1,0.3-0.2
				c0.1-0.1,0.1-0.2,0.1-0.3c0-0.4-0.3-0.6-0.8-0.6L113.9,20.9L113.9,20.9z M113.9,19.5v1l0,0h0.6c0.2,0,0.3,0,0.5-0.1
				c0.1-0.1,0.2-0.2,0.2-0.4c0-0.3-0.2-0.5-0.7-0.5L113.9,19.5L113.9,19.5z"/>
		</g>
	</g>
</g>
</svg>
