<?xml version="1.0" encoding="utf-8"?>
<!-- Generator: Adobe Illustrator 22.0.1, SVG Export Plug-In . SVG Version: 6.00 Build 0)  -->
<svg version="1.1" id="Слой_1" xmlns="http://www.w3.org/2000/svg" xmlns:xlink="http://www.w3.org/1999/xlink" x="0px" y="0px"
	 viewBox="0 0 190 71.6" style="enable-background:new 0 0 190 71.6;" xml:space="preserve">
<g>
	<path fill="#6D9EA8" d="M136.9,29.7h-11.7V22h1.9v-7.1l-3.2,5.5h-3.8l-3.2-5.5V22h2.2v7.8h-11.9V22h1.9V7.4h-1.9V0h9.7l5.1,9.2h0.1
		l5-9.2h9.7v7.4h-1.9V22h1.9V29.7L136.9,29.7z M165.3,29.7h-11.7v-7.4h1.5v-6.2l-4.8,4.7v1.5h1.5v7.4H140v-7.4h1.9V7.4H140V0h11.6
		v7.4h-1.5v6.2l4.8-4.7V7.4h-1.5V0h11.9v7.4h-1.9v14.9h1.9V29.7L165.3,29.7z M190,13.3l-5.2,5.2h-6.4v3.8h2.3v7.4h-12.4v-7.4h1.9
		V7.4h-1.9V0h16.5l5.2,5.2V13.3L190,13.3z M181.8,11.9V7.4h-3.3v4.4H181.8z"/>
	<path fill='#F45265' d="M25.4,33.5H18v-3.8H7.4v3.8H0V22.3h1.4L2.7,21V7.4H0.8V0h24.7v7.4h-1.9v14.9h1.9v11.2H25.4z M15.2,22.2V7.3
		h-4.1v14.9H15.2L15.2,22.2z M53.8,29.7H41.9v-7.4h1.9l-0.8-2.5h-5.4l-0.8,2.5h1.9v7.4H27.2v-7.4h1.9L36.6,0h7.8l7.4,22.3h1.9v7.4
		H53.8z M41.6,14.8l-1.1-3.8l-1.1,3.8H41.6L41.6,14.8z M77.3,13.3L72,18.6h-6.4v3.8h2.3v7.4H55.5v-7.4h1.9V7.4h-1.9V0H72l5.2,5.2
		V13.3L77.3,13.3z M69.1,11.9V7.4h-3.3v4.4H69.1L69.1,11.9z M104.7,29.7H92.9v-7.4h1.5v-6.2l-4.9,4.7v1.5H91v7.4H79.2v-7.4h1.9V7.4
		h-1.9V0h11.9v7.4h-1.5v6.2l4.9-4.7V7.4H93V0h11.9v7.4h-1.9v14.9h1.9v7.4H104.7z"/>
	<path fill="currentColor" d="M41.7,41.9c-0.9-0.7-2.5-1.3-3.9-1.3c-3.3,0-4.1,4.1-4.1,6.7c0,2.6,1.5,6.7,4.6,6.7c1.3,0,2.6-0.6,3.9-1.5
		c-0.2-0.5-0.3-0.7-0.6-1.1c-1.3,0.6-2.4,1.1-3.3,1.1c-2.2,0-3.2-3.5-3.2-5c0-2.4,0.2-6,3.2-6c0.9,0,1.8,0.3,2.6,1L41.7,41.9
		L41.7,41.9z M43.3,55.7l0.3-2.4c2.3,0.1,4.3,0.3,6.5,0.5c0.1,0.6,0.2,1.5,0.3,2.1l0.8,0.2c0-0.3,0-0.6,0-0.8c0-0.6,0-1.6,0-2.4
		v-0.6h-1.4c-0.1-2.4-0.1-5.5-0.2-7.8c-1.7-0.2-2.6-0.1-5.2-0.3c0,0.8,0.1,1.9,0.1,3c0,2.3-0.5,3.2-1,5.2h-1.1c0,0.2,0,0.5,0,0.8
		c0,0.7,0.1,1.9,0.1,2.5L43.3,55.7L43.3,55.7z M46,45.2c0.9,0.1,1.9,0.1,2.8,0.1l-0.3,6.8h-3.9C46,50.5,45.9,47.3,46,45.2L46,45.2z
		 M58.7,51.7c-0.2,0-2.5,0.5-3.9,0.5c-1.8,0-2.1-1.7-2.1-3.1c1.6-0.3,5.2-0.5,5.2-2.6c0-1.4-1.1-2.2-2.4-2.2c-3,0-4,1.8-4,4.3
		c0,1.7,0.6,4.8,2.6,4.8c1,0,3.5-0.6,4.6-0.9L58.7,51.7L58.7,51.7z M52.8,48c0.2-1.5,1.5-2.5,3-2.5c0.6,0,0.8,0.3,0.9,1.1
		C55.6,47.1,53.8,47.8,52.8,48L52.8,48z M57.8,55.1l-0.3-0.8c2.8-1.1,2.8-6,2.8-8.5c0-0.6,0-1.1,0.2-1.3c0.2-0.2,1.5-0.2,2.7-0.2
		c1.6,0,1.9,0,2.2,0c0,3.1,0,6.2,0.2,9.2c-0.1,0.3-0.3,0.6-0.6,0.6c-0.3,0-0.8-0.3-0.9-0.8c0-0.7,0-1.4,0-2.1c0-1.4,0-2.6,0-4
		c0-0.6,0-1.3,0-1.9c-1.3,0.2-1.6,0.1-2.5,0.2C61.2,48.4,62.1,54.3,57.8,55.1L57.8,55.1z M67.6,45.9c0.7-0.6,1.4-0.8,1.9-0.8
		c1.3,0,1.5,1,1.6,2.1c-0.1,0-0.3,0-0.5,0c-2.2,0-4.1,2.1-4.1,4.2c0,1.3,1,2.3,2.3,2.3c0.8,0,1.6-0.5,2.3-1c0,0,0,0.1,0,0.2
		c0,0.6,0.5,1,0.8,1c0.2,0,0.5-0.1,0.6-0.6c0-1.4,0.1-2.7,0.1-4.1c0-2.2-0.3-5.1-3-5.1c-0.9,0-1.9,0.3-2.5,1L67.6,45.9L67.6,45.9z
		 M71.2,51.4c-0.6,0.5-1.5,1-2.3,1c-0.6,0-1.1-0.5-1.1-1.3c0-1.8,1.7-3.1,3.3-3.1h0.1c0,0.5,0,0.9,0,1.5
		C71.2,50.1,71.2,50.7,71.2,51.4L71.2,51.4L71.2,51.4z M79.3,44.6c0,0.3-0.1,3.9-0.1,4.2c0,0.1-0.3,0.1-0.7,0.1
		c-1,0-2.7-0.1-3.1-0.1c-0.1-1.3-0.2-2.6-0.3-3.9l-0.8-0.2c-0.1,0.9-0.1,1.8-0.1,2.8c0,1.1,0,2.2,0,3.3c0,0.6,0,1.1,0,1.7
		c0.1,0.5,0.6,0.9,0.9,0.9c0.2,0,0.5-0.1,0.6-0.6c-0.1-1.1-0.1-2.2-0.2-3.3c0.7,0.1,1.5,0.1,2.2,0.1c0.5,0,0.9,0,1.5,0v0.1
		c0,1-0.1,1.9-0.1,3c0.1,0.5,0.6,0.9,0.9,0.9c0.2,0,0.5-0.1,0.6-0.6l-0.3-8.4L79.3,44.6L79.3,44.6z M81.9,49.7
		c0,2.2,1.1,3.9,3.3,4.2c2.4-0.2,3.2-3,3.2-4.9c0-2.3-1.3-4.9-3.6-4.9C82.6,44.2,81.9,48.1,81.9,49.7L81.9,49.7z M84.9,45.1
		c1.6,0.2,2.4,1.9,2.4,3.6c0,1.3-0.7,3.9-2.2,3.9c-1,0-1.9-1.4-1.9-2.6C83.2,48.9,83.5,45.2,84.9,45.1L84.9,45.1z M95.3,44.5
		l-0.3,8.4c0.6,0.7,1.8,1,3,1c2.2,0,3.6-1.1,3.6-3.2c0-1-0.5-1.9-1.4-2.5c0.5-0.3,0.8-1.3,0.8-2.2c0-1.5-1-2.1-2.4-2.1
		C98.2,43.9,97.9,44,95.3,44.5L95.3,44.5z M96.3,48.9c0.9-0.1,1.6-0.2,2.3-0.2c1,0,1.7,0.9,1.7,1.7c0,1.3-1.5,2.3-2.8,2.3
		c-0.3,0-0.7-0.1-1-0.2L96.3,48.9L96.3,48.9z M96.1,45.2c0.7,0,1.7-0.2,2.4-0.2c0.6,0,0.9,0.1,1,0.6c-0.3,2.8-2.1,2.2-3.4,2.4V45.2
		L96.1,45.2z M108.2,40.9c-0.2,4.1-0.1,8.2-0.3,12.2c0.1,0.5,0.6,0.9,0.9,0.9c0.2,0,0.5-0.1,0.6-0.6c0-1.4-0.1-2.6-0.1-4
		c0.7,0.1,1.6,0.2,2.5,0.2c2.7,0,3.8-2.1,3.8-4.4c0-2.8-1.1-4.6-3.9-4.6c-1,0-2.2,0.2-2.7,0.7c0-0.1,0-0.6,0-0.6L108.2,40.9
		L108.2,40.9z M109.2,42.5c0.8-0.6,1.5-0.8,2.2-0.8c1.8,0,3.1,1.8,3.1,3.6c0,1.8-1.3,3.1-2.8,3.1c-0.8,0-1.7-0.2-2.2-0.6L109.2,42.5
		L109.2,42.5z M116,49.7c0,2.2,1.1,3.9,3.3,4.2c2.4-0.2,3.2-3,3.2-4.9c0-2.3-1.3-4.9-3.6-4.9C116.7,44.2,116,48.1,116,49.7L116,49.7
		z M119,45.1c1.6,0.2,2.4,1.9,2.4,3.6c0,1.3-0.7,3.9-2.2,3.9c-1,0-1.9-1.4-1.9-2.6C117.3,48.9,117.6,45.2,119,45.1L119,45.1z
		 M129.9,44.8c-0.5-0.3-1.3-0.5-1.9-0.5c-3.2,0-3.9,2.5-3.9,5.5c0,2.6,0.6,4,3.3,4c1,0,2.1-0.2,2.8-0.5c-0.1-0.8-0.2-1-0.5-1
		c-0.1,0-0.3,0-0.6,0.1c-0.8,0.2-1.4,0.3-1.9,0.3c-1.6,0-1.8-1.5-1.8-2.7c0-2.2,0.8-4.7,3.3-4.7c0.3,0,0.8,0,1.3,0.1L129.9,44.8
		L129.9,44.8z M136.9,44.8c-0.5-0.3-1.3-0.5-1.9-0.5c-3.2,0-3.9,2.5-3.9,5.5c0,2.6,0.6,4,3.3,4c1,0,2.1-0.2,2.8-0.5
		c-0.1-0.8-0.2-1-0.5-1c-0.1,0-0.3,0-0.6,0.1c-0.8,0.2-1.4,0.3-1.9,0.3c-1.6,0-1.8-1.5-1.8-2.7c0-2.2,0.8-4.7,3.3-4.7
		c0.3,0,0.8,0,1.3,0.1L136.9,44.8L136.9,44.8z M139.5,52c0.9-1.7,2.7-3.8,4-5.2c-0.1,1.7-0.1,4.3-0.2,6c0.1,0.5,0.6,0.9,0.9,0.9
		c0.2,0,0.5-0.1,0.6-0.6l-0.3-7.2c0-1.1-0.2-1.4-0.6-1.4c-0.1,0-0.3,0-0.5,0.1c-0.9,1.7-2.8,3.9-4,5.6c-0.2-2.5,0-3.8-0.3-5.7
		l-0.8,0.1c-0.1,2.5-0.1,5.2-0.2,7.8c0.1,0.5,0.6,0.9,0.9,0.9c0.2,0,0.5-0.1,0.6-0.6C139.5,52.5,139.5,52.3,139.5,52L139.5,52z
		 M147.8,52c0.9-1.7,2.7-3.8,4-5.2c-0.1,1.7-0.1,4.3-0.2,6c0.1,0.5,0.6,0.9,0.9,0.9c0.2,0,0.5-0.1,0.6-0.6l-0.3-7.2
		c0-1.1-0.2-1.4-0.6-1.4c-0.1,0-0.3,0-0.5,0.1c-0.9,1.7-2.8,3.9-4,5.6c-0.2-2.5,0-3.8-0.3-5.7l-0.8,0.1c-0.1,2.5-0.1,5.2-0.2,7.8
		c0.1,0.5,0.6,0.9,0.9,0.9c0.2,0,0.5-0.1,0.6-0.6C147.8,52.5,147.8,52.3,147.8,52L147.8,52z M64.3,61.3c-0.5-0.3-1.3-0.5-1.9-0.5
		c-3.2,0-3.9,2.5-3.9,5.5c0,2.6,0.6,4,3.3,4c1,0,2.1-0.2,2.8-0.5c-0.1-0.8-0.2-1-0.5-1c-0.1,0-0.3,0-0.6,0.1
		c-0.8,0.2-1.4,0.3-1.9,0.3c-1.6,0-1.8-1.5-1.8-2.7c0-2.2,0.8-4.7,3.3-4.7c0.3,0,0.8,0,1.3,0.1L64.3,61.3L64.3,61.3z M68.6,71.6
		c4.4-0.8,3.4-6.6,3.8-9.7c0.8-0.1,1.1,0,2.5-0.2c0,0.6,0,1.3,0,1.9c0,1.4,0,2.6,0,4c0,0.7,0,1.4,0,2.1c0.1,0.5,0.6,0.8,0.9,0.8
		c0.2,0,0.5-0.1,0.6-0.6c-0.2-3-0.1-6.2-0.2-9.2c-0.2,0-0.6,0-2.2,0c-1.3,0-2.5,0-2.7,0.2c-0.1,0.2-0.2,0.7-0.2,1.3
		c0,2.4,0,7.4-2.8,8.5L68.6,71.6L68.6,71.6z M79.2,66.6l2.4,0.3c0,0.3,0,0.7,0,1c0,1.5,1,2.3,2.4,2.3c2.4,0,3.2-3.3,3.2-4.6
		c0-4-1.3-4.6-2.6-4.6c-2.2,0-2.6,2.1-2.7,4.4c-0.3,0.1-0.6,0.1-0.9,0.1c-0.5,0-0.9-0.1-1.4-0.1c-0.1,0-0.2,0-0.3,0
		c0-1.3-0.1-2.3-0.2-3.5l-0.8-0.1l-0.3,7.8c0.1,0.5,0.6,0.8,0.9,0.8c0.2,0,0.5-0.1,0.6-0.6L79.2,66.6L79.2,66.6z M85.9,64.4
		c0,1.6-0.7,4.4-1.9,4.4c-0.8,0-1.3-0.5-1.3-3.1c0-1.4,0.5-3.9,1.8-3.9C85.7,61.9,85.9,63.6,85.9,64.4L85.9,64.4L85.9,64.4z
		 M89.7,61.7c0.7-3.2,4-4.3,5.9-5.5c-0.6-1.3-0.5-0.9-0.8-1.3c-3.9,1.8-6.3,3.9-6.3,8.7c0,4.2,0.8,7.3,3.5,7.3
		c2.6,0,3.1-4.4,3.1-6.2c0-2.7-1.4-3.8-3.2-3.8C91.3,61,90.3,61.3,89.7,61.7L89.7,61.7z M93.8,64.6c0,1.4-0.1,4.9-2.1,4.9
		c-1.6,0-2.2-3.2-2.2-4.8c0-1.5,0.8-2.7,2.1-2.7C92.9,62,93.8,62.8,93.8,64.6L93.8,64.6z M96.1,66.3c0,2.2,1.1,3.9,3.3,4.2
		c2.4-0.2,3.2-3,3.2-4.9c0-2.3-1.3-4.9-3.6-4.9C96.8,60.7,96.1,64.7,96.1,66.3L96.1,66.3z M99,61.7c1.6,0.2,2.4,1.9,2.4,3.6
		c0,1.3-0.7,3.9-2.2,3.9c-1,0-1.9-1.4-1.9-2.6C97.3,65.4,97.7,61.8,99,61.7L99,61.7z M104.5,61.1l-0.3,8.4c0.6,0.7,1.8,1,3,1
		c2.2,0,3.6-1.1,3.6-3.2c0-1-0.5-1.9-1.4-2.5c0.5-0.3,0.8-1.3,0.8-2.2c0-1.5-1-2.1-2.4-2.1C107.4,60.5,107,60.5,104.5,61.1
		L104.5,61.1z M105.4,65.4c0.9-0.1,1.6-0.2,2.3-0.2c1,0,1.7,0.9,1.7,1.7c0,1.3-1.5,2.3-2.8,2.3c-0.3,0-0.7-0.1-1-0.2L105.4,65.4
		L105.4,65.4z M105.3,61.9c0.7,0,1.7-0.2,2.4-0.2c0.6,0,0.9,0.1,1,0.6c-0.3,2.8-2.1,2.2-3.4,2.4V61.9L105.3,61.9z M112.2,61.2
		c0,0.6,0,1.3,0,1.8c0,2.3,0.1,4.4,0.1,6.6c0.1,0.5,2.4,0.6,2.6,0.6c1.7,0,3.2-1.1,3.2-2.7c0-1.6-1.4-3.3-3.4-3.3
		c-0.5,0-0.9,0.1-1.4,0.2c-0.1-1-0.2-2.1-0.3-3L112.2,61.2L112.2,61.2z M113.4,65.4c0.3,0,0.7-0.1,0.9-0.1c1.7,0,2.4,0.9,2.4,1.9
		c0,0.9-0.8,1.9-2.2,1.9c-0.3,0-0.8-0.1-1.4-0.2L113.4,65.4L113.4,65.4z M120.5,66.6l2.4,0.3c0,0.3,0,0.7,0,1c0,1.5,1,2.3,2.4,2.3
		c2.4,0,3.2-3.3,3.2-4.6c0-4-1.3-4.6-2.6-4.6c-2.2,0-2.6,2.1-2.7,4.4c-0.3,0.1-0.6,0.1-0.9,0.1c-0.5,0-0.9-0.1-1.4-0.1
		c-0.1,0-0.2,0-0.3,0c0-1.3-0.1-2.3-0.2-3.5l-0.8-0.1l-0.3,7.8c0.1,0.5,0.6,0.8,0.9,0.8c0.2,0,0.5-0.1,0.6-0.6L120.5,66.6
		L120.5,66.6z M127.2,64.4c0,1.6-0.7,4.4-1.9,4.4c-0.8,0-1.3-0.5-1.3-3.1c0-1.4,0.5-3.9,1.8-3.9C127,61.9,127.2,63.6,127.2,64.4
		L127.2,64.4z"/>
</g>
</svg>
