<?xml version="1.0" encoding="utf-8"?>
<!-- Generator: Adobe Illustrator 22.0.1, SVG Export Plug-In . SVG Version: 6.00 Build 0)  -->
<svg version="1.1" id="Слой_1" xmlns="http://www.w3.org/2000/svg" xmlns:xlink="http://www.w3.org/1999/xlink" x="0px" y="0px"
	 viewBox="0 0 19.4 25" style="enable-background:new 0 0 19.4 25;" xml:space="preserve">
<style type="text/css">
	.st0{fill:#B69A79;}
</style>
<g>
	<path class="st0" d="M9.7,1.6c4.4,0,8,3.6,8,8c0,3.5-2.1,9-8,13.3c-5.9-4.3-8-9.8-8-13.3C1.6,5.2,5.2,1.6,9.7,1.6 M9.7,0
		C4.3,0,0,4.3,0,9.7c0,4.8,3.2,11,9.7,15.3c6.5-4.3,9.7-10.5,9.7-15.3C19.4,4.3,15,0,9.7,0L9.7,0z"/>
	<g>
		<path class="st0" d="M9.7,8.1c0.9,0,1.6,0.7,1.6,1.6s-0.7,1.6-1.6,1.6c-0.9,0-1.6-0.7-1.6-1.6S8.8,8.1,9.7,8.1 M9.7,6.5
			c-1.8,0-3.2,1.4-3.2,3.2s1.4,3.2,3.2,3.2s3.2-1.4,3.2-3.2S11.5,6.5,9.7,6.5L9.7,6.5z"/>
	</g>
</g>
</svg>
