<?xml version="1.0" encoding="utf-8"?>
<!-- Generator: Adobe Illustrator 22.0.1, SVG Export Plug-In . SVG Version: 6.00 Build 0)  -->
<svg version="1.1" id="Слой_1" xmlns="http://www.w3.org/2000/svg" xmlns:xlink="http://www.w3.org/1999/xlink" x="0px" y="0px"
	 viewBox="0 0 99 62.3" style="enable-background:new 0 0 99 62.3;" xml:space="preserve">
<style type="text/css">
	.st0{fill:#FFFFFF;}
	.st1{fill:#FF5F00;}
	.st2{fill:#EB001B;}
	.st3{fill:#F79E1B;}
</style>
<g>
	<path class="st0" d="M0,0h99v62.3H0V0z"/>
	<g>
		<path d="M27.8,57.2v-3.5c0.1-0.6-0.2-1.2-0.6-1.6c-0.4-0.4-1-0.7-1.6-0.6c-0.8,0-1.5,0.3-2,1c-0.4-0.7-1.1-1-1.9-1
			c-0.7,0-1.3,0.3-1.7,0.8v-0.7h-1.1v5.6H20V54c0-0.4,0.1-0.8,0.4-1.1c0.3-0.3,0.7-0.4,1.1-0.4c0.8,0,1.3,0.5,1.3,1.5v3.2h1.1V54
			c0-0.4,0.1-0.8,0.4-1.1c0.3-0.3,0.7-0.4,1.1-0.4c0.8,0,1.3,0.5,1.3,1.5v3.2L27.8,57.2L27.8,57.2z M46.1,51.6h-2.1v-1.7H43v1.7
			h-1.2v1H43v2.6c0,1.3,0.5,2.1,1.9,2.1c0.5,0,1.1-0.2,1.5-0.4l-0.4-1c-0.3,0.2-0.7,0.3-1.1,0.3c-0.3,0-0.5-0.1-0.7-0.3
			c-0.2-0.2-0.3-0.4-0.2-0.7v-2.7h2.1L46.1,51.6L46.1,51.6z M56.6,51.4c-0.6,0-1.2,0.3-1.5,0.8v-0.7H54v5.6h1.1V54
			c0-0.9,0.5-1.5,1.2-1.5c0.3,0,0.5,0,0.8,0.1l0.4-1.1C57.2,51.5,56.9,51.5,56.6,51.4z M40.8,52c-0.7-0.4-1.5-0.6-2.3-0.6
			c-1.4,0-2.3,0.6-2.3,1.8c0,0.9,0.6,1.5,1.9,1.6l0.6,0.1c0.6,0.1,1.1,0.4,1.1,0.6c0,0.4-0.5,0.7-1.4,0.7c-0.7,0-1.3-0.2-1.9-0.6
			l-0.6,0.9c0.7,0.5,1.6,0.7,2.4,0.7c1.7,0,2.5-0.8,2.5-1.8c0-1.1-0.7-1.5-1.9-1.6l-0.6-0.1c-0.5-0.1-1-0.2-1-0.6
			c0-0.4,0.5-0.7,1.1-0.7c0.6,0,1.2,0.2,1.8,0.5C40.2,52.9,40.8,52,40.8,52z M57.9,54.4c0,0.8,0.2,1.6,0.8,2.1
			c0.6,0.6,1.3,0.9,2.1,0.8c0.7,0,1.4-0.2,2-0.6l-0.6-0.9c-0.4,0.3-0.9,0.5-1.5,0.5c-1-0.1-1.7-0.9-1.7-1.9c0-1,0.8-1.8,1.7-1.9
			c0.5,0,1.1,0.2,1.5,0.5l0.6-0.9c-0.6-0.5-1.3-0.7-2-0.6c-0.8-0.1-1.6,0.2-2.1,0.7C58.2,52.8,57.9,53.6,57.9,54.4z M50,51.4
			c-1.6,0-2.8,1.2-2.8,2.9c-0.1,0.8,0.2,1.6,0.8,2.1c0.6,0.6,1.3,0.9,2.1,0.8c0.8,0,1.6-0.3,2.3-0.8l-0.6-0.8
			c-0.5,0.4-1.1,0.6-1.6,0.6c-0.9,0-1.6-0.6-1.7-1.5h4.2v-0.5C52.6,52.6,51.6,51.4,50,51.4z M50,52.5c0.4,0,0.8,0.1,1,0.4
			c0.3,0.3,0.4,0.6,0.4,1h-3.1C48.4,53.1,49.1,52.5,50,52.5z M34.7,54.4v-2.8h-1.1v0.7c-0.4-0.6-1.1-0.9-1.8-0.8
			c-1.6,0-2.9,1.3-2.9,2.9c0,0,0,0,0,0c0,1.6,1.3,2.9,2.9,2.9c0,0,0,0,0,0c0.7,0,1.4-0.3,1.8-0.8v0.7h1.1V54.4z M30.1,54.4
			c0.1-1,0.9-1.7,1.8-1.6c1,0,1.7,0.8,1.7,1.8c0,1-0.8,1.7-1.8,1.7c-0.5,0-1-0.2-1.3-0.5C30.2,55.4,30.1,54.9,30.1,54.4z M73.7,51.4
			c-0.6,0-1.2,0.3-1.5,0.8v-0.7H71v5.6h1.1V54c0-0.9,0.5-1.5,1.2-1.5c0.3,0,0.5,0,0.8,0.1l0.4-1.1C74.2,51.5,73.9,51.5,73.7,51.4
			L73.7,51.4z M82.7,56.4c0.1,0,0.2,0,0.2,0.1c0.1,0,0.1,0.1,0.2,0.1c0.1,0.1,0.1,0.1,0.1,0.2c0,0.1,0.1,0.1,0.1,0.2
			c0,0.1,0,0.2-0.1,0.2c-0.1,0.1-0.1,0.1-0.1,0.2c-0.1,0.1-0.1,0.1-0.2,0.1c-0.1,0-0.1,0.1-0.2,0.1c-0.1,0-0.2,0-0.2-0.1
			c-0.1-0.1-0.1-0.1-0.2-0.1c-0.1-0.1-0.1-0.1-0.1-0.2s-0.1-0.1-0.1-0.2c0-0.1,0-0.2,0.1-0.2c0.1-0.1,0.1-0.1,0.1-0.2
			c0.1-0.1,0.1-0.1,0.2-0.1C82.6,56.4,82.7,56.4,82.7,56.4z M82.7,57.4c0.1,0,0.1,0,0.2-0.1c0.1,0,0.1-0.1,0.1-0.1l0.1-0.1
			c0-0.1,0.1-0.1,0.1-0.2c0-0.1,0-0.1-0.1-0.2c0-0.1-0.1-0.1-0.1-0.1l-0.1-0.1c-0.1,0-0.1-0.1-0.2-0.1c-0.1,0-0.1,0-0.2,0.1
			c-0.1,0-0.1,0.1-0.1,0.1l-0.1,0.1c0,0.1-0.1,0.1-0.1,0.2c0,0.1,0,0.1,0.1,0.2c0,0.1,0.1,0.1,0.1,0.1l0.1,0.1
			C82.6,57.4,82.7,57.4,82.7,57.4L82.7,57.4z M82.8,56.7c0.1,0,0.1,0,0.2,0.1c0.1,0.1,0.1,0.1,0.1,0.1C83,57,83,57,83,57
			c0,0-0.1,0.1-0.1,0.1l0.2,0.2h-0.2l-0.2-0.2h-0.1v0.2h-0.1v-0.5H82.8z M82.7,56.8v0.1h0.2v-0.1H82.7z M69.3,54.4v-2.8h-1.1v0.7
			c-0.4-0.6-1.1-0.9-1.8-0.8c-1.6,0-2.9,1.3-2.9,2.9v0c0,1.6,1.3,2.9,2.9,2.9c0.7,0,1.4-0.3,1.8-0.8v0.7h1.1V54.4z M64.8,54.4
			c0.1-1,0.9-1.7,1.8-1.6c1,0,1.7,0.8,1.7,1.8c0,1-0.8,1.7-1.8,1.7C65.4,56.3,64.8,55.4,64.8,54.4z M80.7,54.4v-5.1h-1.1v2.9
			c-0.4-0.6-1.1-0.9-1.8-0.8c-1.6,0-2.9,1.3-2.9,2.9v0c0,1.6,1.3,2.9,2.9,2.9c0.7,0,1.4-0.3,1.8-0.8v0.7h1.1
			C80.7,57.2,80.7,54.4,80.7,54.4z M76.1,54.4c0.1-1,0.9-1.7,1.8-1.6c1,0,1.7,0.8,1.7,1.8c0,1-0.8,1.7-1.8,1.7c-0.5,0-1-0.2-1.3-0.5
			C76.3,55.4,76.1,54.9,76.1,54.4z"/>
		<path class="st1" d="M39.4,8.9h20.4v33.2H39.4V8.9z"/>
		<path class="st2" d="M41.5,25.5c0-6.5,3-12.6,8.1-16.6c-7.3-5.7-17.5-6-25.2-0.8c-7.7,5.3-11,14.9-8.2,23.7
			c2.8,8.8,11,14.9,20.3,14.8c4.7,0,9.4-1.6,13.1-4.5C44.5,38.1,41.5,32,41.5,25.5z"/>
		<path class="st3" d="M83.9,25.5c0,8.1-4.6,15.5-11.9,19c-7.3,3.5-16,2.6-22.4-2.4c5.1-4,8.1-10.1,8.1-16.6c0-6.5-3-12.6-8.1-16.6
			C56,3.9,64.7,3,72,6.5C79.3,10,83.9,17.4,83.9,25.5z"/>
	</g>
</g>
</svg>
