<?xml version="1.0" encoding="utf-8"?>
<!-- Generator: Adobe Illustrator 22.0.1, SVG Export Plug-In . SVG Version: 6.00 Build 0)  -->
<svg version="1.1" id="Слой_1" xmlns="http://www.w3.org/2000/svg" xmlns:xlink="http://www.w3.org/1999/xlink" x="0px" y="0px"
	 viewBox="0 0 99 62.3" style="enable-background:new 0 0 99 62.3;" xml:space="preserve">
<g>
	<path fill="#3DA436" d="M25.7,42.7H21c-1.8-4.5-2.8-9.2-5-13.6v13.5c-2.5,0.2-4.8,0.1-7.1,0.1c-0.3-0.4-0.6-0.6-0.6-0.9
		c0-7-0.1-14.1-0.1-21.1c0-0.3,0.3-0.7,0.6-1.2c2.6,0,5.1,0,7.7,0c1.9,0,3,1.3,3.5,3c0.9,2.8,1.7,5.6,2.4,8.4
		c0.2,0.8,0.7,1.4,0.8,2.2c0.8-0.3,0.9-0.8,1.1-1.4c0.7-2.7,1.6-5.4,2.3-8.1c0.4-1.7,1.3-3,2.8-4h9v23H31c-0.6-2.3-0.2-4.6-0.3-6.8
		c-0.1-2.2,0-4.3-0.2-6.5C28.3,33.5,27.7,38.3,25.7,42.7 M56.4,19.6h7.7v22.9h-6.7c-0.7-0.4-0.7-1.1-0.7-1.8c0-3.2,0-6.3,0-9.5v-2.2
		c-1.2,0.4-1.4,1.3-1.6,2c-1.1,2.9-2.7,5.6-3.9,8.5c-0.9,2.2-2.6,3.3-5,3.1c-1.5-0.1-3.1,0-4.4,0c-0.9-0.6-0.9-1.3-0.9-2
		c0-6.9,0-13.8,0-20.9c2.4-0.6,4.8-0.1,7.4-0.3v13.7c0.9-0.4,1.1-0.9,1.4-1.5c1.3-3,2.7-6,4-9C54.4,21.3,55.4,20.5,56.4,19.6"/>
	<path fill="#0f82e6" d="M90.4,28.4c-4.7,0-9.4,0.1-14,0c-3.8-0.1-6.4-2.3-8.3-5.4c-0.6-0.9-1.3-1.9-1.2-3c0.4-0.5,0.8-0.4,1.2-0.4
		c5,0,10.1,0,15.1,0c3.6,0,6.1,2,7,5.6C90.5,26.1,91.2,27,90.4,28.4"/>
	<path fill="#3CA436" d="M74.8,42.5c-2.4,0.4-4.6,0.2-6.7,0.1c-0.2-0.3-0.5-0.6-0.5-0.8c0-3.6,0-7.3,0-10.9c2.2-0.5,18-0.6,22.5-0.2
		c-2,3.7-3.4,4.6-7.4,4.6c-2.4,0-4.9,0-7.4,0C74.7,37.7,75.4,40.1,74.8,42.5"/>
</g>
</svg>
