<?xml version="1.0" encoding="utf-8"?>
<!-- Generator: Adobe Illustrator 22.0.1, SVG Export Plug-In . SVG Version: 6.00 Build 0)  -->
<svg version="1.1" id="Слой_1" xmlns="http://www.w3.org/2000/svg" xmlns:xlink="http://www.w3.org/1999/xlink" x="0px" y="0px"
	 viewBox="0 0 34 33.6" style="enable-background:new 0 0 34 33.6;" xml:space="preserve">
<style type="text/css">
	.st0{fill:#FFFFFF;}
	.st1{fill:#E2E1E6;}
	.st2{fill:#BAA085;}
</style>
<g>
	<rect x="0.2" y="0.2" class="st0" width="33.6" height="33.2"/>
	<path class="st1" d="M33.6,0.4v32.7H0.4V0.4H33.6 M34,0H0v33.6h34V0L34,0z"/>
	<g>
		<path class="st2" d="M17.9,20.4l3.4,3.4c0.3,0.3,0.4,0.6,0.2,1c-0.1,0.4-0.4,0.7-0.8,0.8s-0.7,0.1-1-0.2L17,22.8l-2.7,2.7
			c-0.3,0.3-0.7,0.4-1.1,0.2c-0.4-0.1-0.7-0.4-0.8-0.8c-0.1-0.4,0-0.7,0.3-1l3.4-3.4c-1.4-0.1-2.4-0.5-3.2-0.9c-0.6-0.4-1-0.8-1.2-1
			c-0.2-0.3-0.2-0.7,0-1.1c0.1-0.3,0.4-0.5,0.7-0.6c0.4-0.1,0.8,0,1.2,0.4l0.4,0.3c0.4,0.2,0.7,0.4,1.1,0.5c0.6,0.2,1.2,0.2,1.8,0.2
			s1.2-0.1,1.8-0.2c0.4-0.1,0.8-0.3,1.1-0.5l0.4-0.3c0.4-0.3,0.8-0.4,1.2-0.4c0.3,0.1,0.5,0.3,0.7,0.6c0.2,0.4,0.2,0.8,0,1.1
			c-0.2,0.2-0.6,0.6-1.2,1C20.3,20,19.2,20.3,17.9,20.4z M13,10c0.4-0.7,1-1.2,1.7-1.7s1.5-0.6,2.3-0.6s1.6,0.2,2.3,0.6
			s1.3,1,1.7,1.7c0.4,0.7,0.6,1.5,0.6,2.3c0,0.8-0.2,1.6-0.6,2.3c-0.4,0.7-1,1.2-1.7,1.7s-1.5,0.6-2.3,0.6s-1.6-0.2-2.3-0.6
			s-1.3-1-1.7-1.7s-0.6-1.4-0.6-2.3C12.4,11.5,12.6,10.7,13,10z M15.4,13.9c0.4,0.4,1,0.6,1.6,0.6s1.1-0.2,1.6-0.6
			c0.4-0.4,0.7-1,0.7-1.6s-0.2-1.1-0.7-1.6c-0.4-0.4-1-0.6-1.6-0.6s-1.1,0.2-1.6,0.6s-0.7,1-0.7,1.6C14.8,12.9,15,13.5,15.4,13.9z"
			/>
	</g>
</g>
</svg>
