<?xml version="1.0" encoding="utf-8"?>
<!-- Generator: Adobe Illustrator 22.0.1, SVG Export Plug-In . SVG Version: 6.00 Build 0)  -->
<svg version="1.1" id="Слой_1" xmlns="http://www.w3.org/2000/svg" xmlns:xlink="http://www.w3.org/1999/xlink" x="0px" y="0px"
	 viewBox="0 0 161 161" style="enable-background:new 0 0 161 161;" xml:space="preserve">
<style type="text/css">
	.st0{fill:none;stroke:#609C9F;stroke-linecap:round;stroke-linejoin:round;stroke-miterlimit:10;}
	.st1{fill:none;stroke:#E9465E;stroke-linecap:round;stroke-linejoin:round;stroke-miterlimit:10;}
</style>
<g>
	<g>
		<path class="st0" d="M155.3,113.5c-0.8-7.2-3.8-12.9-15.6-17.3c-15.4-5.7-26.1-16.5-30.8-37.2c-4.3-18.8-6.7-22.7-11.3-27.8
			c-5.6-6.1-15.8-8.4-23.3-15.1c-7.5-6.7-7-15.5-7-15.5c-15.6,11.8-18.1,33.9-18,41.9C49.5,56.4,56,71,55.5,82.8
			C55.3,86.7,54,96.9,47,99.3"/>
		<path class="st0" d="M107.7,54c-0.5,4.1-1.4,7.5-2.7,9.5c-0.8,1.2-3.8,5.3-9.5,8.3c-5.7,3-9.9,7-17.3,7.3s-10.1-5.4-11.4-7.3
			s-2.3-4-2.9-5.3c-0.6-1.3-5.2-10.2-6.5-12.7c-1.3-2.5-3.8-9.2-3.7-12.3c0.2-3.1,1-6.5,0.5-8.6c-0.3-1.4-1.8-7.3-0.6-13.9"/>
		<path class="st0" d="M53.3,24.4c7.5-0.7,11.4,2.4,13.5,4.4c0,0,2.5,2.3,3,4.8c0,0.3,0.1,0.5,0,0.8c0,0.9-0.2,3.1-0.4,4
			c-0.3,1.1-1.1,4.5-1.3,6s-0.6,3.7-0.9,4.9c-0.3,1.2-0.8,2.7-0.8,3.4c0,0.7,0.2,1.5,1.7,2.2c0.7,0.3,1,0.6,1.6,0.7
			c1.5,0.1,2.2-0.8,3.1-0.9c0.8-0.1,2,0.3,2.9,0.3c1.4,0,3.7-0.4,3.7-2.3c0-0.6-0.1-0.7-0.1-0.7"/>
		<path class="st0" d="M79.3,28.7c2.2-1.8,4.8-3.4,10.3-3.2"/>
		<path class="st0" d="M80.3,35.1c0.8-0.2,1.1-0.2,1.6-0.2c1.9,0.1,4.4,2.3,6.6,2.3c1.7,0,3.3-0.3,5.1-1.5c2.3-1.6,2.5-1.7,2.5-1.7"
			/>
		<path class="st0" d="M54.4,33.2c0,0,1.5,2.7,4.3,2.7c2.8,0,5.7-2.3,8.7-2.1"/>
		<path class="st0" d="M65.7,62.1c0,0,1.6,5.7,6.9,6.1c6.3,0.1,11.5-6.8,11.5-6.8S77.6,64,72.4,64c-5.5,0-8.7-3.5-8.7-3.5s3,0,4.4,0
			c1.8,0,2.2,1.2,3.1,1.2c1.1,0.1,1.4-0.5,3-0.7c1.7-0.2,7.3,0.9,9.9,0.4"/>
		<path class="st0" d="M81.8,85.4C74.5,94.5,59.2,96.5,52.5,98c-11.5,2.6-21.7,4.3-28.5,18.1"/>
		<path class="st0" d="M83.8,82.8c0.8-1.4,1.8-3.3,2.3-5.7"/>
		<path class="st0" d="M150,79.8c0,0-6,0.1-15.8-8.5c-10.3-9-13.4-27.3-15.5-32.8c-2.5-6.6-7.9-17.5-26.5-20.2
			C73.9,15.7,69.6,7.6,67.2,0.6c0,0-17.8,8.3-23.7,39.5c-6,31.3,10.8,45.7-13.3,67.2"/>
	</g>
	<g>
		<path class="st1" d="M115.9,123.1c2.4-0.8,3-3.5,3.2-4.7s0.4-2,1.3-3c0.9-1,1.9-2.8,2.4-4.1s2.5-3.6,2.3-8.5
			c-0.5-11.6-6.8-17.7-8.3-19.3c-1.5-1.6-5.4-4.6-9.7-6.2c-2.3-0.9-10.7-2.7-18.6,1.6S78.4,92.2,78.5,95.8c0.1,3.6,1,8.2,0.9,11.3
			c-0.1,3.2-0.8,4.6-2.2,5.6"/>
		<path class="st1" d="M110.7,119.4c-1,0.8-0.7,2-0.2,2.5c0.8,0.7,2.3,0.5,2.3,0.5s1.3,1.1,2.4,0.9c1-0.2,1.6-0.6,1.8-1.5
			c0.3-0.9-0.1-2.2-0.2-3.6s0-2.6,0.4-3.3c0,0,0.5,1.9,2.5,1.5"/>
		<path class="st1" d="M118.7,112.1c0,0,2.1-0.5,3.5,0.8"/>
		<path class="st1" d="M107.6,125.6c0,0,2.6,1.2,4.6,1.1s3.1-0.8,3.3-3.4"/>
		<path class="st1" d="M107.6,127.4c0,0,0.8,1.6,2.8,2c1.2,0.2,2.5-1,2.5-2.7"/>
		<path class="st1" d="M103,132.4c1.5,0.9,2.6,1,3.7,0.9s2.9-0.6,3.7-4"/>
		<path class="st1" d="M87.4,114.8c1.3,1.9,3.7,5,5.3,6.5s4.6,3.6,5.9,4.8s3.6,4.9,5.8,8.8s2.3,6,2.3,8.1c2.7-3.1,9.1-8.8,9.7-9.7
			c0-3-0.2-6.2,0.5-7.7s1.9-2.5,2.6-3.2c0.7-0.7,2.3-2.5,2.7-3c0.4-0.5,1.2-1.3,2-1.1c0.8,0.2,1.2,0.9,1.3,1.5
			c0.9-0.5,1.9-1.3,2.8-0.8c0.8,0.4,1.3,1.1,1.1,2.2c1-0.1,1.6-0.2,2,0.1s1,1,0.8,1.9c1,0.2,1.5,0.5,1.8,0.9c0.3,0.5,0.5,1.6,0,2.9
			c-0.5,1.4-1.2,3.5-2.2,4.8c-1,1.3-2.2,3.8-4.9,4.8c-0.7,1.4-1.9,3.7-2.6,5.2c-0.7,1.5-5.6,10.8-7.8,12.9c-2.2,2-7.6,5.7-12,5.8
			s-8.4-4.9-9.7-6.2s-6.1-7.3-7.1-11.8"/>
		<path class="st1" d="M87.4,110.2c-0.4,0.3-0.8,0.6-1.5,0.6s-1.6-0.6-2.8-2.5s-1.9-3.2-1.8-4.6s0.7-4.9,4.4-4.9
			c3.1,0,3.8,2.2,3.8,2.2"/>
		<path class="st1" d="M86.1,102.4c-0.6-0.1-2.3,0.1-2.5,1.9c-0.2,1.7,2.2,2.5,2.2,3.4s-0.3,0.9-0.3,0.9"/>
		<path class="st1" d="M83.6,104.2c-0.1,1.8,1.9,2,2.2,3.4c0.1,0.6-0.3,0.9-0.3,0.9"/>
		<path class="st1" d="M86,100.6c0,0,1.6-0.3,2,1.3"/>
		<path class="st1" d="M112.2,110c-0.3-0.5-1-3.5-6.1-3"/>
		<path class="st1" d="M111.3,112.9c0,0-1.1,0.8-2.6,0.6c-1.5-0.2-3.2-1.8-4-3.1"/>
	</g>
</g>
</svg>
