<?xml version="1.0" encoding="utf-8"?>
<!-- Generator: Adobe Illustrator 22.0.1, SVG Export Plug-In . SVG Version: 6.00 Build 0)  -->
<svg version="1.1" id="Слой_1" xmlns="http://www.w3.org/2000/svg" xmlns:xlink="http://www.w3.org/1999/xlink" x="0px" y="0px"
	 viewBox="0 0 161 161" style="enable-background:new 0 0 161 161;" xml:space="preserve">
<g>
	<g>
		<path fill="none" stroke="#609C9F" stroke-miterlimit="10" d="M62.7,66.1c-12-5.8-20.1-17.2-20.1-30.3c0-18.9,16.9-34.3,37.8-34.3s37.8,15.3,37.8,34.3
			c0,13.2-8.2,24.6-20.3,30.4"/>
		<ellipse fill="none" stroke="#609C9F" stroke-miterlimit="10" cx="80.4" cy="45.6" rx="15.4" ry="12.4"/>
		<g>
			<ellipse fill="none" stroke="#609C9F" stroke-linecap="round" stroke-miterlimit="10" cx="80.4" cy="42.5" rx="3.8" ry="3.1"/>
			<circle fill="none" stroke="#609C9F" stroke-linecap="round" stroke-miterlimit="10" cx="95.9" cy="33.4" r="2.4"/>
			<g>
				<path fill="none" stroke="#609C9F" stroke-linecap="round" stroke-miterlimit="10" d="M42.8,31.9c-7.1-1.3-12.4-7.5-12.4-15c0-8.4,6.8-15.2,15.2-15.2c5.1,0,9.7,2.5,12.4,6.4"/>
				<circle fill="none" stroke="#609C9F" stroke-linecap="round" stroke-miterlimit="10" cx="64.8" cy="33.4" r="2.4"/>
				<g>
					<g>
						<path fill="none" stroke="#609C9F" stroke-linecap="round" stroke-miterlimit="10" d="M43.7,27.5c-0.3-0.1-0.7-0.1-1-0.2"/>
						<path fill="none" stroke="#609C9F" stroke-linecap="round" stroke-miterlimit="10" stroke-dasharray="2.096,3.1441" d="M39.9,26c-3-1.9-4.9-5.2-4.9-9c0-5.9,4.8-10.7,10.7-10.7c2.7,0,5.2,1,7.1,2.7"/>
						<path fill="none" stroke="#609C9F" stroke-linecap="round" stroke-miterlimit="10" d="M53.8,10.1c0.2,0.3,0.4,0.5,0.6,0.8"/>
					</g>
				</g>
				<path fill="none" stroke="#609C9F" stroke-linecap="round" stroke-miterlimit="10" d="M51.3,127.6c-5.9-4.9-10-12-10-21.8C41.4,81.5,58.9,64,58.9,64"/>
				<path fill="none" stroke="#609C9F" stroke-linecap="round" stroke-miterlimit="10" d="M29.5,116.7c-2.3-8-7.1-18.3-15.4-18.3s-13.7,9.1-13.7,21.2s1.4,27.7,17.5,27.7c10,0,20.2-3.3,28.8-7.1"/>
				<path fill="none" stroke="#609C9F" stroke-linecap="round" stroke-miterlimit="10" d="M58,64.3c0,0-11.6,6.7-17.7,15.5c-5.3,7.7-7.5,16-7.5,16s-5.9,4.8-6.9,11.9"/>
				<path fill="none" stroke="#609C9F" stroke-linecap="round" stroke-miterlimit="10" stroke-dasharray="2,3" d="M21.9,140.5c0,0,0.2-18.7-3.5-25.4s-7-12.3-15.1-8.7"/>
				<path fill="none" stroke="#609C9F" stroke-linecap="round" stroke-miterlimit="10" d="M29.6,115.8c0,0,8.1-4.5,12.1-5.2"/>
			</g>
			<g>
				<path fill="none" stroke="#609C9F" stroke-linecap="round" stroke-miterlimit="10" d="M118.1,31.9c7.1-1.3,12.4-7.5,12.4-15c0-8.4-6.8-15.2-15.2-15.2c-5.1,0-9.7,2.5-12.4,6.4"/>
				<circle fill="none" stroke="#609C9F" stroke-linecap="round" stroke-miterlimit="10" cx="96.1" cy="33.4" r="2.4"/>
				<g>
					<g>
						<path fill="none" stroke="#609C9F" stroke-linecap="round" stroke-miterlimit="10" d="M117.2,27.5c0.3-0.1,0.7-0.1,1-0.2"/>
						<path 	fill="none" stroke="#609C9F" stroke-linecap="round" stroke-miterlimit="10" stroke-dasharray="2.096,3.1441"
 d="M121.1,26c3-1.9,4.9-5.2,4.9-9c0-5.9-4.8-10.7-10.7-10.7c-2.7,0-5.2,1-7.1,2.7"/>
						<path fill="none" stroke="#609C9F" stroke-linecap="round" stroke-miterlimit="10" d="M107.2,10.1c-0.2,0.3-0.4,0.5-0.6,0.8"/>
					</g>
				</g>
				<path fill="none" stroke="#609C9F" stroke-linecap="round" stroke-miterlimit="10" d="M109.3,127.9c6-4.9,10.3-12,10.3-22.1c0-24.3-17.5-41.7-17.5-41.7"/>
				<path fill="none" stroke="#609C9F" stroke-linecap="round" stroke-miterlimit="10" d="M131.4,116.7c2.3-8,7.1-18.3,15.4-18.3c8.3,0,13.7,9.1,13.7,21.2s-1.4,27.7-17.5,27.7
					c-10.2,0-20.6-3.4-29.3-7.3"/>
				<path fill="none" stroke="#609C9F" stroke-linecap="round" stroke-miterlimit="10" d="M102.9,64.3c0,0,11.6,6.7,17.7,15.5c5.3,7.7,7.5,16,7.5,16s5.9,4.8,6.9,11.9"/>
				<path fill="none" stroke="#609C9F" stroke-linecap="round" stroke-miterlimit="10" stroke-dasharray="2,3" d="M139.1,140.5c0,0-0.2-18.7,3.5-25.4c3.7-6.7,7-12.3,15.1-8.7"/>
				<path fill="none" stroke="#609C9F" stroke-linecap="round" stroke-miterlimit="10" d="M131.4,116.2c0,0-8.1-4.5-12.1-5.2"/>
			</g>
		</g>
		<g>
			<path fill="none" stroke="#609C9F" stroke-miterlimit="10" d="M80.2,81.1L80.2,81.1c-2.9,0-5.3-2.3-5.3-5.2v-4.7c0-2.9,2.3-5.2,5.2-5.2h0.1c2.9,0,5.2,2.3,5.2,5.2v4.7
				C85.4,78.7,83.1,81.1,80.2,81.1z"/>
			<path fill="none" stroke="#609C9F" stroke-miterlimit="10" d="M75.8,78.8c0,0-5.7,4.6-10.8,4.6c-2.5,0-4.6-2.1-4.6-4.6v-8.7c0-2.5,2.1-4.6,4.6-4.6
				c5.5,0,10.1,4.3,10.1,4.3"/>
			<path fill="none" stroke="#609C9F" stroke-miterlimit="10" d="M84.7,78.8c0,0,5.7,4.6,10.8,4.6c2.5,0,4.6-2.1,4.6-4.6v-8.7c0-2.5-2.1-4.6-4.6-4.6
				c-5.5,0-10.1,4.3-10.1,4.3"/>
		</g>
		<path fill="none" stroke="#609C9F" stroke-linecap="round" stroke-miterlimit="10" stroke-dasharray="2,3" d="M78.1,91.1c0.4-3.3,0.7-6.2,1.3-10"/>
	</g>
	<g>
		<g>
			<g>
				<path fill="none" stroke="#E9465E" stroke-linecap="round" stroke-linejoin="round" stroke-miterlimit="10" d="M80.3,91.1c-3.8,0-7.3,0.7-9.4,1.3c-1.2,0.3-1.8,1.6-1.2,2.7l5.7,11.2"/>
				<path fill="none" stroke="#E9465E" stroke-linecap="round" stroke-linejoin="round" stroke-miterlimit="10" d="M80.3,106.5c-2.4,0-5.6-0.3-5.6-0.3c-2.5-0.1-4.8,0.8-6.7,2.4c-9.2,7.5-21.3,21.2-21.3,34.2
					c0,14,13.2,16.5,33.2,16.7l0.7,0c20-0.2,33.2-2.7,33.2-16.7c0-13-12.1-26.6-21.3-34.2c-1.9-1.6-4.2-2.5-6.7-2.4
					c0,0-2.8,0.3-5.2,0.3H80.3z"/>
				<path fill="none" stroke="#E9465E" stroke-linecap="round" stroke-linejoin="round" stroke-miterlimit="10" d="M72.3,106.5c0,0-5.8-2.5-7.9-7.2c-0.4-0.9-0.1-1.9,0.7-2.4c1.2-0.8,3.1-1.3,4.7-1.5"/>
			</g>
			<g>
				<path fill="none" stroke="#E9465E" stroke-linecap="round" stroke-linejoin="round" stroke-miterlimit="10" d="M80.2,91.1c3.8,0,7.3,0.7,9.4,1.3c1.2,0.3,1.8,1.6,1.2,2.7l-5.8,11.3"/>
				<path fill="none" stroke="#E9465E" stroke-linecap="round" stroke-linejoin="round" stroke-miterlimit="10" d="M78.2,159.5"/>
				<path fill="none" stroke="#E9465E" stroke-linecap="round" stroke-linejoin="round" stroke-miterlimit="10" d="M88.1,106.5c0,0,5.8-2.5,7.9-7.2c0.4-0.9,0.1-1.9-0.7-2.4c-1.2-0.8-3.1-1.3-4.7-1.5"/>
			</g>
			<path fill="none" stroke="#E9465E" stroke-linecap="round" stroke-linejoin="round" stroke-miterlimit="10" d="M73.7,106.3c-3.1,1.5-6.7,6.7-6.9,21"/>
			<path fill="none" stroke="#E9465E" stroke-linecap="round" stroke-linejoin="round" stroke-miterlimit="10" d="M61.3,122.7c1.4-4,3.1-11.2,11.8-16.4"/>
		</g>
		<g>
			<path fill="none" stroke="#E9465E" stroke-linecap="round" stroke-linejoin="round" stroke-miterlimit="10" d="M75.9,138.6h5.6c3.3,0,6-2.7,6-6v-2.5c0-3.3-2.7-6-6-6h-5.6v25.6"/>
			<line fill="none" stroke="#E9465E" stroke-linecap="round" stroke-linejoin="round" stroke-miterlimit="10" x1="80.5" y1="142.6" x2="71.4" y2="142.6"/>
		</g>
	</g>
</g>
</svg>
