<?xml version="1.0" encoding="utf-8"?>
<!-- Generator: Adobe Illustrator 22.0.1, SVG Export Plug-In . SVG Version: 6.00 Build 0)  -->
<svg version="1.1" id="Слой_1" xmlns="http://www.w3.org/2000/svg" xmlns:xlink="http://www.w3.org/1999/xlink" x="0px" y="0px"
	 viewBox="0 0 161 161" style="enable-background:new 0 0 161 161;" xml:space="preserve">
<style type="text/css">
	.st0{fill:none;stroke:#609C9F;stroke-miterlimit:10;}
	.st1{fill:none;stroke:#E9465E;stroke-linecap:round;stroke-linejoin:round;stroke-miterlimit:10;}
</style>
<g>
	<g>
		<g>
			<path class="st0" d="M35.1,36.4c0,0,9.3-3.5,15.3-12.8S56.9,2,56.9,2"/>
			<path class="st0" d="M33.4,29.1c0,0,6.9-2.6,11.4-9.6c3.7-5.8,4.7-13.1,4.9-15.4"/>
			<path class="st0" d="M123.7,36.4c0,0-9.3-3.5-15.3-12.8S101.9,2,101.9,2"/>
			<path class="st0" d="M125.4,29.1c0,0-6.9-2.6-11.4-9.6c-3.7-5.8-4.7-13.1-4.9-15.4"/>
			<path class="st0" d="M131.4,14.9c0,0-7.7,10.3-7.7,27.5c0,13.7,5.3,18.9,5.3,18.9s3.9,3.5,8.3,3.8c9.4-17.4,13.3-35.8,13.3-35.8
				S142.9,22,131.4,14.9S109,3.8,101.9,1.7c-5,3-10.8,6.8-22.4,6.5h-0.1C67.7,8.5,61.9,4.7,56.9,1.7c-7.1,2.1-18,6.1-29.5,13.2
				S8.2,29.4,8.2,29.4S12,47.8,21.4,65.1c4.5-0.3,8.3-3.8,8.3-3.8s5.3-5.3,5.3-18.9c0-17.3-7.7-27.5-7.7-27.5"/>
		</g>
		<g>
			<path class="st0" d="M30.7,60.1c0,0,0,17.3,0,35.9l-0.4,31.6c0,2.2,0.9,4.4,2.5,5.9c2.9,2.7,7.9,7.5,12.6,13
				c4.9,5.8,7.8,9.8,9.2,11.8c0.6,0.9,1.6,1.4,2.7,1.4h22.8"/>
			<path class="st0" d="M65.2,159.7c1.3-2.4,2.8-5,3.6-6.5c1.9-3.2,4.1-4.5,6.9-4.5h2.9c0,0,2.6,0,4.4,0c2.8,0,5,1.2,6.9,4.5
				c0.9,1.5,2.3,4.1,3.6,6.5"/>
			<path class="st0" d="M80.2,148.8c0,0-0.1,0-0.2,0"/>
			<path class="st0" d="M61.5,148.8c0,0-6.7-5.6-11.9-8.6c-4.5-2.6-17.9-8-17.9-8"/>
			<path class="st0" d="M64.9,143.1c0,0-7.6-6.3-14-10.1c-7.5-4.4-20.6-8.7-20.6-8.7"/>
			<circle class="st0" cx="71.3" cy="144.3" r="2.5"/>
			<circle class="st0" cx="87.2" cy="144.3" r="2.5"/>
			<circle class="st0" cx="79.4" cy="143.4" r="2.5"/>
			<path class="st0" d="M128.1,60.1c0,0,0,17.3,0,35.9l0.4,31.6c0,2.2-0.9,4.4-2.5,5.9c-2.9,2.7-7.9,7.5-12.6,13
				c-4.9,5.8-7.8,9.8-9.2,11.8c-0.6,0.9-1.6,1.4-2.7,1.4H78.7"/>
			<path class="st0" d="M103.2,159.8c0,0-6.2-11.6-8.8-15.9s-6.9-5.9-9.3-5.9h-5.8c0,0-3.4,0-5.8,0s-6.7,1.6-9.3,5.9
				s-8.8,15.9-8.8,15.9"/>
			<path class="st0" d="M97.3,148.8c0,0,6.7-5.6,11.9-8.6c4.5-2.6,17.9-8,17.9-8"/>
			<path class="st0" d="M93.9,143.1c0,0,7.6-6.3,14-10.1c7.5-4.4,20.6-8.7,20.6-8.7"/>
		</g>
		<g>
			<path class="st0" d="M102.9,9.1c-3.6,9.5-12.8,16.3-23.6,16.3c-10.7,0-19.8-6.7-23.5-16.1"/>
			<path class="st0" d="M105.5,17.7c-5.6,8.4-15.3,14-26.2,14c-10.8,0-20.4-5.5-26.1-13.8"/>
			<path class="st0" d="M53.3,17.9"/>
		</g>
	</g>
	<g>
		<path class="st1" d="M94.2,58.7c-4.8-2.6-11-1.8-14.9,1.8c-3.9-3.6-10.1-4.4-14.9-1.8c-4.1,2.3-6.7,6.6-6.7,11.3
			c0,1.3,0.2,2.7,0.6,3.8c2.1,9.3,19.4,20.3,20.1,20.7l0.8,0.5l0.9-0.5c0.7-0.5,18.1-11.5,20.1-20.6c0.4-1.3,0.6-2.6,0.6-4
			C100.9,65.3,98.3,60.9,94.2,58.7z"/>
		<path class="st1" d="M88,61.9c1.4,0,2.7,0.3,3.9,1c2.6,1.4,4.2,4.1,4.2,7.1c0,0.8-0.1,1.7-0.4,2.5"/>
	</g>
</g>
</svg>
