<?xml version="1.0" encoding="utf-8"?>
<!-- Generator: Adobe Illustrator 22.0.1, SVG Export Plug-In . SVG Version: 6.00 Build 0)  -->
<svg version="1.1" id="Слой_1" xmlns="http://www.w3.org/2000/svg" xmlns:xlink="http://www.w3.org/1999/xlink" x="0px" y="0px"
	 viewBox="0 0 109.7 161" style="enable-background:new 0 0 109.7 161;" xml:space="preserve">
<style type="text/css">
	.st0{fill:none;stroke:#609C9F;stroke-miterlimit:10;}
	.st1{fill:none;stroke:#E9465E;stroke-miterlimit:10;}
</style>
<g>
	<g>
		<g>
			<path class="st0" d="M101.5,98.6c1.3,5.2-1.3,11.4-7.8,13l0,0l0,0c8,7.7,0.3,21-10.4,18h0l0,0c3.1,10.7-10.2,18.4-18,10.4l0,0
				l0,0c-2.7,10.8-18,10.8-20.7,0l0,0l0,0c-7.7,8-21,0.3-18-10.4l0,0h0c-10.7,3.1-18.4-10.2-10.4-18l0,0l0,0
				c-6.4-1.6-9-7.7-7.8-12.9"/>
		</g>
		<g>
			<circle class="st0" cx="54.8" cy="138.9" r="1.5"/>
			<circle class="st0" cx="73.6" cy="133.9" r="1.5"/>
			<circle class="st0" cx="87.4" cy="120.1" r="1.5"/>
			<circle class="st0" cx="22.1" cy="120.1" r="1.5"/>
			<circle class="st0" cx="35.9" cy="133.9" r="1.5"/>
		</g>
		<g>
			<path class="st0" d="M43.2,112.5c-1.8-1.3-1.4-4.5,1.1-5.1l0,0l0,0c-2.2-2.1-0.1-5.7,2.8-4.9h0l0,0c-0.8-2.9,2.8-5,4.9-2.8l0,0v0
				c0.4-1.5,1.6-2.2,2.8-2.2"/>
			<path class="st0" d="M54.8,120.9c-3.1,0-4.4,0-6.1,0c-1.8,0-6.3-1.3-7.3-7.9c4.4-1.3,6.6-0.8,8.7,0.7c2.4,1.6,4.4,6.6,4.5,6.9
				C54.8,120.8,54.8,120.9,54.8,120.9z"/>
			<path class="st0" d="M66.3,112.5c1.8-1.3,1.4-4.5-1.1-5.1l0,0l0,0c2.2-2.1,0.1-5.7-2.8-4.9h0l0,0c0.8-2.9-2.8-5-4.9-2.8l0,0l0,0
				c-0.4-1.5-1.6-2.2-2.8-2.2"/>
			<path class="st0" d="M54.8,120.9c3.1,0,4.4,0,6.1,0c1.8,0,6.3-1.3,7.3-7.9c-4.4-1.3-6.6-0.8-8.7,0.7c-2.4,1.6-4.4,6.6-4.5,6.9
				C54.8,120.8,54.8,120.9,54.8,120.9z"/>
			<path class="st0" d="M60.6,113c0.1-1.2-0.2-2.5-1-3.6c-1.3-1.6-4.6-4.6-4.6-4.6l-0.2-0.1c0,0-3.5,3.2-4.8,4.7
				c-0.9,1.1-1.2,2.4-1,3.6"/>
			<path class="st0" d="M59.4,120.9c0.1,0.9-0.1,1.7-0.8,2.6c-1,1.3-3.7,3.7-3.7,3.7l-0.1,0.1c0,0-2.8-2.5-3.8-3.8
				c-0.7-0.9-0.9-1.6-0.8-2.6"/>
			<g>
				<path class="st0" d="M42.2,111c-1.3-2.1-4.2-2.3-5.2-2.3c-2.6,0-7.6,1.6-7.6,6.5c0,4.1,3.1,5.4,5.2,5.4c1.1,0,3.4-0.9,3.5-3.3
					c0-1.6-1.2-2.6-2.5-2.4"/>
				<path class="st0" d="M31.7,110.5c-1.8,1.6-3.2,1.7-4.3,1.7c-1.6,0-4.3-1.2-4.3-4.2c0-2.5,1.9-3.3,3.2-3.3c0.7,0,2.1,0.6,2.1,2
					c0,1-0.7,1.6-1.5,1.4"/>
			</g>
			<g>
				<path class="st0" d="M67.4,111c1.3-2.1,4.2-2.3,5.2-2.3c2.6,0,7.6,1.6,7.6,6.5c0,4.1-3.1,5.4-5.2,5.4c-1.1,0-3.4-0.9-3.5-3.3
					c0-1.6,1.2-2.6,2.5-2.4"/>
				<path class="st0" d="M77.9,110.5c1.8,1.6,3.2,1.7,4.3,1.7c1.6,0,4.3-1.2,4.3-4.2c0-2.5-1.9-3.3-3.2-3.3c-0.7,0-2.1,0.6-2.1,2
					c0,1,0.7,1.6,1.5,1.4"/>
			</g>
		</g>
		<path class="st0" d="M107.4,97.4c0.6,3.1,0.8,5.9,0.8,9.8c0,14-6.7,26.3-14.1,34.9c-3,3.5-4.7,8-4.7,12.7v1.5
			c0,2.4-1.9,4.3-4.3,4.3H54.9h-0.1H24.6c-2.4,0-4.3-1.9-4.3-4.3v-1.5c0-4.6-1.6-9.2-4.7-12.7c-7.4-8.5-14.1-20.9-14.1-34.9
			c0-3.9,0.2-6.7,0.8-9.8"/>
	</g>
	<g>
		<g>
			<path class="st1" d="M60.8,61.4c0.2,0.6,0.3,1.2,0.3,1.8c0,3.5-2.8,6.3-6.3,6.3c-3.5,0-6.3-2.8-6.3-6.3c0-0.6,0.1-1.3,0.3-1.9"/>
			<g>
				<path class="st1" d="M53.7,69.4c-3.7,13.3-17.3,36.6-51.4,28"/>
				<path class="st1" d="M48.5,62.4c-6.4,0.9-14.5,4.3-16,17.3c4.8,1.2,17.4,3,21.2-10.3"/>
			</g>
			<g>
				<path class="st1" d="M55.8,69.4c3.7,13.3,17.3,36.6,51.4,28"/>
				<path class="st1" d="M61,62.4c6.4,0.9,14.5,4.3,16,17.3c-4.8,1.2-17.4,3-21.2-10.3"/>
			</g>
		</g>
		<circle class="st1" cx="83.7" cy="88.3" r="1.5"/>
		<circle class="st1" cx="27.4" cy="88.3" r="1.5"/>
		<circle class="st1" cx="54.9" cy="36.2" r="25.9"/>
		<g>
			<g>
				<path class="st1" d="M106,83.7c-2.3-3-5.7-3.3-6.7-3.3c-2.6,0-7.6,1.6-7.6,6.5c0,4.1,3.1,5.4,5.2,5.4c1.1,0,3.4-0.9,3.5-3.3
					c0-1.6-1.2-2.6-2.5-2.4"/>
				<path class="st1" d="M93.9,82.2c-1.8,1.6-3.2,1.7-4.3,1.7c-1.6,0-4.3-1.2-4.3-4.2c0-2.5,1.9-3.3,3.2-3.3c0.7,0,2.1,0.6,2.1,2
					c0,1-0.7,1.6-1.5,1.4"/>
				<path class="st1" d="M92.8,63.4c-2.5-2.7-5.6-3.1-6.5-3.1c-2.3,0-6.5,1.7-6.5,6.3c0,3.8,2.8,5.1,4.7,5.1c1,0,3.1-0.9,3.1-3.1
					c0-1.5-1.1-2.4-2.3-2.2"/>
			</g>
			<g>
				<path class="st1" d="M3.7,83.7c2.3-3,5.7-3.3,6.7-3.3c2.6,0,7.6,1.6,7.6,6.5c0,4.1-3.1,5.4-5.2,5.4c-1.1,0-3.4-0.9-3.5-3.3
					c0-1.6,1.2-2.6,2.5-2.4"/>
				<path class="st1" d="M15.7,82.2c1.8,1.6,3.2,1.7,4.3,1.7c1.6,0,4.3-1.2,4.3-4.2c0-2.5-1.9-3.3-3.2-3.3c-0.7,0-2.1,0.6-2.1,2
					c0,1,0.7,1.6,1.5,1.4"/>
				<path class="st1" d="M16.8,63.4c2.5-2.7,5.6-3.1,6.5-3.1c2.3,0,6.5,1.7,6.5,6.3c0,3.8-2.8,5.1-4.7,5.1c-1,0-3.1-0.9-3.1-3.1
					c0-1.5,1.1-2.4,2.3-2.2"/>
			</g>
		</g>
		<g>
			<path class="st1" d="M55.7,10.4c-0.5,4.7-1.1,10.5-7.6,14.4c-4.7,2.8-9.4,4.5-10.7,5.2c-2,1.1-8.1,5.1-7.3,13.4"/>
			<path class="st1" d="M54.9,15c0.8,3.5,2.4,7.1,7,9.8c4.7,2.8,9.4,4.5,10.7,5.2c2,1.1,7.9,5.1,7.1,13.4"/>
		</g>
		<g>
			<g>
				<circle class="st1" cx="45.1" cy="36.8" r="1.5"/>
				<circle class="st1" cx="64.9" cy="36.8" r="1.5"/>
			</g>
			<path class="st1" d="M55.1,45.6c-0.1,0.1-0.3,0.1-0.5,0c-0.2-0.1-0.3-0.1-0.6-0.1c-0.7,0-2.3,1.9-3.1,2.1c-0.1,0-0.1,0.1-0.1,0.2
				c0.4,0.6,2.1,2.7,4,2.7h0.1c1.9,0,3.6-2.1,4-2.7c0-0.1,0-0.1-0.1-0.2c-0.9-0.2-2.5-2.1-3.1-2.1C55.5,45.5,55.3,45.5,55.1,45.6z"
				/>
		</g>
		<path class="st1" d="M2.3,97.4L0.5,97c1.4-13.2,7.7-25.6,17.4-34.6c2.2-2,3.4-4.9,3.3-7.9c-0.1-2.4-0.5-4.8-1.2-7.2
			c-1-3.3-1.5-6.8-1.5-10.4c0-20.1,16.3-36.4,36.4-36.3h0.1c20.1,0,36.4,16.2,36.4,36.3c0,3.6-0.5,7.1-1.5,10.4
			c-0.7,2.4-1.1,4.8-1.2,7.2c-0.1,3,1.1,5.9,3.3,7.9c9.6,9,16,21.5,17.4,34.6l-1.8,0.4"/>
	</g>
</g>
</svg>
