<?xml version="1.0" encoding="utf-8"?>
<!-- Generator: Adobe Illustrator 22.0.1, SVG Export Plug-In . SVG Version: 6.00 Build 0)  -->
<svg version="1.1" id="Capa_1" xmlns="http://www.w3.org/2000/svg" xmlns:xlink="http://www.w3.org/1999/xlink" x="0px" y="0px"
	 viewBox="0 0 18.3 20.9" style="enable-background:new 0 0 18.3 20.9;" xml:space="preserve">
<style type="text/css">
	.st0{fill:#609C9F;}
</style>
<g>
	<path class="st0" d="M0.8,10.6c0.4,0,0.8-0.3,0.8-0.8V6.2c0-1,0.8-1.8,1.8-1.8h12.4l-1.5,1.5c-0.3,0.3-0.3,0.8,0,1.1
		c0.1,0.1,0.3,0.2,0.5,0.2c0.2,0,0.4-0.1,0.5-0.2l2.8-2.8c0,0,0-0.1,0.1-0.1c0,0,0.1-0.1,0.1-0.1c0-0.1,0.1-0.2,0.1-0.3
		c0-0.1,0-0.2-0.1-0.3c0,0,0-0.1-0.1-0.1c0,0-0.1-0.1-0.1-0.1l-2.8-2.8C15.1,0.1,14.9,0,14.7,0c-0.2,0-0.4,0.1-0.5,0.2
		c-0.3,0.3-0.3,0.8,0,1.1l1.5,1.5H3.4C1.5,2.8,0,4.3,0,6.2v3.7C0,10.2,0.4,10.6,0.8,10.6z"/>
	<path class="st0" d="M17.5,10.3c-0.4,0-0.8,0.3-0.8,0.8v3.7c0,1-0.8,1.8-1.8,1.8H2.6L4.1,15c0.3-0.3,0.3-0.8,0-1.1
		c-0.1-0.1-0.3-0.2-0.5-0.2c-0.2,0-0.4,0.1-0.5,0.2l-2.8,2.8c0,0,0,0.1-0.1,0.1c0,0-0.1,0.1-0.1,0.1C0,17.1,0,17.2,0,17.3
		c0,0.1,0,0.2,0.1,0.3c0,0.1,0.1,0.2,0.1,0.2c0,0,0,0,0,0L3,20.7c0.1,0.1,0.3,0.2,0.5,0.2c0.2,0,0.4-0.1,0.5-0.2
		c0.3-0.3,0.3-0.8,0-1.1l-1.5-1.5H15c1.8,0,3.3-1.5,3.3-3.3V11C18.3,10.6,18,10.3,17.5,10.3z"/>
</g>
</svg>
