<?xml version="1.0" encoding="utf-8"?>
<!-- Generator: Adobe Illustrator 22.0.1, SVG Export Plug-In . SVG Version: 6.00 Build 0)  -->
<svg version="1.1" id="Слой_1" xmlns="http://www.w3.org/2000/svg" xmlns:xlink="http://www.w3.org/1999/xlink" x="0px" y="0px"
	 viewBox="0 0 22.1 27" style="enable-background:new 0 0 22.1 27;" xml:space="preserve">
<style type="text/css">
	.st0{fill:#041936;}
</style>
<path class="st0" d="M22.1,26.1l-5.9-8.5c4-3.2,4.9-9.1,1.9-13.4c-0.5-0.7-1.1-1.4-1.8-2l0,0C14.4,0.8,12.1,0,9.9,0
	c-2,0-4,0.6-5.7,1.8C0.6,4.3-0.9,9,0.6,13.2l0,0c1.4,4,5.1,6.6,9.3,6.6c0,0,0,0,0,0c0,0,0,0,0,0c1.7,0,3.4-0.5,4.9-1.3l5.9,8.5
	L22.1,26.1z M9.9,18.2c-3.5,0-6.7-2.2-7.8-5.5l0-0.1C0.9,9.1,2.1,5.2,5.1,3.1c1.4-1,3.1-1.5,4.8-1.5c1.9,0,3.8,0.7,5.3,1.9l0.2,0.1
	c0.5,0.4,1,1,1.4,1.5c2.6,3.8,1.7,9-2,11.6C13.3,17.7,11.6,18.2,9.9,18.2z"/>
</svg>
