<?xml version="1.0" encoding="utf-8"?>
<!-- Generator: Adobe Illustrator 22.0.1, SVG Export Plug-In . SVG Version: 6.00 Build 0)  -->
<svg version="1.1" id="Слой_1" xmlns="http://www.w3.org/2000/svg" xmlns:xlink="http://www.w3.org/1999/xlink" x="0px" y="0px"
	 viewBox="0 0 28.9 11" style="enable-background:new 0 0 28.9 11;" xml:space="preserve">
<style type="text/css">
	.st0{fill:#609C9F;}
	.st1{fill:none;stroke:#609C9F;stroke-miterlimit:10;}
</style>
<g>
	<path class="st0" d="M27.9,1v9H1V1H27.9 M28.9,0H0v11h28.9V0L28.9,0z"/>
</g>
<g>
	<line class="st1" x1="2.5" y1="0.3" x2="2.5" y2="5"/>
	<line class="st1" x1="4.5" y1="0.3" x2="4.5" y2="3"/>
	<line class="st1" x1="6.5" y1="0.3" x2="6.5" y2="5"/>
	<line class="st1" x1="8.5" y1="0.3" x2="8.5" y2="3"/>
	<line class="st1" x1="10.5" y1="0.3" x2="10.5" y2="5"/>
	<line class="st1" x1="12.4" y1="0.3" x2="12.4" y2="3"/>
	<line class="st1" x1="14.4" y1="0.3" x2="14.4" y2="5"/>
	<line class="st1" x1="16.4" y1="0.3" x2="16.4" y2="3"/>
	<line class="st1" x1="18.4" y1="0.3" x2="18.4" y2="5"/>
	<line class="st1" x1="20.4" y1="0.3" x2="20.4" y2="3"/>
	<line class="st1" x1="22.4" y1="0.3" x2="22.4" y2="5"/>
	<line class="st1" x1="24.4" y1="0.3" x2="24.4" y2="3"/>
	<line class="st1" x1="24.4" y1="0.3" x2="24.4" y2="3"/>
	<line class="st1" x1="26.4" y1="0.3" x2="26.4" y2="5"/>
</g>
</svg>
