<svg xmlns="http://www.w3.org/2000/svg" xmlns:xlink="http://www.w3.org/1999/xlink"><symbol id="arrow" viewBox="0 0 490 490"><path d="M237.343 31.931V490h15.314V31.931l137.994 157.151 11.516-10.11L245 0 87.833 178.972l11.516 10.11z"/></symbol><symbol id="cart" viewBox="0 0 39.074 31.484"><g transform="translate(-203.682 -95.633)" fill="none" stroke-width="1.323"><path d="M203.682 96.295h4.866c1.871 0 4.914 6.094 4.914 6.094" stroke="#73a8ab"/><path d="M242.094 103.57c.047 2.552-3.78 15.072-3.78 15.072h-20.883l-3.969-16.253h27.309s1.276.19 1.323 1.182z" stroke="#0b1e3a" stroke-opacity=".985"/><circle r="1.85" cy="124.603" cx="220.519" stroke="#0b1e3a" stroke-linecap="round" stroke-linejoin="round" stroke-opacity=".985"/><circle r="1.85" cy="124.605" cx="235.29" stroke="#0b1e3a" stroke-linecap="round" stroke-linejoin="round" stroke-opacity=".985"/></g></symbol><symbol id="compare" viewBox="0 0 27.248 30.77"><g fill="none" stroke-width="1.323"><path d="M.661 6.048V30.77" stroke="#041936" stroke-opacity=".995"/><path d="M9.28 14.741V30.77M26.587 6.048V30.77" stroke="#041936"/><path d="M17.867 30.77V0" stroke="#609c9f"/></g></symbol><symbol id="facebook" viewBox="0 0 512 512"><path d="M288 176v-64c0-17.664 14.336-32 32-32h32V0h-64c-53.024 0-96 42.976-96 96v80h-64v80h64v256h96V256h64l32-80h-96z"/></symbol><symbol id="favorite" viewBox="0 0 34.018 28.75"><g fill="none" stroke-width="1.323"><path d="M25.986.661c-4.843 0-8.776 4.158-8.776 4.158S14.481.71 9.26.71C8.315.709.661.66.661 9.426c0 10.82 16.55 18.592 16.55 18.592s16.145-7.796 16.145-17.576" stroke="#041336"/><path d="M25.986.661c.515 0 7.37 0 7.37 9.78" stroke="#71a7aa"/></g></symbol><symbol id="geotag"><g transform="translate(-1.067 -1.064)" fill="none" stroke="#000" stroke-width="1.134"><path d="M10.003 1.631c4.492 0 8.171 2.449 8.171 8.075 0 7.374-8.171 13.785-8.171 13.785S1.634 16.925 1.634 9.767c0-5.626 3.877-8.136 8.369-8.136z"/><circle r="2.377" cy="9.742" cx="10.025"/></g></symbol><symbol id="instagram" viewBox="0 0 24 24"><path d="M12.004 5.838a6.157 6.157 0 00-6.158 6.158 6.157 6.157 0 006.158 6.158 6.157 6.157 0 006.158-6.158 6.157 6.157 0 00-6.158-6.158zm0 10.155a3.996 3.996 0 113.997-3.997 3.995 3.995 0 01-3.997 3.997z"/><path d="M16.948.076c-2.208-.103-7.677-.098-9.887 0-1.942.091-3.655.56-5.036 1.941C-.283 4.325.012 7.435.012 11.996c0 4.668-.26 7.706 2.013 9.979 2.317 2.316 5.472 2.013 9.979 2.013 4.624 0 6.22.003 7.855-.63 2.223-.863 3.901-2.85 4.065-6.419.104-2.209.098-7.677 0-9.887-.198-4.213-2.459-6.768-6.976-6.976zm3.495 20.372c-1.513 1.513-3.612 1.378-8.468 1.378-5 0-7.005.074-8.468-1.393-1.685-1.677-1.38-4.37-1.38-8.453 0-5.525-.567-9.504 4.978-9.788 1.274-.045 1.649-.06 4.856-.06l.045.03c5.329 0 9.51-.558 9.761 4.986.057 1.265.07 1.645.07 4.847-.001 4.942.093 6.959-1.394 8.453z"/><circle cx="18.406" cy="5.595" r="1.439"/></symbol><symbol id="odnoklassniki" viewBox="0 0 24 24"><path d="M4.721 12.881c-.613 1.205.083 1.781 1.671 2.765 1.35.834 3.215 1.139 4.413 1.261l-4.721 4.541c-1.374 1.317.838 3.43 2.211 2.141l3.717-3.585c1.423 1.369 2.787 2.681 3.717 3.59 1.374 1.294 3.585-.801 2.226-2.141-.102-.097-5.037-4.831-4.736-4.541 1.213-.122 3.05-.445 4.384-1.261l-.001-.001c1.588-.989 2.284-1.564 1.68-2.769-.365-.684-1.349-1.256-2.659-.267 0 0-1.769 1.355-4.622 1.355-2.854 0-4.622-1.355-4.622-1.355-1.309-.994-2.297-.417-2.658.267z"/><path d="M11.999 12.142c3.478 0 6.318-2.718 6.318-6.064 0-3.36-2.84-6.078-6.318-6.078C8.52 0 5.68 2.718 5.68 6.078c0 3.346 2.84 6.064 6.319 6.064zm0-9.063c1.709 0 3.103 1.341 3.103 2.999 0 1.644-1.394 2.985-3.103 2.985S8.896 7.722 8.896 6.078c-.001-1.659 1.393-2.999 3.103-2.999z"/></symbol><symbol id="search"><path d="M15.853 16.56A9.458 9.458 0 019.5 19C4.257 19 0 14.743 0 9.5S4.257 0 9.5 0 19 4.257 19 9.5c0 2.442-.923 4.67-2.44 6.353l7.44 7.44-.707.707-7.44-7.44zM9.5 1C14.191 1 18 4.809 18 9.5S14.191 18 9.5 18 1 14.191 1 9.5 4.809 1 9.5 1z"/></symbol><symbol id="sprite"><symbol id="arrow" viewBox="0 0 490 490"><path d="M237.343 31.931V490h15.314V31.931l137.994 157.151 11.516-10.11L245 0 87.833 178.972l11.516 10.11z"/></symbol><symbol id="cart" viewBox="0 0 39.074 31.484"><g transform="translate(-203.682 -95.633)" fill="none" stroke-width="1.323"><path d="M203.682 96.295h4.866c1.871 0 4.914 6.094 4.914 6.094" stroke="#73a8ab"/><path d="M242.094 103.57c.047 2.552-3.78 15.072-3.78 15.072h-20.883l-3.969-16.253h27.309s1.276.19 1.323 1.182z" stroke="#0b1e3a" stroke-opacity=".985"/><circle r="1.85" cy="124.603" cx="220.519" stroke="#0b1e3a" stroke-linecap="round" stroke-linejoin="round" stroke-opacity=".985"/><circle r="1.85" cy="124.605" cx="235.29" stroke="#0b1e3a" stroke-linecap="round" stroke-linejoin="round" stroke-opacity=".985"/></g></symbol><symbol id="compare" viewBox="0 0 27.248 30.77"><g fill="none" stroke-width="1.323"><path d="M.661 6.048V30.77" stroke="#041936" stroke-opacity=".995"/><path d="M9.28 14.741V30.77M26.587 6.048V30.77" stroke="#041936"/><path d="M17.867 30.77V0" stroke="#609c9f"/></g></symbol><symbol id="facebook" viewBox="0 0 512 512"><path d="M288 176v-64c0-17.664 14.336-32 32-32h32V0h-64c-53.024 0-96 42.976-96 96v80h-64v80h64v256h96V256h64l32-80h-96z"/></symbol><symbol id="favorite" viewBox="0 0 34.018 28.75"><g fill="none" stroke-width="1.323"><path d="M25.986.661c-4.843 0-8.776 4.158-8.776 4.158S14.481.71 9.26.71C8.315.709.661.66.661 9.426c0 10.82 16.55 18.592 16.55 18.592s16.145-7.796 16.145-17.576" stroke="#041336"/><path d="M25.986.661c.515 0 7.37 0 7.37 9.78" stroke="#71a7aa"/></g></symbol><symbol id="geotag"><g transform="translate(-1.067 -1.064)" fill="none" stroke="#000" stroke-width="1.134"><path d="M10.003 1.631c4.492 0 8.171 2.449 8.171 8.075 0 7.374-8.171 13.785-8.171 13.785S1.634 16.925 1.634 9.767c0-5.626 3.877-8.136 8.369-8.136z"/><circle r="2.377" cy="9.742" cx="10.025"/></g></symbol><symbol id="instagram" viewBox="0 0 24 24"><path d="M12.004 5.838a6.157 6.157 0 00-6.158 6.158 6.157 6.157 0 006.158 6.158 6.157 6.157 0 006.158-6.158 6.157 6.157 0 00-6.158-6.158zm0 10.155a3.996 3.996 0 113.997-3.997 3.995 3.995 0 01-3.997 3.997z"/><path d="M16.948.076c-2.208-.103-7.677-.098-9.887 0-1.942.091-3.655.56-5.036 1.941C-.283 4.325.012 7.435.012 11.996c0 4.668-.26 7.706 2.013 9.979 2.317 2.316 5.472 2.013 9.979 2.013 4.624 0 6.22.003 7.855-.63 2.223-.863 3.901-2.85 4.065-6.419.104-2.209.098-7.677 0-9.887-.198-4.213-2.459-6.768-6.976-6.976zm3.495 20.372c-1.513 1.513-3.612 1.378-8.468 1.378-5 0-7.005.074-8.468-1.393-1.685-1.677-1.38-4.37-1.38-8.453 0-5.525-.567-9.504 4.978-9.788 1.274-.045 1.649-.06 4.856-.06l.045.03c5.329 0 9.51-.558 9.761 4.986.057 1.265.07 1.645.07 4.847-.001 4.942.093 6.959-1.394 8.453z"/><circle cx="18.406" cy="5.595" r="1.439"/></symbol><symbol id="odnoklassniki" viewBox="0 0 24 24"><path d="M4.721 12.881c-.613 1.205.083 1.781 1.671 2.765 1.35.834 3.215 1.139 4.413 1.261l-4.721 4.541c-1.374 1.317.838 3.43 2.211 2.141l3.717-3.585c1.423 1.369 2.787 2.681 3.717 3.59 1.374 1.294 3.585-.801 2.226-2.141-.102-.097-5.037-4.831-4.736-4.541 1.213-.122 3.05-.445 4.384-1.261l-.001-.001c1.588-.989 2.284-1.564 1.68-2.769-.365-.684-1.349-1.256-2.659-.267 0 0-1.769 1.355-4.622 1.355-2.854 0-4.622-1.355-4.622-1.355-1.309-.994-2.297-.417-2.658.267z"/><path d="M11.999 12.142c3.478 0 6.318-2.718 6.318-6.064 0-3.36-2.84-6.078-6.318-6.078C8.52 0 5.68 2.718 5.68 6.078c0 3.346 2.84 6.064 6.319 6.064zm0-9.063c1.709 0 3.103 1.341 3.103 2.999 0 1.644-1.394 2.985-3.103 2.985S8.896 7.722 8.896 6.078c-.001-1.659 1.393-2.999 3.103-2.999z"/></symbol><symbol id="search"><path d="M15.853 16.56A9.458 9.458 0 019.5 19C4.257 19 0 14.743 0 9.5S4.257 0 9.5 0 19 4.257 19 9.5c0 2.442-.923 4.67-2.44 6.353l7.44 7.44-.707.707-7.44-7.44zM9.5 1C14.191 1 18 4.809 18 9.5S14.191 18 9.5 18 1 14.191 1 9.5 4.809 1 9.5 1z"/></symbol><symbol id="sprite"><symbol id="arrow" viewBox="0 0 490 490"><path d="M237.343 31.931V490h15.314V31.931l137.994 157.151 11.516-10.11L245 0 87.833 178.972l11.516 10.11z"/></symbol><symbol id="cart" viewBox="0 0 39.074 31.484"><g transform="translate(-203.682 -95.633)" fill="none" stroke-width="1.323"><path d="M203.682 96.295h4.866c1.871 0 4.914 6.094 4.914 6.094" stroke="#73a8ab"/><path d="M242.094 103.57c.047 2.552-3.78 15.072-3.78 15.072h-20.883l-3.969-16.253h27.309s1.276.19 1.323 1.182z" stroke="#0b1e3a" stroke-opacity=".985"/><circle r="1.85" cy="124.603" cx="220.519" stroke="#0b1e3a" stroke-linecap="round" stroke-linejoin="round" stroke-opacity=".985"/><circle r="1.85" cy="124.605" cx="235.29" stroke="#0b1e3a" stroke-linecap="round" stroke-linejoin="round" stroke-opacity=".985"/></g></symbol><symbol id="compare" viewBox="0 0 27.248 30.77"><g fill="none" stroke-width="1.323"><path d="M.661 6.048V30.77" stroke="#041936" stroke-opacity=".995"/><path d="M9.28 14.741V30.77M26.587 6.048V30.77" stroke="#041936"/><path d="M17.867 30.77V0" stroke="#609c9f"/></g></symbol><symbol id="facebook" viewBox="0 0 512 512"><path d="M288 176v-64c0-17.664 14.336-32 32-32h32V0h-64c-53.024 0-96 42.976-96 96v80h-64v80h64v256h96V256h64l32-80h-96z"/></symbol><symbol id="favorite" viewBox="0 0 34.018 28.75"><g fill="none" stroke-width="1.323"><path d="M25.986.661c-4.843 0-8.776 4.158-8.776 4.158S14.481.71 9.26.71C8.315.709.661.66.661 9.426c0 10.82 16.55 18.592 16.55 18.592s16.145-7.796 16.145-17.576" stroke="#041336"/><path d="M25.986.661c.515 0 7.37 0 7.37 9.78" stroke="#71a7aa"/></g></symbol><symbol id="geotag"><g transform="translate(-1.067 -1.064)" fill="none" stroke="#000" stroke-width="1.134"><path d="M10.003 1.631c4.492 0 8.171 2.449 8.171 8.075 0 7.374-8.171 13.785-8.171 13.785S1.634 16.925 1.634 9.767c0-5.626 3.877-8.136 8.369-8.136z"/><circle r="2.377" cy="9.742" cx="10.025"/></g></symbol><symbol id="instagram" viewBox="0 0 24 24"><path d="M12.004 5.838a6.157 6.157 0 00-6.158 6.158 6.157 6.157 0 006.158 6.158 6.157 6.157 0 006.158-6.158 6.157 6.157 0 00-6.158-6.158zm0 10.155a3.996 3.996 0 113.997-3.997 3.995 3.995 0 01-3.997 3.997z"/><path d="M16.948.076c-2.208-.103-7.677-.098-9.887 0-1.942.091-3.655.56-5.036 1.941C-.283 4.325.012 7.435.012 11.996c0 4.668-.26 7.706 2.013 9.979 2.317 2.316 5.472 2.013 9.979 2.013 4.624 0 6.22.003 7.855-.63 2.223-.863 3.901-2.85 4.065-6.419.104-2.209.098-7.677 0-9.887-.198-4.213-2.459-6.768-6.976-6.976zm3.495 20.372c-1.513 1.513-3.612 1.378-8.468 1.378-5 0-7.005.074-8.468-1.393-1.685-1.677-1.38-4.37-1.38-8.453 0-5.525-.567-9.504 4.978-9.788 1.274-.045 1.649-.06 4.856-.06l.045.03c5.329 0 9.51-.558 9.761 4.986.057 1.265.07 1.645.07 4.847-.001 4.942.093 6.959-1.394 8.453z"/><circle cx="18.406" cy="5.595" r="1.439"/></symbol><symbol id="odnoklassniki" viewBox="0 0 24 24"><path d="M4.721 12.881c-.613 1.205.083 1.781 1.671 2.765 1.35.834 3.215 1.139 4.413 1.261l-4.721 4.541c-1.374 1.317.838 3.43 2.211 2.141l3.717-3.585c1.423 1.369 2.787 2.681 3.717 3.59 1.374 1.294 3.585-.801 2.226-2.141-.102-.097-5.037-4.831-4.736-4.541 1.213-.122 3.05-.445 4.384-1.261l-.001-.001c1.588-.989 2.284-1.564 1.68-2.769-.365-.684-1.349-1.256-2.659-.267 0 0-1.769 1.355-4.622 1.355-2.854 0-4.622-1.355-4.622-1.355-1.309-.994-2.297-.417-2.658.267z"/><path d="M11.999 12.142c3.478 0 6.318-2.718 6.318-6.064 0-3.36-2.84-6.078-6.318-6.078C8.52 0 5.68 2.718 5.68 6.078c0 3.346 2.84 6.064 6.319 6.064zm0-9.063c1.709 0 3.103 1.341 3.103 2.999 0 1.644-1.394 2.985-3.103 2.985S8.896 7.722 8.896 6.078c-.001-1.659 1.393-2.999 3.103-2.999z"/></symbol><symbol id="search"><path d="M15.853 16.56A9.458 9.458 0 019.5 19C4.257 19 0 14.743 0 9.5S4.257 0 9.5 0 19 4.257 19 9.5c0 2.442-.923 4.67-2.44 6.353l7.44 7.44-.707.707-7.44-7.44zM9.5 1C14.191 1 18 4.809 18 9.5S14.191 18 9.5 18 1 14.191 1 9.5 4.809 1 9.5 1z"/></symbol><symbol id="sprite"><symbol id="arrow" viewBox="0 0 490 490"><path d="M237.343 31.931V490h15.314V31.931l137.994 157.151 11.516-10.11L245 0 87.833 178.972l11.516 10.11z"/></symbol><symbol id="cart" viewBox="0 0 39.074 31.484"><g transform="translate(-203.682 -95.633)" fill="none" stroke-width="1.323"><path d="M203.682 96.295h4.866c1.871 0 4.914 6.094 4.914 6.094" stroke="#73a8ab"/><path d="M242.094 103.57c.047 2.552-3.78 15.072-3.78 15.072h-20.883l-3.969-16.253h27.309s1.276.19 1.323 1.182z" stroke="#0b1e3a" stroke-opacity=".985"/><circle r="1.85" cy="124.603" cx="220.519" stroke="#0b1e3a" stroke-linecap="round" stroke-linejoin="round" stroke-opacity=".985"/><circle r="1.85" cy="124.605" cx="235.29" stroke="#0b1e3a" stroke-linecap="round" stroke-linejoin="round" stroke-opacity=".985"/></g></symbol><symbol id="compare" viewBox="0 0 27.248 30.77"><g fill="none" stroke-width="1.323"><path d="M.661 6.048V30.77" stroke="#041936" stroke-opacity=".995"/><path d="M9.28 14.741V30.77M26.587 6.048V30.77" stroke="#041936"/><path d="M17.867 30.77V0" stroke="#609c9f"/></g></symbol><symbol id="facebook" viewBox="0 0 512 512"><path d="M288 176v-64c0-17.664 14.336-32 32-32h32V0h-64c-53.024 0-96 42.976-96 96v80h-64v80h64v256h96V256h64l32-80h-96z"/></symbol><symbol id="favorite" viewBox="0 0 34.018 28.75"><g fill="none" stroke-width="1.323"><path d="M25.986.661c-4.843 0-8.776 4.158-8.776 4.158S14.481.71 9.26.71C8.315.709.661.66.661 9.426c0 10.82 16.55 18.592 16.55 18.592s16.145-7.796 16.145-17.576" stroke="#041336"/><path d="M25.986.661c.515 0 7.37 0 7.37 9.78" stroke="#71a7aa"/></g></symbol><symbol id="geotag"><g transform="translate(-1.067 -1.064)" fill="none" stroke="#000" stroke-width="1.134"><path d="M10.003 1.631c4.492 0 8.171 2.449 8.171 8.075 0 7.374-8.171 13.785-8.171 13.785S1.634 16.925 1.634 9.767c0-5.626 3.877-8.136 8.369-8.136z"/><circle r="2.377" cy="9.742" cx="10.025"/></g></symbol><symbol id="instagram" viewBox="0 0 24 24"><path d="M12.004 5.838a6.157 6.157 0 00-6.158 6.158 6.157 6.157 0 006.158 6.158 6.157 6.157 0 006.158-6.158 6.157 6.157 0 00-6.158-6.158zm0 10.155a3.996 3.996 0 113.997-3.997 3.995 3.995 0 01-3.997 3.997z"/><path d="M16.948.076c-2.208-.103-7.677-.098-9.887 0-1.942.091-3.655.56-5.036 1.941C-.283 4.325.012 7.435.012 11.996c0 4.668-.26 7.706 2.013 9.979 2.317 2.316 5.472 2.013 9.979 2.013 4.624 0 6.22.003 7.855-.63 2.223-.863 3.901-2.85 4.065-6.419.104-2.209.098-7.677 0-9.887-.198-4.213-2.459-6.768-6.976-6.976zm3.495 20.372c-1.513 1.513-3.612 1.378-8.468 1.378-5 0-7.005.074-8.468-1.393-1.685-1.677-1.38-4.37-1.38-8.453 0-5.525-.567-9.504 4.978-9.788 1.274-.045 1.649-.06 4.856-.06l.045.03c5.329 0 9.51-.558 9.761 4.986.057 1.265.07 1.645.07 4.847-.001 4.942.093 6.959-1.394 8.453z"/><circle cx="18.406" cy="5.595" r="1.439"/></symbol><symbol id="odnoklassniki" viewBox="0 0 24 24"><path d="M4.721 12.881c-.613 1.205.083 1.781 1.671 2.765 1.35.834 3.215 1.139 4.413 1.261l-4.721 4.541c-1.374 1.317.838 3.43 2.211 2.141l3.717-3.585c1.423 1.369 2.787 2.681 3.717 3.59 1.374 1.294 3.585-.801 2.226-2.141-.102-.097-5.037-4.831-4.736-4.541 1.213-.122 3.05-.445 4.384-1.261l-.001-.001c1.588-.989 2.284-1.564 1.68-2.769-.365-.684-1.349-1.256-2.659-.267 0 0-1.769 1.355-4.622 1.355-2.854 0-4.622-1.355-4.622-1.355-1.309-.994-2.297-.417-2.658.267z"/><path d="M11.999 12.142c3.478 0 6.318-2.718 6.318-6.064 0-3.36-2.84-6.078-6.318-6.078C8.52 0 5.68 2.718 5.68 6.078c0 3.346 2.84 6.064 6.319 6.064zm0-9.063c1.709 0 3.103 1.341 3.103 2.999 0 1.644-1.394 2.985-3.103 2.985S8.896 7.722 8.896 6.078c-.001-1.659 1.393-2.999 3.103-2.999z"/></symbol><symbol id="search"><path d="M15.853 16.56A9.458 9.458 0 019.5 19C4.257 19 0 14.743 0 9.5S4.257 0 9.5 0 19 4.257 19 9.5c0 2.442-.923 4.67-2.44 6.353l7.44 7.44-.707.707-7.44-7.44zM9.5 1C14.191 1 18 4.809 18 9.5S14.191 18 9.5 18 1 14.191 1 9.5 4.809 1 9.5 1z"/></symbol><symbol id="user" viewBox="0 0 29.536 32.298"><g fill="none" stroke-width="1.323"><path d="M.665 31.628s3.969-9.638 14.269-9.638 13.938 9.638 13.938 9.638" stroke="#609c9f" stroke-linecap="round" stroke-linejoin="round"/><path d="M25.83 11.397a10.735 10.735 0 01-10.736 10.735A10.735 10.735 0 014.36 11.397 10.735 10.735 0 0115.094.66 10.735 10.735 0 0125.83 11.397z" stroke="#041936"/></g></symbol><symbol id="vk" viewBox="0 0 511.962 511.962"><path d="M507.399 370.471c-1.376-2.304-9.888-20.8-50.848-58.816-42.88-39.808-37.12-33.344 14.528-102.176 31.456-41.92 44.032-67.52 40.096-78.464-3.744-10.432-26.88-7.68-26.88-7.68l-76.928.448s-5.696-.768-9.952 1.76c-4.128 2.496-6.784 8.256-6.784 8.256s-12.192 32.448-28.448 60.032c-34.272 58.208-48 61.28-53.6 57.664-13.024-8.416-9.76-33.856-9.76-51.904 0-56.416 8.544-79.936-16.672-86.016-8.384-2.016-14.528-3.36-35.936-3.584-27.456-.288-50.72.096-63.872 6.528-8.768 4.288-15.52 13.856-11.392 14.4 5.088.672 16.608 3.104 22.72 11.424 7.904 10.72 7.616 34.848 7.616 34.848s4.544 66.4-10.592 74.656c-10.4 5.664-24.64-5.888-55.2-58.72-15.648-27.04-27.488-56.96-27.488-56.96s-2.272-5.568-6.336-8.544c-4.928-3.616-11.84-4.768-11.84-4.768l-73.152.448s-10.976.32-15.008 5.088c-3.584 4.256-.288 13.024-.288 13.024s57.28 133.984 122.112 201.536c59.488 61.92 127.008 57.856 127.008 57.856h30.592s9.248-1.024 13.952-6.112c4.352-4.672 4.192-13.44 4.192-13.44s-.608-41.056 18.464-47.104c18.784-5.952 42.912 39.68 68.48 57.248 19.328 13.28 34.016 10.368 34.016 10.368l68.384-.96s35.776-2.208 18.816-30.336z"/></symbol><symbol id="youtube" viewBox="0 0 512 512"><path d="M490.24 113.92c-13.888-24.704-28.96-29.248-59.648-30.976C399.936 80.864 322.848 80 256.064 80c-66.912 0-144.032.864-174.656 2.912-30.624 1.76-45.728 6.272-59.744 31.008C7.36 138.592 0 181.088 0 255.904v.256c0 74.496 7.36 117.312 21.664 141.728 14.016 24.704 29.088 29.184 59.712 31.264C112.032 430.944 189.152 432 256.064 432c66.784 0 143.872-1.056 174.56-2.816 30.688-2.08 45.76-6.56 59.648-31.264C504.704 373.504 512 330.688 512 256.192v-.256c0-74.848-7.296-117.344-21.76-142.016zM192 352V160l160 96-160 96z"/></symbol></symbol><symbol id="user" viewBox="0 0 29.536 32.298"><g fill="none" stroke-width="1.323"><path d="M.665 31.628s3.969-9.638 14.269-9.638 13.938 9.638 13.938 9.638" stroke="#609c9f" stroke-linecap="round" stroke-linejoin="round"/><path d="M25.83 11.397a10.735 10.735 0 01-10.736 10.735A10.735 10.735 0 014.36 11.397 10.735 10.735 0 0115.094.66 10.735 10.735 0 0125.83 11.397z" stroke="#041936"/></g></symbol><symbol id="vk" viewBox="0 0 511.962 511.962"><path d="M507.399 370.471c-1.376-2.304-9.888-20.8-50.848-58.816-42.88-39.808-37.12-33.344 14.528-102.176 31.456-41.92 44.032-67.52 40.096-78.464-3.744-10.432-26.88-7.68-26.88-7.68l-76.928.448s-5.696-.768-9.952 1.76c-4.128 2.496-6.784 8.256-6.784 8.256s-12.192 32.448-28.448 60.032c-34.272 58.208-48 61.28-53.6 57.664-13.024-8.416-9.76-33.856-9.76-51.904 0-56.416 8.544-79.936-16.672-86.016-8.384-2.016-14.528-3.36-35.936-3.584-27.456-.288-50.72.096-63.872 6.528-8.768 4.288-15.52 13.856-11.392 14.4 5.088.672 16.608 3.104 22.72 11.424 7.904 10.72 7.616 34.848 7.616 34.848s4.544 66.4-10.592 74.656c-10.4 5.664-24.64-5.888-55.2-58.72-15.648-27.04-27.488-56.96-27.488-56.96s-2.272-5.568-6.336-8.544c-4.928-3.616-11.84-4.768-11.84-4.768l-73.152.448s-10.976.32-15.008 5.088c-3.584 4.256-.288 13.024-.288 13.024s57.28 133.984 122.112 201.536c59.488 61.92 127.008 57.856 127.008 57.856h30.592s9.248-1.024 13.952-6.112c4.352-4.672 4.192-13.44 4.192-13.44s-.608-41.056 18.464-47.104c18.784-5.952 42.912 39.68 68.48 57.248 19.328 13.28 34.016 10.368 34.016 10.368l68.384-.96s35.776-2.208 18.816-30.336z"/></symbol><symbol id="youtube" viewBox="0 0 512 512"><path d="M490.24 113.92c-13.888-24.704-28.96-29.248-59.648-30.976C399.936 80.864 322.848 80 256.064 80c-66.912 0-144.032.864-174.656 2.912-30.624 1.76-45.728 6.272-59.744 31.008C7.36 138.592 0 181.088 0 255.904v.256c0 74.496 7.36 117.312 21.664 141.728 14.016 24.704 29.088 29.184 59.712 31.264C112.032 430.944 189.152 432 256.064 432c66.784 0 143.872-1.056 174.56-2.816 30.688-2.08 45.76-6.56 59.648-31.264C504.704 373.504 512 330.688 512 256.192v-.256c0-74.848-7.296-117.344-21.76-142.016zM192 352V160l160 96-160 96z"/></symbol></symbol><symbol id="user" viewBox="0 0 29.536 32.298"><g fill="none" stroke-width="1.323"><path d="M.665 31.628s3.969-9.638 14.269-9.638 13.938 9.638 13.938 9.638" stroke="#609c9f" stroke-linecap="round" stroke-linejoin="round"/><path d="M25.83 11.397a10.735 10.735 0 01-10.736 10.735A10.735 10.735 0 014.36 11.397 10.735 10.735 0 0115.094.66 10.735 10.735 0 0125.83 11.397z" stroke="#041936"/></g></symbol><symbol id="vk" viewBox="0 0 511.962 511.962"><path d="M507.399 370.471c-1.376-2.304-9.888-20.8-50.848-58.816-42.88-39.808-37.12-33.344 14.528-102.176 31.456-41.92 44.032-67.52 40.096-78.464-3.744-10.432-26.88-7.68-26.88-7.68l-76.928.448s-5.696-.768-9.952 1.76c-4.128 2.496-6.784 8.256-6.784 8.256s-12.192 32.448-28.448 60.032c-34.272 58.208-48 61.28-53.6 57.664-13.024-8.416-9.76-33.856-9.76-51.904 0-56.416 8.544-79.936-16.672-86.016-8.384-2.016-14.528-3.36-35.936-3.584-27.456-.288-50.72.096-63.872 6.528-8.768 4.288-15.52 13.856-11.392 14.4 5.088.672 16.608 3.104 22.72 11.424 7.904 10.72 7.616 34.848 7.616 34.848s4.544 66.4-10.592 74.656c-10.4 5.664-24.64-5.888-55.2-58.72-15.648-27.04-27.488-56.96-27.488-56.96s-2.272-5.568-6.336-8.544c-4.928-3.616-11.84-4.768-11.84-4.768l-73.152.448s-10.976.32-15.008 5.088c-3.584 4.256-.288 13.024-.288 13.024s57.28 133.984 122.112 201.536c59.488 61.92 127.008 57.856 127.008 57.856h30.592s9.248-1.024 13.952-6.112c4.352-4.672 4.192-13.44 4.192-13.44s-.608-41.056 18.464-47.104c18.784-5.952 42.912 39.68 68.48 57.248 19.328 13.28 34.016 10.368 34.016 10.368l68.384-.96s35.776-2.208 18.816-30.336z"/></symbol><symbol id="youtube" viewBox="0 0 512 512"><path d="M490.24 113.92c-13.888-24.704-28.96-29.248-59.648-30.976C399.936 80.864 322.848 80 256.064 80c-66.912 0-144.032.864-174.656 2.912-30.624 1.76-45.728 6.272-59.744 31.008C7.36 138.592 0 181.088 0 255.904v.256c0 74.496 7.36 117.312 21.664 141.728 14.016 24.704 29.088 29.184 59.712 31.264C112.032 430.944 189.152 432 256.064 432c66.784 0 143.872-1.056 174.56-2.816 30.688-2.08 45.76-6.56 59.648-31.264C504.704 373.504 512 330.688 512 256.192v-.256c0-74.848-7.296-117.344-21.76-142.016zM192 352V160l160 96-160 96z"/></symbol></symbol><symbol id="user" viewBox="0 0 29.536 32.298"><g fill="none" stroke-width="1.323"><path d="M.665 31.628s3.969-9.638 14.269-9.638 13.938 9.638 13.938 9.638" stroke="#609c9f" stroke-linecap="round" stroke-linejoin="round"/><path d="M25.83 11.397a10.735 10.735 0 01-10.736 10.735A10.735 10.735 0 014.36 11.397 10.735 10.735 0 0115.094.66 10.735 10.735 0 0125.83 11.397z" stroke="#041936"/></g></symbol><symbol id="vk" viewBox="0 0 511.962 511.962"><path d="M507.399 370.471c-1.376-2.304-9.888-20.8-50.848-58.816-42.88-39.808-37.12-33.344 14.528-102.176 31.456-41.92 44.032-67.52 40.096-78.464-3.744-10.432-26.88-7.68-26.88-7.68l-76.928.448s-5.696-.768-9.952 1.76c-4.128 2.496-6.784 8.256-6.784 8.256s-12.192 32.448-28.448 60.032c-34.272 58.208-48 61.28-53.6 57.664-13.024-8.416-9.76-33.856-9.76-51.904 0-56.416 8.544-79.936-16.672-86.016-8.384-2.016-14.528-3.36-35.936-3.584-27.456-.288-50.72.096-63.872 6.528-8.768 4.288-15.52 13.856-11.392 14.4 5.088.672 16.608 3.104 22.72 11.424 7.904 10.72 7.616 34.848 7.616 34.848s4.544 66.4-10.592 74.656c-10.4 5.664-24.64-5.888-55.2-58.72-15.648-27.04-27.488-56.96-27.488-56.96s-2.272-5.568-6.336-8.544c-4.928-3.616-11.84-4.768-11.84-4.768l-73.152.448s-10.976.32-15.008 5.088c-3.584 4.256-.288 13.024-.288 13.024s57.28 133.984 122.112 201.536c59.488 61.92 127.008 57.856 127.008 57.856h30.592s9.248-1.024 13.952-6.112c4.352-4.672 4.192-13.44 4.192-13.44s-.608-41.056 18.464-47.104c18.784-5.952 42.912 39.68 68.48 57.248 19.328 13.28 34.016 10.368 34.016 10.368l68.384-.96s35.776-2.208 18.816-30.336z"/></symbol><symbol id="youtube" viewBox="0 0 512 512"><path d="M490.24 113.92c-13.888-24.704-28.96-29.248-59.648-30.976C399.936 80.864 322.848 80 256.064 80c-66.912 0-144.032.864-174.656 2.912-30.624 1.76-45.728 6.272-59.744 31.008C7.36 138.592 0 181.088 0 255.904v.256c0 74.496 7.36 117.312 21.664 141.728 14.016 24.704 29.088 29.184 59.712 31.264C112.032 430.944 189.152 432 256.064 432c66.784 0 143.872-1.056 174.56-2.816 30.688-2.08 45.76-6.56 59.648-31.264C504.704 373.504 512 330.688 512 256.192v-.256c0-74.848-7.296-117.344-21.76-142.016zM192 352V160l160 96-160 96z"/></symbol></svg>