<?xml version="1.0" encoding="utf-8"?>
<!-- Generator: Adobe Illustrator 22.0.1, SVG Export Plug-In . SVG Version: 6.00 Build 0)  -->
<svg version="1.1" id="Слой_1" xmlns="http://www.w3.org/2000/svg" xmlns:xlink="http://www.w3.org/1999/xlink" x="0px" y="0px"
	 viewBox="0 0 23 25.8" style="enable-background:new 0 0 23 25.8;" xml:space="preserve">
<style type="text/css">
	.st0{fill:#609C9F;}
	.st1{fill:#041936;}
</style>
<g>
	<g>
		<path class="st0" d="M21.5,25.8c-1.1-4.3-5-7-10-7s-8.9,2.7-10,7L0,25.4c1.3-5,5.7-8.1,11.5-8.1s10.2,3.1,11.5,8.1L21.5,25.8z"/>
	</g>
	<g>
		<path class="st1" d="M11.5,1.5c4.3,0,7.9,3.5,7.9,7.9c0,4.3-3.5,7.9-7.9,7.9s-7.9-3.5-7.9-7.9C3.6,5.1,7.2,1.5,11.5,1.5 M11.5,0
			C6.3,0,2.1,4.2,2.1,9.4s4.2,9.4,9.4,9.4s9.4-4.2,9.4-9.4S16.7,0,11.5,0L11.5,0z"/>
	</g>
</g>
</svg>
