<?xml version="1.0" encoding="utf-8"?>
<!-- Generator: Adobe Illustrator 22.0.1, SVG Export Plug-In . SVG Version: 6.00 Build 0)  -->
<svg version="1.1" id="Слой_1" xmlns="http://www.w3.org/2000/svg" xmlns:xlink="http://www.w3.org/1999/xlink" x="0px" y="0px"
	 viewBox="0 0 99 62.3" style="enable-background:new 0 0 99 62.3;" xml:space="preserve">
<style type="text/css">
	.st0{fill:#FFFFFF;}
	.st1{fill:#005098;}
	.st2{fill:#F6A500;}
</style>
<g>
	<path class="st0" d="M0,0h99v62.3H0V0z"/>
	<path class="st1" d="M36.4,42.7l4-23.5h6.4l-4,23.5H36.4z M66.1,19.8c-1.3-0.5-3.3-1-5.7-1c-6.3,0-10.8,3.2-10.8,7.8
		c0,3.4,3.2,5.3,5.6,6.4c2.5,1.2,3.3,1.9,3.3,2.9c0,1.6-2,2.3-3.8,2.3c-2.6,0-3.9-0.4-6-1.2l-0.8-0.4l-0.9,5.3
		c1.5,0.7,4.3,1.2,7.1,1.3c6.7,0,11.1-3.2,11.2-8c0-2.7-1.7-4.7-5.4-6.4c-2.2-1.1-3.6-1.8-3.6-2.9c0-1,1.2-2,3.7-2
		c2.1,0,3.6,0.4,4.8,0.9l0.6,0.3L66.1,19.8 M74.6,34.4c0.9-2.2,1.7-4.4,2.6-6.6c0,0.1,0.5-1.4,0.8-2.2l0.4,2c0,0,1.2,5.6,1.5,6.8
		C79.9,34.4,74.6,34.4,74.6,34.4z M82.5,19.2h-5c-1.5,0-2.7,0.4-3.4,2l-9.5,21.6h6.7c0,0,1.1-2.9,1.3-3.5c0.7,0,7.3,0,8.2,0
		c0.2,0.8,0.8,3.5,0.8,3.5h6L82.5,19.2L82.5,19.2z M31,19.2l-6.3,16L24.1,32c-1.2-3.8-4.8-7.8-8.9-9.9l5.7,20.6l6.8,0l10.1-23.5
		L31,19.2"/>
	<path class="st2" d="M18.9,19.2H8.6l-0.1,0.5c8,1.9,13.4,6.7,15.6,12.3l-2.2-10.8C21.4,19.7,20.3,19.3,18.9,19.2"/>
</g>
</svg>
