<?xml version="1.0" encoding="utf-8"?>
<!-- Generator: Adobe Illustrator 22.0.1, SVG Export Plug-In . SVG Version: 6.00 Build 0)  -->
<svg version="1.1" id="Слой_1" xmlns="http://www.w3.org/2000/svg" xmlns:xlink="http://www.w3.org/1999/xlink" x="0px" y="0px"
	 viewBox="0 0 34 33.6" style="enable-background:new 0 0 34 33.6;" xml:space="preserve">
<style type="text/css">
	.st0{fill:#FFFFFF;}
	.st1{fill:#E2E1E6;}
	.st2{fill:#BAA085;}
</style>
<g>
	<rect x="0.2" y="0.2" class="st0" width="33.6" height="33.2"/>
	<path class="st1" d="M33.6,0.4v32.7H0.4V0.4H33.6 M34,0H0v33.6h34V0L34,0z"/>
	<path class="st2" d="M26,22.6h-2.6c-1.5,0-1.7-0.8-2.9-2.1c-1.1-1.1-1.7-0.3-1.7,1.3c0,0.4-0.2,0.8-0.7,0.8c-1.6,0-3.8,0.2-6-2.2
		c-2.3-2.5-4.7-7.5-4.7-8c0-0.3,0.3-0.4,0.6-0.4h2.7c0.7,0,0.8,0.3,1,0.8c0.8,1.8,2.8,5.6,3.3,3.5c0.3-1.2,0.4-4-0.9-4.2
		c-0.7-0.1,0.5-0.9,2.4-0.9c0.5,0,1,0,1.5,0.2c1,0.2,1,0.6,0.9,1.3c0,2.4-0.3,3.9,0.3,4.3c0.6,0.4,2.1-2.1,3-4
		c0.2-0.5,0.3-0.9,0.9-0.9h3.3c1.7,0-0.2,2.4-1.7,4.4c-1.2,1.6-1.1,1.6,0.3,2.9c1,0.9,2.1,2.1,2.1,2.9C26.9,22.4,26.7,22.6,26,22.6z
		"/>
</g>
</svg>
