<?xml version="1.0" encoding="utf-8"?>
<!-- Generator: Adobe Illustrator 22.0.1, SVG Export Plug-In . SVG Version: 6.00 Build 0)  -->
<svg version="1.1" id="Слой_1" xmlns="http://www.w3.org/2000/svg" xmlns:xlink="http://www.w3.org/1999/xlink" x="0px" y="0px"
	 viewBox="0 0 34 33.6" style="enable-background:new 0 0 34 33.6;" xml:space="preserve">
<style type="text/css">
	.st0{fill:#FFFFFF;}
	.st1{fill:#E2E1E6;}
	.st2{fill:#BAA085;}
</style>
<g>
	<rect x="0.2" y="0.2" class="st0" width="33.6" height="33.2"/>
	<path class="st1" d="M33.6,0.4v32.7H0.4V0.4H33.6 M34,0H0v33.6h34V0L34,0z"/>
	<path class="st2" d="M26.8,12c-0.2-0.9-0.9-1.6-1.8-1.8C23.4,9.7,17,9.7,17,9.7s-6.4,0-7.9,0.4c-0.9,0.2-1.6,0.9-1.8,1.8
		c-0.4,1.6-0.4,4.9-0.4,4.9s0,3.3,0.4,4.9c0.2,0.9,0.9,1.6,1.8,1.8c1.6,0.4,7.9,0.4,7.9,0.4s6.4,0,7.9-0.4c0.9-0.2,1.6-0.9,1.8-1.8
		c0.4-1.6,0.4-4.9,0.4-4.9S27.2,13.5,26.8,12z M15,19.9v-6.1l5.3,3L15,19.9z"/>
</g>
</svg>
